<?xml version="1.0" encoding="utf-8"?>
<!-- Generator: Adobe Illustrator 25.2.1, SVG Export Plug-In . SVG Version: 6.00 Build 0)  -->
<svg version="1.1" id="Layer_1" xmlns="http://www.w3.org/2000/svg" xmlns:xlink="http://www.w3.org/1999/xlink" x="0px" y="0px"
	 viewBox="0 0 256 231" style="enable-background:new 0 0 256 231;" xml:space="preserve">
<style type="text/css">
	.st0{fill:#C7C7EA;}
</style>
<path class="st0" d="M121,85c2-3,5-4,7-4c1,0,5,1,7,4c16,22,43,67,63,101l26,40c7,8,18,3,24-6s8-15,8-22c0-4-88-168-97-182
	c-9-13-11-16-26-16h-11c-14,0-16,3-25,16C88,30,0,194,0,198c0,7,2,13,8,22s17,14,24,6l26-40C78,152,105,107,121,85z"/>
</svg>
