<svg xmlns="http://www.w3.org/2000/svg" viewBox="0 0 1672.98 1823.63"><defs><style>.cls-1{fill:#71c7e8;}.cls-2{fill:#73caec;}</style></defs><g id="Layer_2" data-name="Layer 2"><g id="Layer_1-2" data-name="Layer 1"><path class="cls-1" d="M1091.24,1823.63c1.57-.46,2.31-1.71,1.07-2.73s-3.09-1.06-4.63-1.67c-20.31-8-31.76-23.68-31.92-43.8-.18-21.3,11.32-37.59,31.91-46,14.21-5.84,29.09-6.38,44.06-6.71,6-.13,12-.11,18,0,3.55.06,5.74-.89,5.47-5.05-.26-4,.29-8-.23-12-2.2-16.49-11.7-27.44-35.28-27.35-9.78,0-19,3-26.37,10.06-2.44,2.34-5.27,4.9-5.55,8.09-.59,6.85-4.43,7.7-10.07,7.35-5.94-.36-11.92-.08-18.15-.08-.85-8,2.21-14.21,6-20a53.63,53.63,0,0,1,25.91-21.09c17.82-7,36.17-8.28,54.68-2.93,20.92,6,33.26,21.4,35.55,43.25,1,9.32.55,18.63.63,27.94.1,12.32,0,24.64,0,37,0,16.94-.7,34,6,51.37-9.33.95-17.8.3-26.22.45-3.22.06-3.51-2.6-4.22-4.68-1.17-3.43-.73-7.31-3.14-11-8.87,7.57-18.47,13.79-29.78,17-1.42.4-1.25,2,.34,2.76Zm45.68-81.85c-18.87,0-30.7,2-39.71,6.64-9.79,5-14.6,12.89-14.24,24.14s5.7,18.59,15.63,23.34a32.53,32.53,0,0,0,10.56,2.64c13.53,1.57,25.27-2.85,36-11.19,8.94-7,11.22-15.9,10-26.42-.71-6.15,2.84-14-1.68-18.07C1149.53,1739.32,1142,1742.21,1136.92,1741.78Z"/><path class="cls-1" d="M377.24,1823.63c.62-.61,1.68-1.06.64-2.2-1.23-1.33-3-1.31-4.49-1.87-21-7.62-32.74-23.16-33.1-43.83-.37-21.63,11.41-38.15,32.5-46.59,14.26-5.7,29.14-6.12,44.09-6.46,6-.14,12-.12,18,0,3.38,0,4.8-1.41,4.63-4.79-.24-5,.21-10.06-.57-14.94-1.49-9.38-6.2-17.05-15.17-20.86-14.36-6.09-28.54-5.36-41.93,3-5.22,3.26-9.49,7.66-10.4,14-.58,4-2.49,4.84-5.92,4.66-7.23-.38-14.53.67-22.12-.73,1.72-17.48,11.5-29.26,25.86-37,20.55-11.15,42.48-12.71,64.57-5.16,21.13,7.21,32.42,24.14,32.88,48.51.37,19.3.06,38.61.09,57.91,0,17.28-.91,34.65,5.85,51.72-8.9,1.37-17.14.39-25.33.74-2.9.12-4.11-1.37-4.67-4-.81-3.79-1.78-7.55-2.91-12.27-9.54,8-19.1,14.34-30.45,17.42-1.4.37-1.65,1.82,0,2.78Zm44.59-81.75c-15-.5-28.16.71-40.38,6.71-9.5,4.66-14.23,12.42-14.14,23.19s4.64,18.83,14.15,23.31c14.34,6.76,28.42,4.51,41.78-3.26,11.89-6.91,18.52-16.6,16.34-31.11-.87-5.84,2.35-13.49-1.23-17.33C434.27,1739,426.4,1742.53,421.83,1741.88Z"/><path class="cls-1" d="M235.24,1823.63c-.87-2.63-3.24-3-5.46-3.68-30.75-9.12-49.7-32-52.31-64.21-1.32-16.24-1.47-32.62,3.93-48.41,7.85-23,22-40.37,45.8-47.64,32.11-9.81,69.4,1.22,81.2,43.17,3.53,12.59,4.18,25.53,4.35,38.54.06,4.79-1.49,6.33-6.3,6.28-22.3-.2-44.61-.09-66.92-.09H204.14c.41,18.91,6.45,34.1,21.69,45.17,14.14,10.27,44,11,60.85-5.89,7.72-7.76,8.05-7.43,16.87-.51a33.24,33.24,0,0,0,3.19,2.4c3.61,2.16,2.89,4.46.69,7.31a66.45,66.45,0,0,1-33.84,23.44c-1.83.57-4,.12-5.37,2-.94,1.32.45,1.53,1,2.12Zm9.46-98.44h24.89c17.82,0,18.59-.84,13.28-18.31-4.19-13.8-12.16-24.16-27.31-27.19-15.72-3.15-28.71,1.18-38.92,13.71-6,7.41-9.07,16.1-11,25.23-1.17,5.5-.37,6.44,5.23,6.51C222.14,1725.29,233.42,1725.19,244.7,1725.19Z"/><path class="cls-1" d="M1595.24,1823.63c-.61-2.27-2.53-3-4.45-3.48-31.55-8.12-47.85-29.82-52.63-60.72-2.66-17.17-2.26-34.6,3.25-51.41,7.68-23.47,22-41.12,46.31-48.41,32.57-9.77,69.91,1.78,81.26,44.65,3.17,12,3.75,24.28,4,36.63.11,5.23-1.6,6.84-6.8,6.8-30-.2-60-.1-90-.1H1565.4c-3.74,24.56,17.12,52.86,45,52.6,16.15-.15,29.31-5.19,39.87-17,3.25-3.63,5.56-4,8.77-.6a19.53,19.53,0,0,0,2.33,1.88c10.26,8,10.24,7.94.93,17.63a61.45,61.45,0,0,1-30.6,17.73c-1.85.44-5,.33-2.46,3.75Zm10-98.44c11.29,0,22.57.09,33.86,0,6.46-.07,6.53-.25,6.07-7a55.7,55.7,0,0,0-5.13-19.07c-11.21-25-44.35-25.62-59.55-9.92-8.18,8.44-12.48,18.63-14.8,29.83-1.09,5.26-.33,6,5.7,6.12C1582.67,1725.28,1594,1725.19,1605.24,1725.19Z"/><path class="cls-1" d="M559.24,1823.63c-.62-2.26-2.54-3-4.46-3.47-26.51-6.89-41.85-24.7-48.29-50.48-5.32-21.32-5.59-42.93,1-64,7.37-23.77,22.35-40.87,47.25-46.78,29-6.88,56.06.12,72.87,23.82,5.12,7.23,7.94,15.31,9.43,23.9,1.22,7.07.85,7.36-6.12,7.53-2.33.06-4.67.13-7,0-3.61-.21-7.64,1.23-10.73-.89-2.89-2-1.72-6.12-2.95-9.17-5.21-12.88-13.91-21.7-27.92-24.33-15.44-2.9-29,.5-39.57,12.75-6,7-9.39,15.4-10.87,24.31-2.91,17.54-3.22,35.19,1.65,52.45,8.14,28.85,40.76,40.76,64.5,23.77,6.68-4.78,11.77-10.84,13.33-19.15.61-3.23,2.09-4.52,5.32-4.42,4.66.14,9.32,0,14,0,7.28.11,8.06.92,6,8.17-5.57,19.66-18.71,32.43-37.35,39.94-3.07,1.24-6.42,1.86-9.32,3.38-1.19.62-.31,2.28,1.27,2.69Z"/><path class="cls-1" d="M1259.24,1823.63c2.52-1.75.45-2.9-.79-3.34-17.65-6.25-22.27-20.73-23-37.16-.59-14.28-.18-28.61-.19-42.91,0-17.64,0-35.27,0-52.9,0-7-.17-7-7.14-7.16-5.66-.11-11.33-.24-17,0-4.09.2-5.37-1.64-5.06-5.32,0-.33,0-.66,0-1,.24-17.74-1.9-14.11,14-14.34,15.23-.23,15.23,0,15.23-15.18,0-6,.22-12-.06-18-.21-4.41,1.62-5.89,5.81-5.74,5.32.2,10.66.21,16,0,4.41-.17,5.78,1.8,5.68,6-.21,8-.1,16,0,23.95.06,8.8.09,8.82,8.52,8.89,5.66,0,11.37-.45,17,.14,8.59.9,3.49,7.79,4.22,11.83.54,3.06,2.69,8.66-4.35,8.66-6,0-12,0-18,0-7.14.11-7.27.17-7.36,7-.13,9.64,0,19.29,0,28.94V1777c.18,19.42,7,25,26.23,21.23,1-.19,2-.21,4.36-.45,0,6.28,0,12.41,0,18.54,0,2.49-1.44,3.32-3.48,4-1.76.62-2.88,1.78-.53,3.27Z"/><path class="cls-2" d="M703.24,1823.63c2.36-2,0-2.94-1.14-3.33-17.68-6.2-22.71-20.43-22.9-37.09-.34-31.31-.09-62.63-.13-93.94,0-9.08-.07-9.09-9.32-9.16-2,0-4,.05-6,0-16.31-.47-13.87,3.6-14.27-15.19-.1-4.68,2.07-5.58,6-5.45,5.66.19,11.35-.27,17,.14,5.45.39,6.83-1.93,6.65-6.95-.3-8.65.07-17.32-.14-26-.11-4.08.87-6.33,5.48-6,6.6.52,14.81-2.64,19.44,1.23,4.88,4.08,1.26,12.5,1.76,19a100.39,100.39,0,0,1,0,13c-.22,4.44,1.85,5.79,6,5.65,6.33-.21,12.67.17,19-.12,4.14-.19,4.88,1.67,5.07,5.31.78,15.36.89,15.36-14,15.36-16.06,0-16.06,0-16.06,15.56q0,38.47,0,76.95c0,3-.09,6,.18,9,1.19,13.48,7.68,18.8,21.11,17.79,3-.23,5.68-2.19,9.08-1,1.15,5.46.28,11.12.58,16.72.14,2.7-.93,4.24-3.51,5.21-2.11.79-2.21,2.19,0,3.25Z"/><path class="cls-2" d="M1332.73,254.67c-.6,62.87-8.47,121.5-20.18,179.7-1.48,7.37-6.68,15.9-2.8,22,3.48,5.44,13,5.42,19.89,7.63,61.53,19.76,120.74,44.77,176.37,77.84,37.12,22.06,71.37,47.79,100.16,80.24,16.25,18.31,29.66,38.5,38.42,61.47,14.94,39.16,12.55,77.52-6.1,115-15.73,31.57-39,57-65.41,79.81-37.31,32.14-79.47,56.72-123.62,78.13-40.67,19.72-82.79,35.77-125.78,49.6-2.53.81-5.06,1.62-7.62,2.29-4.66,1.2-6.08,3.6-4.94,8.62,3.38,14.91,6.48,29.9,9.17,44.95,10.4,58.14,16.88,116.64,14.29,175.83-1.85,42.4-7.7,84.12-23.34,124-9.83,25.06-23.18,47.87-42.79,66.66a131.84,131.84,0,0,1-72.09,35.68c-39.45,6.28-77.43-.69-114.69-13.26-50.82-17.14-96.72-43.65-140.6-74-35.68-24.68-69.06-52.18-101.16-81.29a38.74,38.74,0,0,1-4.38-4.09c-3.11-3.92-5.58-3-8.89.1-15.53,14.62-31.64,28.58-48.1,42.14-46.88,38.62-96.49,73.09-151.51,99.29-31.6,15-64.25,27-99,32.29-39.89,6.08-78.28,2.69-113.45-19.29-21.12-13.21-36.84-31.48-49.26-52.76-17.18-29.44-26.5-61.61-31.95-94.95-8.66-53-7.84-106.09-2.63-159.33,4-40.46,10.79-80.42,19.39-120.11,1.73-8,1.74-8-6.74-10.61-55.57-17.29-109.59-38.4-161-65.82-40.08-21.38-77.95-46-110.87-77.61-23-22.11-42.6-46.71-55-76.44C.09,748.79,1.36,709.75,20,671.38c17.11-35.16,43.25-62.89,73.21-87.33,45.48-37.1,96.69-64.41,150.3-87.54a1031.3,1031.3,0,0,1,98-36.21c9.14-2.89,9.07-2.94,6.94-12.38-15.25-67.76-24.54-136.23-23.2-205.84.89-46.49,6.7-92.19,23.68-135.93,8.89-22.88,20.82-43.91,37.85-61.71,26.89-28.1,60.18-41.42,98.86-43,39-1.59,75.77,7.78,111.53,21.91C654.22,45.9,705.31,78.68,753.7,116c23.5,18.11,46,37.34,68,57.31,7.3,6.65,7.41,6.68,14.93-.28C878,134.72,922,99.7,969.72,69.58c38-24,77.88-44.37,121-57.76C1119.28,3,1148.35-1.64,1178.24.53c51.09,3.72,88.9,28.79,114.9,72.33,16.93,28.37,26.24,59.5,32.09,91.76C1330.82,195.51,1332.66,226.73,1332.73,254.67ZM833.58,1002.78c33.69-.64,70.68-.71,107.58-3.2,11.28-.76,22.51-2.37,33.79-2.86,5.76-.24,8.78-3,11.77-7.34,54.06-78.91,101.1-161.83,142.37-248.07,2.69-5.63,2.74-10,0-15.7a1851.3,1851.3,0,0,0-141.68-245c-4.46-6.53-9.41-9.41-16.88-9.81-22.27-1.19-44.51-3.21-66.79-3.87-61.95-1.84-123.9-1.7-185.8,1.92-11.61.68-23.17,2.43-34.78,3-4.73.25-7.07,2.53-9.43,6A1828.92,1828.92,0,0,0,529.82,728.42c-2.23,4.69-2.17,8.32.1,13,17.55,36.2,35.71,72.08,55.52,107.11q41.05,72.56,88.19,141.34c3.12,4.54,6.6,6.8,12,7.32,10.61,1,21.26,1.53,31.87,2.2C755,1001.79,792.67,1002.55,833.58,1002.78Zm-56.9,232.63c-13-14.26-25.9-28.12-38.45-42.29q-51-57.63-96.45-119.8c-3-4-6.13-6.59-11.29-6.94-21.25-1.45-42.25-4.86-63.31-7.93-45.35-6.63-90.42-14.7-135-25.57-8.62-2.11-8.92-2-10.66,6.34-13.26,63.37-22.29,127.18-20.21,192.16.85,26.68,3.69,53.15,10.29,79,5.45,21.38,13.05,41.89,27.47,59.22a62.05,62.05,0,0,0,31.32,20.23c21.2,6.14,42.16,3.44,63.06-1.4,29.35-6.81,56.62-18.92,82.95-33.21,48.52-26.34,92.39-59.26,133.91-95.42C759.33,1252,768.79,1244.63,776.68,1235.41ZM79.32,732.58a62,62,0,0,0,1.15,11.92c2.92,16.19,11,29.83,20.78,42.64,13,17.09,28.8,31.42,45.75,44.42,37.68,28.89,79.17,51.21,122.65,70A957.68,957.68,0,0,0,361,935.45c11,3.47,7.9,4.27,11.77-6.39,1.46-4,2.39-8.3,3.64-12.43A1560.45,1560.45,0,0,1,441.12,743c2.36-5.38,3.15-10,.5-15.91a1544.51,1544.51,0,0,1-70.54-190.55c-2-6.7-2.13-6.7-8.75-4.63-47.59,14.87-93.89,32.88-138.15,56-36.41,19-71.09,40.48-101.16,68.77-12.18,11.46-23,24-31.63,38.44C84.51,706.62,79.59,718.88,79.32,732.58Zm1210.8,204.27c3.18,1.1,5.26-.46,7.34-1.12,36-11.51,71.51-24.64,106-40.36,41.55-19,81.23-41.17,116.72-70.21,20.21-16.53,38.47-34.85,51-58.21,11.38-21.23,11.68-42.48,1-64-7.33-14.78-17.37-27.53-28.81-39.28-24.12-24.77-52.33-44.13-82-61.52-52.1-30.54-108-52.14-165.34-70.56-6.49-2.08-6.59-2-9,5.9a1590.13,1590.13,0,0,1-69.14,187.83c-2.5,5.67-2.43,10.24.08,15.9a1596.25,1596.25,0,0,1,64.39,170.48C1285,920.19,1287.62,928.72,1290.12,936.85ZM883.17,231.67c1.54,3.67,4.4,5.59,6.59,8,15.57,17.36,31.49,34.42,46.72,52.06,28.31,32.77,55.35,66.6,80.71,101.71,3.4,4.69,7.07,7,12.85,7.68,17.83,2,35.61,4.41,53.38,6.85a1408.82,1408.82,0,0,1,145.77,27.43c6.73,1.66,6.84,1.59,8.39-5.42,11-49.82,18.39-100.13,20.25-151.17,1.4-38.72,0-77.25-8.61-115.21-4.74-20.86-11.4-41-23.73-58.82-10.7-15.46-24.79-25.4-43.73-28.67-16.07-2.78-31.88-1.67-47.58,1.42-32.57,6.41-62.66,19.53-91.63,35.29-48.48,26.39-92.38,59.26-133.83,95.5C900,216,890.91,223.17,883.17,231.67Zm-107.54.56c-21.77-20-43.59-38.53-66.22-56.07-40.84-31.65-83.68-60.1-131.51-80.26-29.58-12.47-59.84-21.5-92.65-19.6-21.07,1.22-37.67,9.52-50.27,26.23-8.91,11.81-15.06,25-19.73,38.95-11.95,35.78-15.2,72.85-15.66,110.2-.56,45.06,4.76,89.65,12.76,133.93,2.72,15,5.89,30,9,45,1.3,6.26,1.94,6.56,8,5.31,1-.2,1.87-.73,2.84-.95,47.2-11,94.7-20.41,142.76-26.87,18.1-2.43,36.21-4.88,54.35-6.93,5.74-.65,9.42-2.95,12.84-7.7A1487,1487,0,0,1,736.3,275.8C749.07,261.38,762.11,247.2,775.63,232.23Zm460.88,798c-41.89,10.18-83.14,18.73-124.79,25.15-26.92,4.15-53.88,8.25-81,10.64-5.5.48-9,2.34-12.29,6.84a1545.67,1545.67,0,0,1-129.11,156.19c-5.58,5.9-5.47,6,.41,11.33,28.57,26,58.34,50.65,90,72.88,37.65,26.43,76.82,50.13,120.48,65.5,23.66,8.33,47.83,13.93,73.16,12.86,19.24-.81,35.5-7.77,48-22.74a111.55,111.55,0,0,0,16.25-26.19c14.85-33.07,19.62-68.25,21.43-103.93,2.74-53.8-2.52-107.08-12.15-160C1244,1062.82,1241.18,1046.78,1236.51,1030.23ZM923,1075.05c-62.84,2.62-123.49,2.61-186,0,30,38,60,73.68,93.41,107.41C863.2,1148.89,893.26,1113.6,923,1075.05Zm-1.48-682.19a36.21,36.21,0,0,0-1.82-3.51q-40.77-51.8-86.21-99.53c-4.53-4.74-4.69-4.65-9.85.73-29.28,30.52-56.6,62.73-82.68,96-1.22,1.56-3.91,2.83-2,6.33C799.2,389.05,859.69,390.13,921.56,392.86ZM487.83,643.81c28.61-55.59,58.74-108.2,91.9-160-8.09,0-14.56,1.5-21.08,2.54C521.93,492.17,485.4,499,449.29,508c-8,2-8.07,2.05-5.57,10.23,9.51,31.16,19.69,62.1,31.26,92.56C479,621.24,483.12,631.68,487.83,643.81Zm683.59,179.68c-28.56,56.18-58.71,108.43-91.37,159.67,5.89,2,10.55-.4,15.31-1.09,38.73-5.66,77-13.68,115.15-22.42,7.45-1.71,7.41-1.87,5.32-9.09-9.22-31.9-20.11-63.23-31.58-94.37C1180.5,846,1176.34,836,1171.42,823.49Zm-92.4-340c33.62,51.73,63.83,103.83,91.66,157.6,1.4-1.23,2.07-1.53,2.26-2,15.8-40.59,30.24-81.64,42.47-123.45,1.26-4.34,1.08-6.18-4-7.47-28.66-7.24-57.73-12.41-86.76-17.8C1110,487.64,1095.44,485,1079,483.49Zm-590.57,343c-1.07,1.17-1.39,1.37-1.5,1.66-16.79,40.9-30.6,82.82-43.42,125.1-1.4,4.61,1.19,5.78,4.84,6.61,37.84,8.63,75.81,16.63,114.26,22,5.27.74,10.56,3.61,16.46,1.29-15.71-25.86-31.29-51.32-46.69-76.9C516.81,880.36,502.77,853.58,488.45,826.45Z"/><path class="cls-1" d="M985.67,1767.21V1615.66c0-2.33.11-4.67,0-7-.17-3.21.81-5,4.44-5,6.32.14,12.66.17,19,0,3.6-.11,4.67,1.52,4.45,4.78-.14,2,0,4,0,6v194.85c0,1.66-.1,3.33,0,5,.24,3.51-.57,5.21-4.83,5.46-22.2,1.31-22.16,1.45-34.18-17q-45.59-69.78-91.24-139.51c-1.55-2.37-2.59-5.25-6.25-7.59-.19,4.21-.48,7.66-.49,11.1q0,70.44,0,140.89c0,2.33-.17,4.68,0,7,.35,4.12-1.77,5.3-5.41,5-.33,0-.67,0-1,0l-20.93-.5c-2.48-6.76-1.15-13.78-1.16-20.66q-.19-91.42-.08-182.86c0-2.33.11-4.67,0-7-.15-3.21.88-5.17,4.47-4.88.33,0,.67,0,1,0,7.33.07,15.32-1.64,21.79.75,6.21,2.28,8.42,10.58,12.2,16.35q45.11,68.88,90,137.91c2,3,4,6,6.07,9Z"/><path class="cls-2" d="M106.59,1726.54l51.27,92.87c-10.23.07-19.27.18-28.32.18-3.9,0-4.5-3.55-5.83-6-12.95-24-26.06-47.89-38.52-72.13-3.68-7.16-8-10.18-16.16-9.53-9.6.77-19.31.15-29,.19-11.75.05-11-1.33-11,10.5q0,33,0,65.94c0,2.33-.1,4.66,0,7,.13,3-1.26,4.25-4.15,4.1-.33,0-.66,0-1,0-7.27-.29-16.32,2.81-21.32-1.21-4.76-3.83-1.57-13.08-1.59-19.92q-.2-90.9-.08-181.82a56.17,56.17,0,0,0,0-7c-.66-5,1.68-6.08,6.28-6,17.66.23,35.32.18,53,.06,14.33-.1,28.61,0,42.55,4,42.51,12.17,59.26,62.26,32.71,97.78C128.23,1715.13,118.25,1721,106.59,1726.54Zm-77.51-59c0,10.33,0,20.65,0,31,0,12.2-1,10.89,10.44,10.94,10.33,0,20.66-.11,31,.06a76.65,76.65,0,0,0,17.82-2c20.48-4.53,32.15-21.14,30.83-43.74-1.15-19.78-15.59-34.7-36-35.84-16.28-.91-32.64-.38-49-.65-3.91-.07-5.18,1.45-5.12,5.26C29.2,1644.25,29.09,1655.91,29.08,1667.56Z"/><path class="cls-1" d="M1519,1659.49c-5.8,16.31-11.19,31.6-16.66,46.87-12.42,34.67-24.75,69.38-37.37,104-3.79,10.38-.94,9.2-13.07,9.31a37.73,37.73,0,0,0-5,0c-4.43.66-6.51-1.34-7.88-5.48-3.34-10.07-7.13-20-10.75-30q-21-58-42.06-116c-.89-2.46-1.71-5-3-8.65,8.64,0,16.48,0,24.32,0,2.37,0,3.51,1.12,4.17,3.33,1,3.5,2.37,6.9,3.52,10.36q16.23,49.14,32.51,98.25c.9,2.71,1.16,5.86,4.39,9,1.15-3.22,2.12-5.75,3-8.32,11.33-35,22.75-70.06,33.84-105.18,1.75-5.55,4-8.26,10.27-7.65S1511.77,1659.49,1519,1659.49Z"/><path class="cls-1" d="M1354.61,1740.27q0,34.47,0,69c0,11.81,1.15,10.32-10.88,10.43-3,0-6,0-9,0-7.94.1-7.47,0-7.46-7.78q0-65.45,0-130.89c0-5.33.24-10.67-.07-16-.25-4.5,1.71-5.77,5.85-5.57a122.73,122.73,0,0,0,15,0c5.4-.42,6.72,1.86,6.68,6.93C1354.49,1691,1354.61,1715.63,1354.61,1740.27Z"/><path class="cls-1" d="M1341.31,1601.28c9.52.07,15.82,6.08,15.93,15.22.12,9.53-6.55,15.67-16.74,15.43-9.57-.22-15.54-6.36-15.31-15.76S1331.41,1601.22,1341.31,1601.28Z"/><path class="cls-2" d="M829,887.2c-82.06.39-154-66.06-153-155.94.88-82.07,68-151.19,154.3-150.86,81.93.31,153.15,65.5,152.53,155.71C982.21,821.29,912.14,887.75,829,887.2Z"/></g></g></svg>