<?xml version="1.0" encoding="utf-8"?>
<!-- Generator: Adobe Illustrator 25.2.1, SVG Export Plug-In . SVG Version: 6.00 Build 0)  -->
<svg version="1.1" id="Layer_1" xmlns="http://www.w3.org/2000/svg" xmlns:xlink="http://www.w3.org/1999/xlink" x="0px" y="0px"
	 viewBox="0 0 138.4 138.4" style="enable-background:new 0 0 138.4 138.4;" xml:space="preserve">
<style type="text/css">
	.st0{fill:#36D9FF;}
</style>
<g id="Layer_2_1_">
	<g id="Layer_1-2">
		<path class="st0" d="M10.5,64.4c0,19.2,0.2,38.3-0.1,57.5c-0.1,5.3,1.6,6.2,6.4,6.1c38.5-0.2,77-0.1,115.5-0.1c1.3,0,2.7,0,4,0
			s2.2,0.5,2.2,2s-1,1.5-2,1.5s-2.3,0-3.5,0c-38.8,0-77.7,0-116.5-0.1c-3.7,0-6.8,0-5.9,5.1c0.2,1.1-0.3,1.9-1.6,1.9
			c-1.2,0-2-0.6-1.9-1.8c0.4-3.9-1.1-5.7-5.1-5.2c-0.8,0.2-1.7-0.3-1.9-1.2c0-0.2-0.1-0.4,0-0.5c-0.1-1.7,1.1-1.9,2.3-1.7
			c4.3,0.8,4.7-1.6,4.7-5.1c-0.1-39-0.1-78,0-117c0-1.3,0-2.7,0-4C7,0.7,7.4,0,8.7,0s1.7,0.8,1.8,1.9s0,2.3,0,3.5L10.5,64.4z"/>
		<path class="st0" d="M47.6,38.9C64.2,39,76.6,51,77.8,68.6c0.8,12.2,6.2,20.9,18,25.1c14.5,5.1,30.8-4.7,33.3-19.8
			c0.1-0.7,0.2-1.3,0.2-2c0.1-2,0.7-3.2,3-2.8s1.5,2.2,1.5,3.5c-0.7,12.3-12.6,24.8-25,26.3c-18.8,2.3-32.7-8.4-35-27.2
			c-1.1-9.2-3-17.5-11.2-23.4c-11.5-8.4-27.6-5.9-36,5.6c-2.5,3.4-4.1,7.3-4.7,11.4c-0.3,2,0,4.4-3.1,3.7s-1.2-3-1-4.4
			C19.9,49.7,32.7,38.7,47.6,38.9z"/>
	</g>
</g>
</svg>
