<?xml version="1.0" encoding="utf-8"?>
<!-- Generator: Adobe Illustrator 25.2.1, SVG Export Plug-In . SVG Version: 6.00 Build 0)  -->
<svg version="1.1" id="Layer_1" xmlns="http://www.w3.org/2000/svg" xmlns:xlink="http://www.w3.org/1999/xlink" x="0px" y="0px"
	 viewBox="0 0 512 228" style="enable-background:new 0 0 512 228;" xml:space="preserve">
<style type="text/css">
	.st0{fill:#C2EEFF;}
	.st1{fill:#0F80CC;}
	.st2{fill:url(#SVGID_1_);}
</style>
<path class="st0" d="M194.5,112c-6.8,0-12.3,2-16.6,6.1c-4.3,4-6.4,9.3-6.4,15.8c-0.2,6.3,2.1,12.4,6.5,17c2.2,2.4,6.6,5.6,13.2,9.7
	c8,5,13.4,9,16,12c2.5,3.2,3.7,6.4,3.7,9.9c0,4.5-1.5,8.2-4.6,11c-3.5,2.8-7.9,4.3-12.4,4c-11.1,0.1-20.2-8.8-20.3-19.9
	c0-0.3,0-0.6,0-0.9h-2.5v22.9h2.5c0.8-2.2,1.8-3.3,3.2-3.3c0.7,0,2.3,0.4,4.7,1.3c6,2.1,10.9,3.2,14.7,3.2c6.4,0.1,12.6-2.4,17-7
	c8.5-8.2,9.5-21.4,2.4-30.8c-3-4-9-8.6-18-14c-5.6-2.9-10.6-6.8-15-11.3c-2.3-3-3.5-6.1-3.5-9.7c0-3.8,1.5-7,4.2-9.2
	c2.8-2.3,6.5-3.5,11-3.5c5.2,0,9.5,1.5,12.9,4.6c3.3,3,5.3,7.4,5.9,12.8h2.5V113h-2.3c-0.1,0.7-0.4,1.4-0.8,2
	c-0.3,0.3-0.7,0.4-1.4,0.4c-1.5-0.1-2.9-0.5-4.3-1C202.9,113,198.7,112.2,194.5,112L194.5,112z M276.9,112c-16-0.2-30.9,8.3-39,22.2
	c-9.3,16-7.5,36.1,4.5,50.2c7,8.2,15.3,13.3,25,15.3c2.1,1.1,5.3,4.1,9.4,9c4.7,5.3,8.6,9.3,11.9,11.6c6.5,4.7,14.3,7,22.3,6.7
	c5.3,0,10-0.9,14-2.7l-0.9-2.3c-6.2,2.4-13.2,1.5-18.7-2.3c-3.6-2.5-8.3-7.1-13.8-14c-1.6-2.2-3.4-4.2-5.4-6.1
	c10.6-2,19.3-7.2,26-15.4c6.6-7.8,10.3-17.7,10.2-28c0.2-11.9-4.6-23.3-13.2-31.4c-8.6-8.5-20.3-13.2-32.4-12.9L276.9,112z
	 M328.3,112l0.1,2.7c5.5,0,8.6,1.7,9.3,5c0.3,1.1,0.4,3.3,0.4,6.4v59.6c0,4.5-0.7,7.3-2,8.6c-1.1,1.2-3.2,2-6.2,2.3l-0.1,2.6h55.1
	l1.4-13.5h-2.5c-0.7,3.7-2.3,6.3-5,7.8c-4.4,1.9-9.2,2.6-14,2.3h-5.2c-6,0-9.5-2.2-10.5-6.6c-0.2-0.9-0.2-1.8-0.2-2.8l0.2-60.3
	c0-4.4,0.5-7.4,1.7-8.9c1.2-1.4,3.3-2.3,6.4-2.5L357,112L328.3,112L328.3,112z M277.7,115.3c9-0.2,17.6,4,23,11.2
	c6.3,8.9,9.4,19.6,8.8,30.5c0,12.3-3,22.1-8.9,29.5c-5.7,7.2-14.5,11.3-23.7,11c-9.5,0-17.2-3.8-23-11.4c-6.2-8.6-9.3-19-8.9-29.6
	c0-12.5,3-22.5,9-30C259.9,119,267.8,115.3,277.7,115.3z M404.6,128.1c-1.3,0-2.4,0.5-3.1,1.4c-0.8,1-1,2-0.8,3.4
	c0.3,1.4,1.1,2.6,2.2,3.4c1.1,1,2.4,1.4,3.7,1.4c1.3,0,2.3-0.5,3-1.4c0.7-1,1-2.1,0.7-3.4c-0.3-1.4-1-2.5-2-3.4
	C407.3,128.6,406,128.1,404.6,128.1L404.6,128.1z M441,137.3c-2.3,8.8-7.3,13.5-14.9,14.3l0.1,2.5h8.9l-0.2,29.8
	c0,5.1,0.2,8.5,0.5,10.2c1,4.2,3.6,6.3,8.1,6.3c6.6,0,13.4-4,20.6-12l-2.2-1.8c-5.2,5.2-9.7,7.8-13.7,7.8c-2.5,0-4-1.4-4.6-4.2
	l-0.2-2.4v-33.7h13.7l-0.2-4h-13.4v-12.8L441,137.3L441,137.3z M493.4,148.5c-7.6,0-13.7,3.7-18.5,11c-4.8,7.2-6.4,16-4.4,24.4
	c0.8,4.7,3.1,9,6.7,12.2c3.6,2.9,8.1,4.5,12.7,4.3c4.7,0,11.4-1.2,14.1-3.7c2.8-2.4,5.4-6.3,7.8-11.7l-2-2
	c-3.5,6.2-10,10.2-17.1,10.5c-8,0-12.8-4.3-14.6-13l-0.5-3.5c7.7-0.8,15.1-3.6,21.4-8c4.8-3.8,9.6-7.9,8.7-12.1
	c-0.5-2.4-1.9-4.6-3.9-6C501.8,149.3,496.4,148.5,493.4,148.5L493.4,148.5z M410.4,148.8l-16.3,3.8v2.9l5.7-0.7
	c2.7,0,4.3,1.2,4.8,3.7c0.2,0.8,0.3,2,0.4,3.4l-0.2,26.8c0,3.7-0.5,5.8-1.3,6.5c-0.8,0.6-3,1-6.6,1v2.5h25.9v-2.5
	c-3.7,0-6-0.3-7-0.9c-1-0.5-1.8-1.5-2.1-3c-0.2-1.2-0.3-3.1-0.4-5.7l0.1-37.8H410.4z M489.3,153.8c1.6,0,3,0.6,4.6,1.8
	c1.4,1,2.4,2.4,2.8,4c1.4,7-4.9,12-19,14.7c-0.5-4.9,0.4-9.8,2.7-14.1C482.7,155.9,485.7,153.8,489.3,153.8z"/>
<path class="st1" d="M157.9,10H17C7.7,10,0,17.7,0,27v155.2c0,9.4,7.7,17.2,17.1,17.2h92.7c-1-46.2,14.7-135.7,48-189.5L157.9,10z"
	/>
<linearGradient id="SVGID_1_" gradientUnits="userSpaceOnUse" x1="-40.2226" y1="532.902" x2="-40.2226" y2="531.978" gradientTransform="matrix(147.8 0 0 -156 6023.8003 83150.8438)">
	<stop  offset="0" style="stop-color:#97D9F6"/>
	<stop  offset="0.92" style="stop-color:#0F80CC"/>
	<stop  offset="1" style="stop-color:#0F80CC"/>
</linearGradient>
<path class="st2" d="M152.8,15H17c-6.5,0-12,5.4-12,12v144c30.7-11.8,76.8-22,108.7-21.5c9.8-45.7,22.8-90.6,39-134.5H152.8z"/>
<path class="st0" d="M190.7,4.9c-9.6-8.6-21.3-5.2-32.8,5c-1.8,1.6-3.5,3.3-5.1,5c-19.7,21-38,59.7-43.7,89.2
	c2.6,5.7,4.5,11.6,5.8,17.7l0.8,3.5l-0.9-2.8c-0.3-0.7-0.5-1.3-0.8-2c-2-4.1-4.1-8.2-6.4-12.1l-3.5,11c4.5,8.2,7.3,22.4,7.3,22.4
	l-1.4-4.1c-1-2.9-6-11.7-7.2-13.7c-2,7.5-2.8,12.6-2.1,13.8c1.4,2.4,2.7,6.5,4,11c1.9,8.3,3.5,16.6,4.6,25
	c-0.3,8.6-0.1,17.6,0.5,25.7c0.4,8.4,2,16.8,4.7,24.8l1.5-0.8c-3.4-12-4.7-24.5-3.9-37c0.9-22.5,6-49.5,15.6-77.7
	c16-42.5,38.4-76.6,58.8-93c-18.6,17-43.8,71.4-51.4,91.6c-7.9,20.7-14,42.2-18,64c6.2-19,26.4-27.2,26.4-27.2s9.8-12.2,21.4-29.6
	c-7.5,1.6-14.8,3.6-22.1,6l-7.1,3c0,0,18.1-11,33.7-16C191,73.8,214.2,25.9,190.7,4.9"/>
</svg>
