<?xml version="1.0" encoding="utf-8"?>
<!-- Generator: Adobe Illustrator 25.2.1, SVG Export Plug-In . SVG Version: 6.00 Build 0)  -->
<svg version="1.1" id="Layer_1" xmlns="http://www.w3.org/2000/svg" xmlns:xlink="http://www.w3.org/1999/xlink" x="0px" y="0px"
	 viewBox="0 0 947.2 471.1" style="enable-background:new 0 0 947.2 471.1;" xml:space="preserve">
<style type="text/css">
	.st0{fill:#3B1C47;}
	.st1{fill:#7A4192;}
</style>
<g>
	<g>
		<g>
			<polygon class="st0" points="533.3,364.3 13.9,7.8 5.5,17.8 499.3,384.7 			"/>
			<polygon class="st1" points="533.3,364.3 13.9,7.8 7.1,16 516.3,374.5 			"/>
		</g>
		<g>
			<circle class="st1" cx="25.7" cy="25.7" r="25.7"/>
			<path class="st0" d="M8,23.3C6.6,17.8,6.6,12.2,8,7.1c-6.6,6.2-9.6,15.8-7.1,25.2c3.6,13.7,17.7,21.9,31.4,18.3
				c2.8-0.7,5.3-1.9,7.6-3.4C25.3,47.6,11.9,38,8,23.3z"/>
		</g>
	</g>
	<g>
		<polygon class="st0" points="507.4,371.6 934.2,128.7 924.4,120.2 485.1,338.7 		"/>
		<polygon class="st1" points="507.4,371.6 934.2,128.7 926.2,121.8 496.3,355.2 		"/>
	</g>
	<path class="st1" d="M353.1,471.1c0-83.4,67.6-151,151-151s151,67.6,151,151H353.1z"/>
	<path class="st0" d="M551.8,327.8c-15-5-31-7.7-47.7-7.7c-83.4,0-151,67.6-151,151h63.5C420,396.1,478,335.4,551.8,327.8z"/>
	<g>
		<circle class="st1" cx="921.5" cy="126" r="25.7"/>
		<path class="st0" d="M911.7,111c3.2-4.7,7.5-8.3,12.3-10.6c-9-0.9-18.2,3-23.7,11c-8,11.7-5,27.7,6.6,35.7
			c2.4,1.6,4.9,2.8,7.5,3.5C904.7,140,903.2,123.5,911.7,111z"/>
	</g>
</g>
</svg>
