<svg xmlns="http://www.w3.org/2000/svg" viewBox="0 0 239.72 394.4"><g id="Layer_2" data-name="Layer 2"><g id="Layer_1-2" data-name="Layer 1"><path d="M144.7,300.8V293q0-121.54,0-243.08c0-24,14.18-43,36.09-48.49a47.25,47.25,0,0,1,58.92,45.1c.09,6.1-4,10.92-9.64,11.29-5.94.39-10.24-3.35-11.13-9.66a61.83,61.83,0,0,0-1.22-7.86c-3.5-12.49-15.09-20.1-28.24-18.71a26.05,26.05,0,0,0-23.14,24.25c-.16,2.49-.15,5-.15,7.48q0,128.77,0,257.55c0,43.59-33.43,79.94-76.51,83.25A83.42,83.42,0,0,1,.63,322.63,69.08,69.08,0,0,1,0,311.68c.1-6.3,3.84-10.15,10.16-10.78,1.65-.16,3.33-.09,5-.09H144.7ZM22.84,322.11c2.32,23.64,27.7,53.79,65.85,50.53,27.21-2.33,56-29,54.18-50.53Z"/></g></g></svg>