<?xml version="1.0" encoding="utf-8"?>
<!-- Generator: Adobe Illustrator 25.2.1, SVG Export Plug-In . SVG Version: 6.00 Build 0)  -->
<svg version="1.1" id="Layer_1" xmlns="http://www.w3.org/2000/svg" xmlns:xlink="http://www.w3.org/1999/xlink" x="0px" y="0px"
	 viewBox="0 0 239.7 394.4" style="enable-background:new 0 0 239.7 394.4;" xml:space="preserve">
<style type="text/css">
	.st0{fill:#FFFFFF;}
</style>
<g id="Layer_2_1_">
	<g id="Layer_1-2">
		<path class="st0" d="M144.7,300.8V293c0-81,0-162.1,0-243.1c0-24,14.2-43,36.1-48.5c25.3-6.4,51,8.8,57.5,34.1
			c0.9,3.6,1.4,7.3,1.5,11c0.1,6.1-4,10.9-9.6,11.3c-5.9,0.4-10.2-3.3-11.1-9.7c-0.2-2.6-0.6-5.3-1.2-7.9
			c-3.5-12.5-15.1-20.1-28.2-18.7c-12.6,1.4-22.3,11.6-23.1,24.2c-0.2,2.5-0.1,5-0.1,7.5c0,85.8,0,171.7,0,257.6
			c0,43.6-33.4,79.9-76.5,83.2c-43.9,3.4-82.9-27.9-89-71.5c-0.5-3.6-0.7-7.3-0.6-11c0.1-6.3,3.8-10.1,10.2-10.8
			c1.6-0.2,3.3-0.1,5-0.1L144.7,300.8L144.7,300.8z M22.8,322.1c2.3,23.6,27.7,53.8,65.9,50.5c27.2-2.3,56-29,54.2-50.5H22.8z"/>
	</g>
</g>
</svg>
