<?xml version="1.0" encoding="utf-8"?>
<!-- Generator: Adobe Illustrator 25.2.1, SVG Export Plug-In . SVG Version: 6.00 Build 0)  -->
<svg version="1.1" id="Layer_1" xmlns="http://www.w3.org/2000/svg" xmlns:xlink="http://www.w3.org/1999/xlink" x="0px" y="0px"
	 viewBox="0 0 256 204" style="enable-background:new 0 0 256 204;" xml:space="preserve">
<style type="text/css">
	.st0{fill:#A166FF;}
</style>
<path class="st0" d="M53.2,0C38.6,0,27.8,12.8,28.2,26.6c0.5,13.3-0.1,30.6-4.5,44.6C19.4,85.4,12,94.3,0,95.5v13
	c12,1.1,19.4,10.1,23.8,24.2c4.3,14.1,4.9,31.3,4.5,44.6c-0.5,13.9,10.3,26.6,24.9,26.6h149.7c14.6,0,25.4-12.8,24.9-26.6
	c-0.5-13.3,0.1-30.6,4.5-44.6c4.4-14.1,11.7-23.1,23.7-24.2v-13c-12-1.1-19.4-10.1-23.7-24.2c-4.3-14.1-4.9-31.3-4.5-44.6
	C228.3,12.8,217.5,0,202.8,0H53.2C53.2,0,53.2,0,53.2,0z M173.6,125.5c0,19.1-14.2,30.7-37.9,30.7H95.5c-2.4,0-4.3-1.9-4.3-4.3V52.1
	c0-2.4,1.9-4.3,4.3-4.3c0,0,0,0,0,0h40c19.7,0,32.6,10.7,32.6,27.1c0,11.5-8.7,21.8-19.8,23.6V99
	C163.4,100.7,173.6,111.1,173.6,125.5z M131.3,61.5h-22.9v32.4h19.3c14.9,0,23.2-6,23.2-16.8C150.9,67,143.8,61.5,131.3,61.5
	L131.3,61.5z M108.4,106.7v35.7h23.8c15.5,0,23.8-6.2,23.8-18c0-11.7-8.5-17.7-24.8-17.7L108.4,106.7L108.4,106.7z"/>
</svg>
