<?xml version="1.0" encoding="utf-8"?>
<!-- Generator: Adobe Illustrator 25.2.1, SVG Export Plug-In . SVG Version: 6.00 Build 0)  -->
<svg version="1.1" id="Layer_1" xmlns="http://www.w3.org/2000/svg" xmlns:xlink="http://www.w3.org/1999/xlink" x="0px" y="0px"
	 viewBox="0 0 800 800" style="enable-background:new 0 0 800 800;" xml:space="preserve">
<style type="text/css">
	.st0{fill:#FFFFFF;}
</style>
<path class="st0" d="M358,225.7c8.8-15.5-36.1-20.9-5.9-5.5C354.9,221.1,354.3,226.8,358,225.7z M113.5,94
	c-19.1-24.9,35.8,4.2,16.5-21.9C113.7,59.2,98.1,86.8,113.5,94z M153.4,125.3c27.1-3.6-6.9-11.7-5.4-0.3L153.4,125.3z M132.1,120.1
	C137.9,112.3,121.9,124.1,132.1,120.1z M175.2,167.6c16.8,0.4-7.2-22.6,12.8-12.2c-3.3-10.7-23.3-12.7-33.1-17
	C149.4,148.2,166.1,167.7,175.2,167.6L175.2,167.6z M122.9,165.5c14.4-10.9,49.6,6.4,27-10.8C147.7,152.8,100.3,167.7,122.9,165.5
	L122.9,165.5z M108.2,193.7c25.2-8.6,59.6-18.1,71.4,4.2c-12.1-14.5-4.9-28.9,6.6-7.6c16.1,21.5,24.2-9.8,13.7-17
	c12,14.9,25.6,21.9,8,0.9c19.1-22.9-38.2,3-51.2,2.8C150.4,179.8,91.9,191.9,108.2,193.7L108.2,193.7z M155,272
	C161.1,264.4,146.6,270,155,272z M140.3,311.3C138.8,302.2,135.9,316.1,140.3,311.3z M127.9,305c14-0.9,22-15.5-2.7-14.7
	c-38.4-4,33.9,13.1-4.9,8.2C115,302,127.6,306,127.9,305L127.9,305z M727.9,686.1c17.4,0,52.7-5.4,14.9-5.4
	C736.8,681.7,708.1,681.5,727.9,686.1L727.9,686.1z M644.5,637.1C646.4,624.4,636.1,638.3,644.5,637.1z M709.9,681.8
	C710.2,670.7,700.4,686.8,709.9,681.8z M66.2,279.1C78.7,269.6,51.5,275.5,66.2,279.1z M113.7,312.9
	C121.4,304.8,97.1,309.6,113.7,312.9z M97.6,308.4C119.4,295,74.5,296.8,97.6,308.4z M258.7,207c7.3-19.1,28.3-7.6,3.4-3.9
	C262.6,205.2,261.3,213,258.7,207z M238.7,207.1C237,169.2,273.6,220.6,238.7,207.1z M168.4,217.9c11.6-13.9,65.5-8.9,26-1.4
	C183.9,208.6,175.7,221.3,168.4,217.9z M163.5,221.2C170.4,213.1,165.5,228.4,163.5,221.2z M144.6,228.8c1-12.8,31.8,6.8,5.1,4.6
	L144.6,228.8z M130.6,228.6C141.6,220.5,136.4,233.1,130.6,228.6z M129.2,242.2c7.6-27.9,40.6,23,12.4,3.7c-3-2.4-6.9-3.8-11.1-3.8
	C130.1,242,129.6,242.1,129.2,242.2L129.2,242.2L129.2,242.2z M51.2,281.8c-2.9-16.7-2.5-46,25.4-36.1
	c-37.2,7.4,25.8,46.2,17.8,15.6c15.6,0.8,30.6-9.2,22.4,5.9c30.8-3.4,52.2-30.1,82-26.4c27-2.2,52-7.5,75.8-15.4l-2.3,0.6
	c20.5-1.5,40.3-23.6,29-36.7c-5.5-0.3-11.8-0.5-18.2-0.5c-24.8,0-49,2.8-72.2,8.2l2.2-0.4c-34.3,7.1-65.5,20.7-100.1,26.5
	c-33.7,4.5,6.8,12.5-2.9,14.2c-17.6,6.1,21,10.2-2.3,16.7c-14.4-2.7-29.4-7.7-23.2-22.8c-32.3,4.2-60.8,17.6-35.2,50.5L51.2,281.8
	L51.2,281.8z M105.5,318.1C107.2,306.3,92.7,320.5,105.5,318.1z M673.5,685.3C677.7,673,663.1,686.9,673.5,685.3z M611.9,653.3
	C622.2,643.8,598.7,650.4,611.9,653.3z M101.5,338.1c16.2-6.4-29.4-13.1-3.2-1.2L101.5,338.1z M63.5,315.4
	C62.4,305.4,57.5,316.6,63.5,315.4z M56.6,320.6C55.9,312.1,52.1,323.7,56.6,320.6z M103,350.7C100.8,332.4,76.8,347.9,103,350.7z
	 M193,417.2C196.8,413.7,183.9,414.6,193,417.2z M111.6,365C107.8,362,108.6,368.8,111.6,365z M98.7,358.7
	C98.9,350.9,77.9,351.7,98.7,358.7z M76,353C71.7,328.8,59.6,349.3,76,353z M170.9,418.8C171.2,406.1,161,418.4,170.9,418.8z
	 M599.6,685.9c16-3.2,52.4,8.1,58.3-4.2c-19.4-0.5-67.2-13.7-69.4,3.1l4.2,0.7L599.6,685.9z M159.4,416
	C159.2,411.8,155.6,417.5,159.4,416z M123.3,398.5C135.8,394.2,111.8,395.7,123.3,398.5z M411.7,593.1
	C411.4,580.6,399.3,596.2,411.7,593.1z M131,416.2C150.4,408.8,110.3,410.9,131,416.2z M506.2,657.4
	C513,652.4,497.8,656.8,506.2,657.4z M435.9,613.1C434.6,608.2,431,614,435.9,613.1z M427.3,606.8C424,598.2,414,606.7,427.3,606.8z
	 M249.9,494.9C249.9,482.2,227.2,489.8,249.9,494.9z M229.3,490.1C221.1,483.2,228.9,489.1,229.3,490.1z M94.3,406.9
	c2.9-12-26.6-65.8-13.9-27C84.9,388,84.4,403.4,94.3,406.9z M167.9,465c16.1,3.6,64.6,39.8,36,2.5c-14.6-4.3-5.9-40.1-20.8-33.8
	c10,16.7,8.2,23.8-12.8,13.3c-26.4-12.9-14.8,6.4-9.7,11.7C153.6,460.3,170,464.8,167.9,465L167.9,465z M572.3,725.3
	C584.3,717.2,557.6,722.7,572.3,725.3z M529.2,696.6C547.1,681.6,510.2,703.3,529.2,696.6z M537.6,700.7c22-15.9-13.4-3.1-4.6,3
	L537.6,700.7z M291,554.3C286.5,545.1,284,555.8,291,554.3z M276.6,546C276,538.5,267.5,546.6,276.6,546z M510,693.2
	c17.2-11.1-3.9-9.4-3.1,1L510,693.2z M156.8,470.5C161.9,462.9,143.7,469.5,156.8,470.5z M515.6,700.4
	C533.4,685.2,504.4,697.2,515.6,700.4z M488.6,689.8C524,666.9,474,679.8,488.6,689.8z M112.8,454.4c-16.4-23.4-10.2-34-26.1-53.1
	c-3-14.7-27.2-47.9-12.5-12.7C87.6,409.2,91.6,441.1,112.8,454.4L112.8,454.4z M494.6,696.3C513.9,675.9,475.9,697.5,494.6,696.3z
	 M494.6,702.9C494.7,698.2,487.1,704.9,494.6,702.9z M458.3,678C475.8,663.4,441.5,684.5,458.3,678z M299.1,579.6
	c11.3,10,51.9,7.4,13.8,1.2C307.2,572.4,276.9,574.5,299.1,579.6z M183.2,509.7C175.6,497.2,156.2,498.4,183.2,509.7z M162.8,496.4
	C159.7,484.1,140.9,484.2,162.8,496.4z M465.6,686.5c10.2-9.8,0.4,15.7,16.9-2.4c0.1-13-0.5-20.6-18.9-4.9
	C458.5,682.1,456.2,694,465.6,686.5z M446.5,678.5C447.1,669.8,440.5,686,446.5,678.5z M260.9,566.1
	C305,580.3,239.3,548.7,260.9,566.1z M224.7,545.3c10.6,7.9,40,22.5,15.1,3c8.4-9.8-16.1-14.9-7.9-21.4
	c-20.6-12.6-16.2-11.5-1.8-11.1c-24.8-11,3.6-10.2,2.2-15.9c-9.5-1.9-47.5-16.9-25.1,1.2c-22.7-11.5-5.4,4.3-12.2,2.6
	c-23.2-6.3,20.6,17.6-3.7,11.7c13.3,10.5,35.8,27,5.6,11.1C192.9,532.3,218.4,540.9,224.7,545.3L224.7,545.3z M293.1,590.7
	c19.2,5,19.1-3,1.7-5.3c-9.4-8.8-38.9-18-12.5-1.1C284.1,588.7,289.7,588.6,293.1,590.7L293.1,590.7z M258.5,573.2
	C254.5,569.7,259,575.4,258.5,573.2z M275.3,241.6C278.2,238,275.9,246,275.3,241.6z M265.2,301.7c-6.8-11.9,8.5-52.3,10.2-27.2
	c-7.1,19.5-2,30.5,2.9,4.2C287.5,258.2,276.3,319.5,265.2,301.7L265.2,301.7z M255.5,317.6C253.8,307.6,261.1,330.3,255.5,317.6z
	 M261.5,333.6C251.6,309.3,270.6,346.4,261.5,333.6z M265.6,342.6C265.5,337.4,266.9,350.2,265.6,342.6z M194.9,303.3
	C201.3,289.8,206.8,318.4,194.9,303.3z M169.8,288.4C173.9,286.6,172,293.8,169.8,288.4z M276.9,372
	C280.5,342.5,280.1,389.2,276.9,372z M180.9,315.6c5.3-7.8-14.1-35,2.8-9.8c7.2,5.8,21,9.7,8.9,12.1
	C211.5,334.8,187.8,322.5,180.9,315.6L180.9,315.6z M282.4,380.1c1.4-25.9,7.8-15.5,0,3.7L282.4,380.1z M171.2,324.6
	c13-2.7,53.7,22.8,16.2,7.3C183.3,327.3,174.4,329.4,171.2,324.6L171.2,324.6z M289.7,406.5C293.7,392.1,290,416,289.7,406.5z
	 M237.1,372.8C235.1,347.5,241.7,377,237.1,372.8z M167.9,336.1c-21.8-30.1,63.3,30.4,14,7.6C176.7,342.4,170.5,341.9,167.9,336.1z
	 M288,417.5C289.7,410.7,288.2,425.6,288,417.5z M294.3,423.8C295.8,407.7,297.4,434.7,294.3,423.8z M258.3,402.5
	c-14.7-8.8-3.8-62,1.1-25.6c14.3-4.6-0.8,18.8,9.9,18.5C267.7,410.2,262.9,415.5,258.3,402.5L258.3,402.5z M161.2,346
	c-33.9-30.2,42.7,15.8,5.5,5.6L161.2,346z M183,366.8C172.7,347.6,195.5,374.9,183,366.8z M172,363.3
	C178.8,356.6,175.6,369.9,172,363.3z M154.2,363.8c-11.7-11.5-20.1-22.3,0.5-7.2c8,0.3-17.7-24.3,1.9-7.8
	C177.2,352.6,166.8,382.6,154.2,363.8L154.2,363.8z M188.1,390C194.9,375.8,199.5,409.8,188.1,390z M174,385.2
	C175.3,366.4,181.2,398.1,174,385.2z M205.4,406.8c-6.6-11.2-10.4-24.7-10.4-39.1c0,0,0,0,0-0.1l0,0c2.4,11.8,25.1,50.8,11.1,16.2
	c-15.4-29,18.4,9.4,21.9,16.7c1.6,7.2-9.5-2-2,14.9C212.3,396.1,217.9,426,205.4,406.8L205.4,406.8z M306.8,474.4
	c-11-24.7,7.8-13.5,2.4,4.1L306.8,474.4z M248,455.5C243.1,446.9,258.1,463.7,248,455.5z M316.5,503.2
	C320.6,487.5,321.4,516.5,316.5,503.2z M219.5,450.6C226.3,448.8,222.9,462.3,219.5,450.6z M341.3,534.8
	C329.7,512.2,356,541.1,341.3,534.8z M351.4,548.3C351.1,533.7,354.8,559.5,351.4,548.3z M467.2,636.2
	C473,635.9,467.4,640.6,467.2,636.2z M366,572c-9.2-9.7-11.6-27.8-1.6-12C369.5,562,380.8,589.5,366,572z M397.1,659.7
	c24.2-14.4,16.2,33.8,40.9,4c24.4-17.8-21.1,22.1,9,3.2c21.8-14.6,53.9,6.9,74.2,13.9c14.6-0.7,28.8,12.7,43.8,4.5
	c28.8-7.8-56.4-11.6-34-25.3c-3.5,0.8-7.4,1.2-11.5,1.2c-20.1,0-37.7-10.9-47.2-27.1l-0.2-0.2c-32.5-5.4-60.1-23-78.4-47.8l-0.2-0.3
	c-6-9.8,8.7,1.4-5.2-14.7c-15.1-15.2-28.1-32.8-38.2-52l-0.6-1.2c-14.3-7.6-15.9-30.1-17.4-0.8c0.1-18.5-17.3-31-21.5-25.8
	c0-17.9,18.6-8.9,5.5-22.1c-2.8-18.5-12-37.8-14.8-58.7c-4.3-10.1-0.6-31.6-14.8-8.8c-5.2,24-1.7-29.6,6.3-11.9
	c10.5-18.1-3.7-15.9-4.4-13.4c6.9-15.2,4.4-36.9-1.8-28.6c3.6-16.1,5.8-59.4-5.5-51.7c6.8-16.9,12.9-77.2-16.7-54.2
	c-15.5,0.6-30.1,4-43.4,9.6l0.8-0.3c30.8,17-3.1,6.1-15.6,3.4c-1.6,15.7-14,8.9-29.6,9.1c24.8,3-12,25.3-26.3,16.7
	c-18.4,8.8,15.9,30.8,0.4,37.7c1.9,10.2-28.3-3.8-25.9,20c-17.9-7.5-2.4,28.1,6.5,16c30.4,8.2,21.4,27,22.2,44.9
	c-4.9,10.4-24.5-24.5-4.4-22.9c-15.8-25.8-17.5-9.4-30.7,2.7c-3.1,0.9,33.7,17.1,10.6,25.1c20.3,3.1,20.9,20.9,25,32.2
	c12.2,12.7,9.7-14.1,24.3,1.2c-9.2-13.6-48.9-38.4-17-30.4c-0.1-13.8-5.8-24.8,4-24.5c9.7-17.5-10.1,43.3,11.7,21
	c6-2.7,7.5-17.6,18.4,1.4c15.8,15.5,5.7,26.8-16.6,12.6c4,13.5,29.8,18.4,24.9,39.5c5.2,18.6,12.4,11.7,18.6,10.7
	c4.9,18.1,7.7,4.8,8-3.8c22.5,4.9,17.2,18.1,24.3,27.5c15.5,7-22.2-47.6,4.4-16.4c28,25.3,10.5,35.9-14.7,31.9
	c15.9-1.3,21.1,21.6,41,20.8c18.2,8.6,30.5,41.9-0.9,28c-10.9-9.8-49.4-21.9-17.9-3.2c32,13.1,58.4,26,83.8,40.3l-3.8-1.9
	c20,14.3,28.7,30.7,36.2,33.9c-16.8,8-50.7-6.4-25.5-10.9c-15.7-2.9-33.4-10.8-18.4,8.8c12.8,10.7,45.3,9.5,51.1,10.8
	c-5,10.9-13.4,11.8,0.2,12.6C375.6,653.9,395.6,655.2,397.1,659.7L397.1,659.7z M307.2,604.5c25.8,3.3-30.8-17.6-5.6-1.9
	L307.2,604.5z M376.1,651.2C398.6,642.3,354.2,646.9,376.1,651.2z M243.7,568.8C258,567.3,220.5,559.1,243.7,568.8z M321.9,618.6
	C323.8,610.6,305.4,616.2,321.9,618.6z M436.4,692.7C436.1,686.6,430.7,695.1,436.4,692.7z M331.2,628.2
	C327.7,624.2,329.6,629.1,331.2,628.2z M162.3,520.9C159.9,511.6,141.3,504.2,162.3,520.9z M226.7,562.5
	C246.1,561.4,200.2,554,226.7,562.5z M281,601.7C279,595.7,270.5,601.5,281,601.7z M425.6,690.9
	C426.5,679.6,414.6,699.3,425.6,690.9z M223.5,566.4C222.2,560.2,215.2,567,223.5,566.4z M368.6,658.9
	C402.3,659.2,338.1,654.3,368.6,658.9z M306.9,623.3c35.6,10.1-29.9-22.5-8.8-3.7l4.7,2.1L306.9,623.3L306.9,623.3z M337.7,647.8
	C343.7,637.4,312.2,641.8,337.7,647.8z M236.5,585.9c14.5,11.2,58.7,1.4,22.3-6.6c-16.5-8.9-53.9-14.9-28.5,5.3L236.5,585.9z
	 M317.2,641.3C330.6,636.3,295.4,636.2,317.2,641.3z M287,622.8C296.4,616.2,267.6,617.8,287,622.8z M251.1,601.9
	C249.8,596.7,231.8,596.1,251.1,601.9z M373.6,697.3c12.4,7.8,72.5,17.2,34.8,3.2C402.2,701.8,338.7,682.6,373.6,697.3L373.6,697.3z
	 M296.4,649.1C296,643.9,290.9,651.5,296.4,649.1z M281,641.4C296.2,631.6,261.3,641.3,281,641.4z M348.7,688.7
	C354.6,679.9,329.6,685.3,348.7,688.7z M313.5,669C323.2,659.6,298.3,663.1,313.5,669z M292.9,660.4
	C291.2,652.2,285.3,665,292.9,660.4z M276.4,654.4C283.1,651.4,266.7,650.7,276.4,654.4z M152.9,545.2
	C153.9,540.6,158.4,555.1,152.9,545.2z M240.1,641c30.3,11.2-0.1-21.3-14.1-19.4c-6.1-10.7-23.4-17.4-11.2-23.1
	c-22,7.6-23-29-33.4-23.8c-23.2-7.4-9.1-33.4-36.8-49.3c-2.5-16.9-27.6-31.5-35.5-56.9c-3.5-13-28.3-50.4-13.1-15.6
	c16.2,34.6,34.5,64.5,55.5,92l-0.8-1.2c13.6,29.5,33.6,54,58.4,72.5l0.5,0.4C218.7,625,227.4,638.3,240.1,641L240.1,641z M299.6,683
	c27.7,14.3,59.9,25.4,93.8,31.7l2.2,0.3c32.6,7.5,70,11.8,108.4,11.8c19.9,0,39.6-1.1,59-3.4l-2.4,0.2c-24.7-11.1-50.2,4.4-74.8-8
	c-8.8,1-18.9,1.5-29.2,1.5c-22,0-43.3-2.6-63.8-7.5l1.9,0.4c-40.8-14.9-74.7-30.2-107.3-47.6l4.5,2.2
	c-39.9-14.6,20.6,18.7,31.4,21.4c24.9,14.1-27.4-7.3-34.8-13.2c-20.9-11.7-23.6-9.3-2,2.6C290.8,678.2,295.1,680.9,299.6,683
	L299.6,683z M249.2,661.2c-30.7-21.1-57-45.7-79.3-73.6l-0.6-0.7c-41.9-51.4-76-111.3-99.3-176.3l-1.3-4.2
	C54.8,364,50,318.6,32.1,278c-3.6-6.6-5.8-14.6-5.8-23c0-24.3,17.8-44.5,41-48.2l0.3,0c14.4-2.7,39.8-16.3,9.2-6.6
	c-27.4,20.1-30.1-18.3-2-20.7c12.2-0.1,22.1-10,22.1-22.3c0-3.7-0.9-7.1-2.5-10.2l0.1,0.1c-20.6-13.4,50-28.2,14.5-48.2
	c-37-40,51.8-47.6,29.9-2.3c-5.2,34.8,62-6.4,46.4,33.8c15.9,19.4,59.4,4.4,58.3,31.5c23.1,1.5,31,21,52.7,22.5
	c22.5,10.2,63.2,18.1,70.8,43.4c-22.3,17.7-73.9-36.4-76.3,12.4c0.6,76.9,12,150.8,32.8,220.8l-1.4-5.6
	c16.8,41.6,40.5,77.1,70.1,106.8l0,0c27,30,59.4,54.5,95.8,72.1l1.9,0.8c29,13.7,62.7,24.5,97.9,30.7l2.4,0.4
	c14-10.7,38.8-50.5,60.5-33.8c1,18.9-43.4,39.4-2.1,37.4c24.2-7.3,41,18.8,61-4.8c18.4,21.8,76.4-13.9,63.3,30.6
	c-17.7,11.4-43.5,4.5-61.2,20.2c-29.2-14.6-52.5,13-84.8,9.5c-31.8,5.8-68.3,9.1-105.7,9.1c-1.1,0-2.2,0-3.3,0h0.2
	c-63.7-1.1-124.7-11.1-182.2-28.7l4.7,1.2c-34.9-11.8-65.1-27.3-92.5-46.5L249.2,661.2L249.2,661.2z"/>
</svg>
