<?xml version="1.0" encoding="utf-8"?>
<!-- Generator: Adobe Illustrator 25.2.1, SVG Export Plug-In . SVG Version: 6.00 Build 0)  -->
<svg version="1.1" id="Layer_1" xmlns="http://www.w3.org/2000/svg" xmlns:xlink="http://www.w3.org/1999/xlink" x="0px" y="0px"
	 viewBox="0 0 256 262" style="enable-background:new 0 0 256 262;" xml:space="preserve">
<style type="text/css">
	.st0{fill:#4284F3;}
	.st1{fill:#FABB05;}
	.st2{fill:#E94335;}
	.st3{fill:#34A753;}
</style>
<g>
	<path class="st0" d="M188.4,233.5c-20.3,0-40.6,0-60.9,0c0-0.2,0-0.4,0-0.6c0-14.6,0-29.1,0-43.7c0.3,0,0.6,0,0.9,0
		c18.2,0,36.4,0,54.5,0c3.5,0,6.9-0.6,10.2-1.9c14.8-5.8,21.7-22.3,15.2-36.6c-4.7-10.5-13.2-15.9-24.7-16.5c-0.5,0-0.6-0.2-0.6-0.6
		c0-2,0-4,0-6c0-7-1.3-13.7-3.8-20.2c-2.9-7.4-7.2-13.9-12.9-19.4c-1.2-1.1-2.4-2.2-3.6-3.3c4.2-4.2,8.5-8.4,12.7-12.7
		c6.1-6.1,12.3-12.3,18.4-18.4c0.1,0.1,0.2,0.1,0.3,0.2c5.2,4.7,9.9,9.8,14.1,15.5c7.1,9.7,12.3,20.4,15.5,31.9c0.2,0.6,0.5,1,1,1.4
		c4.3,3,8.2,6.4,11.8,10.2c9,9.7,14.8,21.1,17.6,34c0.7,3.1,1.1,6.3,1.4,9.5c0,0.2-0.1,0.4,0.2,0.5c0,3.3,0,6.6,0,9.8
		c0,0-0.1,0-0.1-0.1c0,0.1-0.1,0.1-0.1,0.2c-0.1,1.8-0.3,3.6-0.6,5.4c-1.1,7.8-3.4,15.2-7,22.1c-4.8,9.5-11.5,17.5-19.9,24
		c-8.7,6.8-18.5,11.3-29.2,13.6c-3.2,0.7-6.5,1.2-9.8,1.4C188.7,233.3,188.5,233.2,188.4,233.5z"/>
	<path class="st1" d="M0.5,166.5c0-3.3,0-6.6,0-9.8c0,0,0.1,0.1,0.1,0.1c0,0,0,0,0,0c0-0.2,0.1-0.3,0.1-0.5c0.3-3.7,0.8-7.4,1.7-11
		c3.7-15.3,11.5-28.1,23.5-38.4c1.7-1.5,3.5-2.8,5.3-4.1c0,0,0.1-0.1,0.1-0.1l0,0c0.3,0,0.4-0.2,0.6-0.3c8.1-5.5,17-9.3,26.7-11.2
		c5.2-1,10.4-1.5,15.7-1.3c4.2,0.1,8.3,0.6,12.5,1.4c1.1,0.3,2.3,0.5,3.4,0.8c15.9,4.1,28.9,12.6,39.1,25.5c0.4,0.5,0.3,0.7-0.1,1.1
		c-8.4,8.4-16.9,16.8-25.3,25.3c-2,2-4,4-5.9,5.9c-0.4,0.4-0.5,0.3-0.7-0.1c-0.2-0.4-0.4-0.8-0.6-1.2c-7.1-13.2-23.6-18.4-37-11.5
		c-10.4,5.3-16.4,16.5-14.9,28.2c0.9,7.1,4.2,13,9.7,17.7c1.9,1.6,4.1,2.9,6.3,4c-0.2,0.2-0.4,0.4-0.6,0.6
		c-5.2,5.2-10.5,10.5-15.7,15.7c-5.3,5.3-10.5,10.5-15.8,15.8c-0.2-0.2-0.5-0.3-0.7-0.5c-4.3-3.4-8.2-7.3-11.7-11.6
		c-7.5-9.4-12.3-20-14.5-31.7c-0.5-2.6-0.8-5.2-1-7.9C0.6,166.9,0.8,166.6,0.5,166.5z"/>
	<path class="st2" d="M86.6,91.1c-4.1-0.8-8.3-1.3-12.5-1.4c-5.3-0.1-10.5,0.3-15.7,1.3c-9.7,1.9-18.5,5.7-26.7,11.2
		c-0.2,0.1-0.3,0.3-0.6,0.3c0-0.3,0.1-0.6,0.2-0.8c1.9-6.7,4.5-13.2,7.7-19.4c5-9.6,11.3-18.2,19-25.7c7.5-7.3,16-13.2,25.4-17.8
		c8-3.9,16.3-6.7,25.1-8.4c4.3-0.8,8.7-1.4,13.1-1.7c0.2,0,0.4,0.1,0.5-0.2c4,0,8.1,0,12.1,0c0.2,0.2,0.2,0.2,0.5,0.2
		c4.4,0.3,8.8,0.9,13.2,1.8c13.9,2.8,26.6,8.3,38,16.7c2.7,2,5.4,4.1,7.8,6.4c-6.1,6.1-12.3,12.3-18.4,18.4
		c-4.2,4.2-8.5,8.4-12.7,12.7c-1.7-1.3-3.4-2.6-5.2-3.7c-11.7-7.3-24.4-9.8-38-7.7c-10.7,1.7-20.1,6.1-28.2,13.3
		C89.6,88,88,89.4,86.6,91.1z"/>
	<path class="st3" d="M28.6,218.8c5.3-5.3,10.5-10.5,15.8-15.8c5.2-5.2,10.5-10.5,15.7-15.7c0.2-0.2,0.4-0.4,0.6-0.6
		c0.1,0,0.3,0.1,0.4,0.1c3.7,1.6,7.6,2.3,11.6,2.3c18,0,36,0,54,0c0.3,0,0.5,0,0.8,0c0,14.6,0,29.1,0,43.7c0,0.2,0,0.4,0,0.6
		c-20.1,0-40.3,0-60.4,0c-0.1-0.3-0.4-0.2-0.6-0.2c-2-0.1-4-0.4-6-0.7c-9.4-1.6-18.2-4.9-26.3-9.9C32.3,221.4,30.4,220.2,28.6,218.8
		z"/>
	<path class="st2" d="M31.1,102.7c0-0.1,0-0.1,0.1-0.1C31.2,102.6,31.1,102.7,31.1,102.7z"/>
</g>
</svg>
