<svg xmlns="http://www.w3.org/2000/svg" viewBox="0 0 1297.91 925.24"><defs><style>.cls-1{fill:#6c78ae;}.cls-2{fill:#f79c0e;}</style></defs><g id="Layer_2" data-name="Layer 2"><g id="Layer_1-2" data-name="Layer 1"><path class="cls-1" d="M391.5,1.57a225.55,225.55,0,0,1,34.62,1.26,488.44,488.44,0,0,1,109,24.69,538.59,538.59,0,0,1,172.79,99.22C805,209.46,871.24,312.55,909.25,434a547.52,547.52,0,0,1,19.16,82.81c.43,2.82.27,3.6-2.81,2.78A375.92,375.92,0,0,0,862,508.35a422.49,422.49,0,0,0-67.31-.45A397.41,397.41,0,0,0,552.21,613.46c-.46.43-1,.79-2.44,1.92,5.35-12,10-23.14,13.81-34.55,9.47-27.94,15.29-56.62,18.78-85.88,3.34-28,3.74-56.12,2.62-84.21-1.28-32.39-5.53-64.48-11.58-96.35-9.06-47.76-22.17-94.29-41.3-139-17.15-40.1-38.68-77.62-66.94-111C444.41,39.82,421.17,18.09,391.5,1.57Z"/><path class="cls-2" d="M222.2,693.73,1190.75,529l.12.46c-8.63,3.57-17.38,6.84-25.85,10.74q-121.89,56.16-177.21,178.46c-1.82,4-3.43,5.23-8.31,4.59a886.44,886.44,0,0,0-147.39-6.72c-27.28,1-54.5,2.65-81.62,5.59a1174.21,1174.21,0,0,0-133,22.54,1767,1767,0,0,0-264.87,82c-17.55,7-34.92,14.41-53,22.59,9.36-32.32,7.38-63.24-7.2-92.91S254.59,706,222.2,693.73Z"/><path class="cls-1" d="M379.41,625c4-13.18,8.16-26.29,11.84-39.55A687.44,687.44,0,0,0,411.64,481a687.08,687.08,0,0,0,4.66-100.56c-4.2-136.08-41.48-261.8-118.14-375.1-1-1.48-2.46-2.75-2.7-4.69l-.06.06c9.68,1.26,18.41,5.46,27.17,9.3C393,40.82,446,90.65,482.06,158.31c26.18,49.16,43.17,101.76,55,156.06a698.79,698.79,0,0,1,14.29,103.08,663.49,663.49,0,0,1-.45,93.74c-.76,10.1-2.32,20.13-3.45,30.2-.25,2.24-.8,3.43-3.54,3.6-64.75,4-118.72,30.45-162.34,78.29-.63.69-1,1.77-2.27,1.65Z"/><path class="cls-1" d="M1.94,811.52c23,9.93,46.13,19.52,69.82,27.71,35.49,12.28,71.58,22.32,108.73,28.15,19.85,3.11,39.87,5.07,59.95,6.39,14.77,1,29.53,1.57,44.36,1.32,30.41-.51,59.58-7,88.13-17,44.5-15.47,88.28-32.92,133-47.71,59.63-19.72,120.27-35.32,182.21-45.81q47.69-8.07,95.86-12A904.41,904.41,0,0,1,882.78,750c59.69,1.52,118.3,10.49,176.07,25.66,77.82,20.45,153.78,46.11,227.24,79,3.32,1.49,6.57,3.12,9.86,4.68l-.57.67c-18.7-4.47-37.4-9-56.12-13.4-53.79-12.65-107.89-23.75-162.38-33-35.22-5.95-70.56-11-106.09-14.55a856.37,856.37,0,0,0-115.17-3.69c-23.62.85-47.24,1.57-70.77,3.61a980.09,980.09,0,0,0-116.19,17.34C593,832.18,520.57,857.92,449.18,887c-33.68,13.72-68.08,25.35-103.93,32.21-34.9,6.68-69.94,8-105.17,2.88-53.44-7.8-102.74-27.45-150-52.67A618.11,618.11,0,0,1,1.26,812.3Z"/><path class="cls-1" d="M1296,859.32l2,1a1.78,1.78,0,0,1-2.53-.37Z"/><path class="cls-1" d="M379.32,624.93c-.09.42-.17.85-.25,1.27l-.38-.22.72-1Z"/><path class="cls-1" d="M1.26,812.3,0,811.1c.83-.71,1.41-.25,1.94.42Z"/><path class="cls-1" d="M295.46.6l-.65-.46c.6-.29.81-.13.59.52Z"/></g></g></svg>