<?xml version="1.0" encoding="utf-8"?>
<!-- Generator: Adobe Illustrator 25.4.1, SVG Export Plug-In . SVG Version: 6.00 Build 0)  -->
<svg version="1.1" id="Layer_1" xmlns="http://www.w3.org/2000/svg" xmlns:xlink="http://www.w3.org/1999/xlink" x="0px" y="0px"
	 viewBox="0 0 128 128" style="enable-background:new 0 0 128 128;" xml:space="preserve">
<style type="text/css">
	.st0{fill-rule:evenodd;clip-rule:evenodd;fill:#68BFDD;}
</style>
<path class="st0" d="M123.3,76.8c-0.4-2.9-2.9-4.8-5.8-5c-1,0-2.1,0.1-3.1,0.2c-1.2,0.2-2.5,0.4-3.7,0.6c-0.9,0.1-1.7,0.2-2.6,0.3
	v-0.1c1.6-3,3.3-6,4.8-9.1c1.2-2.3,2.2-4.8,3.2-7.2c1.7-4,3.1-8.1,4.2-12.3c1.1-4,2-8.1,2.3-12.2c0.1-1.7,0.2-3.3,0.2-5
	c0-1.3-0.2-2.7-0.3-4c-0.2-1.5-0.6-3-1.2-4.3c-0.8-1.8-2.1-3.3-3.5-4.7c-1.1-1.1-2.3-2.2-3.5-3.2c-1.7-1.5-3.6-2.7-5.6-3.7
	c-2.3-1.2-4.6-2.1-7.1-2.8c-1.5-0.4-3-0.7-4.5-1C96.4,3.2,95.9,3,95.3,3H85.1c-0.4,0-0.7,0.2-1.1,0.2c-2.5,0.3-4.9,0.7-7.2,1.5
	c-0.9,0.3-1.7,0.1-2.5,0c-0.6-0.1-1.3-0.2-1.9-0.3c-2.4-0.1-4.9-0.3-7.3-0.3c-2.3,0-4.7,0.4-6.9,1.1c-1.9,0.5-3.7,1.2-5.4,2.2
	c-0.7,0.4-1.3,0.3-2.1,0.1c-2.5-0.7-5.1-1.4-7.6-2c-1.6-0.4-3.2-0.5-4.9-0.7c-1.6-0.2-3.1-0.3-4.7-0.3c-1.5,0-3.1,0-4.6,0.1
	c-2.4,0.2-4.8,0.7-7.2,1.5c-2.6,0.9-5,2.2-7.1,3.9c-2.2,1.7-3.9,3.8-5.3,6.2c-1.5,2.5-2.5,5.2-3.1,8.1c-0.3,1.5-0.6,3.1-0.8,4.7
	C5.2,29.5,6,30,5,30.4v6.8c1,0.5,0.2,0.9,0.3,1.4c0.1,1.1,0.3,2.2,0.4,3.3c0.3,1.7,0.6,3.4,1,5.1c0.5,2.4,1,4.7,1.5,7.1
	c0.4,1.7,0.8,3.4,1.3,5.1c0.7,2.6,1.4,5.2,2.2,7.8c0.8,2.4,1.6,4.7,2.5,7.1c1.2,3.3,2.6,6.4,4.3,9.4c1.5,2.6,3.2,5.1,5.4,7.1
	c1.5,1.3,3.2,2.3,5.1,2.9c1.5,0.4,3.1,0.4,4.6,0.1c1.8-0.4,3.4-1.1,4.8-2.3c0.2-0.1,0.3-0.2,0.5,0c0.7,0.9,1.7,1.6,2.7,2.1
	c2.8,1.4,5.8,1.9,8.9,2.1c0.7,0,1.5-0.1,2.2-0.1c1.5,0,2.9-0.3,4.3-0.7c0.7-0.2,1.4-0.5,2.2-0.7c0,0.8,0.1,1.6,0.1,2.3l0.1,4.2
	c0,0.6,0,1.3,0.1,1.9c0.2,1.6,0.3,3.3,0.5,4.9c0.1,1.1,0.3,2.2,0.5,3.3c0.5,2.2,1.2,4.3,2.2,6.4c0.9,2,2.2,3.8,3.9,5.2
	c2.2,1.8,4.8,2.6,7.6,2.8c1.2,0.1,2.4,0,3.5-0.2c1.8-0.3,3.6-0.7,5.4-1.3c3.6-1.1,6.7-3,9-6c1.3-1.7,2.4-3.6,3.1-5.6
	c0.6-1.7,1.1-3.4,1.5-5.2c0.3-1.4,0.5-2.8,0.7-4.2c0.1-0.9,0.2-1.9,0.3-2.8c0.1-1.5,0.3-3,0.4-4.6c0.1-1.1,0.1-2.1,0.1-3.2
	c0-0.3,0.1-0.6,0.1-1c0-0.3,0.2-0.4,0.5-0.4c1.1,0,2.1,0,3.2,0c1.2-0.1,2.4-0.1,3.6-0.3c1.7-0.3,3.3-0.6,5-1.1
	c1.9-0.5,3.7-1.4,5.4-2.5c2-1.2,3.8-2.6,5.3-4.4C123,80.6,123.6,78.8,123.3,76.8L123.3,76.8z M119.8,77.8c-0.1,0.9-0.5,1.7-1.1,2.4
	c-2.9,3.2-6.5,5.1-10.6,6c-1.6,0.4-3.2,0.5-4.8,0.7c-1.3,0.1-2.7,0.1-4,0.1c-1,0-2-0.3-3-0.4c-0.1,0.9-0.2,1.9-0.3,2.9l-0.5,3.7
	c-0.1,1.2-0.3,2.4-0.4,3.6s-0.3,2.3-0.5,3.4c-0.1,1.1-0.2,2.1-0.4,3.2c-0.2,1.6-0.5,3.3-0.8,4.9c-0.4,1.9-1,3.8-1.9,5.6
	c-1.2,2.1-2.8,3.8-4.9,5c-2.2,1.2-4.6,1.9-7,2.4c-1.7,0.4-3.5,0.4-5.2,0.3c-3-0.3-5.6-1.6-7.5-3.9c-1.8-2.2-3.1-4.8-3.5-7.7
	c-0.2-1.4-0.4-2.8-0.5-4.1c-0.1-1.5-0.2-3.1-0.3-4.6c-0.1-2-0.2-3.9-0.2-5.9c-0.1-2.4-0.1-4.8-0.1-7.2v-0.1
	c-1.2,0.7-2.4,1.5-3.7,2.2c-1.5,0.8-3.1,1.2-4.8,1.4c-1.3,0.1-2.7,0.2-4,0.1c-2.2-0.2-4.3-0.5-6.2-1.6c-0.8-0.4-1.6-1-2.1-1.6
	c-1.3-1.6-0.7-3.7,1.3-4.7c1.3-0.7,2.8-1,4.3-1.3c1.3-0.3,2.5-0.6,3.8-1c1.2-0.4,2-1.4,2.8-2.4l1.2-1.6c-0.5-0.1-1-0.1-1.5-0.2
	c-1.4-0.1-2.8-0.5-4.1-1.1c-1.1-0.5-1.1-0.6-2,0.3c-1.4,1.5-2.7,3-4.1,4.5c-1,1.1-2,2.2-3,3.4c-1,1.1-1.9,2.3-2.9,3.3
	c-1.6,1.5-3.4,2.5-5.7,2.3c-1.4-0.1-2.8-0.6-4-1.4c-2.5-1.7-4.1-4.1-5.6-6.6c-1.9-3.2-3.4-6.6-4.7-10.2c-0.9-2.4-1.8-4.9-2.5-7.3
	c-0.8-2.7-1.6-5.4-2.3-8.1c-0.5-2-1-4.1-1.5-6.2c-0.5-2.4-1-4.7-1.5-7.1C9.2,41.6,9,40,8.8,38.4c-0.3-2.2-0.4-4.4-0.3-6.5
	c0.1-2,0.4-3.9,0.7-5.9c0.4-2.7,1.3-5.2,2.6-7.6c0.8-1.5,1.8-2.8,2.9-4.1c1.8-2,4.1-3.5,6.6-4.6c1.7-0.8,3.6-1.2,5.4-1.6
	c2.8-0.5,5.6-0.5,8.4-0.5c1.2,0,2.4,0.2,3.7,0.4c2.6,0.3,5.2,0.8,7.8,1.5c1.9,0.5,3.7,1.1,5.5,1.7c0.2,0.1,0.5,0.1,0.6,0
	c2.5-1.6,5.2-2.7,8.1-3.3c1.1-0.2,2.2-0.3,3.4-0.4c1.4-0.1,2.7-0.2,4.1-0.1c1.6,0.1,3.3,0.3,4.9,0.6c0.8,0.1,1.6,0.4,2.4,0.5
	c0.4,0,0.8-0.2,1.2-0.3c2-0.5,4.1-1,6.2-1.4c1.5-0.3,3.1-0.4,4.7-0.5c1.7-0.1,3.5-0.2,5.2-0.1c2.2,0.1,4.4,0.4,6.6,0.9
	c2.7,0.6,5.2,1.5,7.7,2.8c1.8,0.9,3.6,2,5.1,3.4c1,0.9,2.1,1.7,3,2.7c1.1,1.2,2.3,2.4,3,4c0.5,1.2,0.9,2.4,1,3.6
	c0.1,1.6,0.3,3.2,0.3,4.8c0,1.5-0.2,3-0.4,4.6c-0.3,3.5-1.1,6.8-2,10.2c-0.8,2.8-1.6,5.5-2.6,8.2c-0.9,2.5-1.9,4.9-2.9,7.3
	c-0.8,1.8-1.6,3.6-2.5,5.3c-1.7,3.3-3.4,6.5-5.4,9.6c-0.3,0.5-0.7,1.1-1,1.6c0.9,0.6,1.9,0.8,2.9,0.9s1.9,0.2,2.9,0.1
	c1.5-0.1,3-0.3,4.6-0.5c1.5-0.2,3-0.6,4.5-0.5C118.8,75.1,120,76.3,119.8,77.8L119.8,77.8z M97.8,74.4c-0.7-0.8-1.3-1.7-2-2.5
	c-1-1.3-1.7-2.8-2.5-4.4c-0.7-1.4-1.5-2.8-2.3-4.2c-1.3-2.5-2.6-4.9-3.7-7.4c-1.5-3.2-2.6-6.4-3-9.9c-0.2-1.5-0.2-3,0.1-4.4
	c0.5-2.3,1.7-4.2,3.8-5.4c1.9-1.2,4-1.5,6.2-1.7c1.4-0.1,2.7,0,4.1,0v-0.2c-0.9-1.8-1.7-3.7-2.6-5.5c-1.3-2.5-3.1-4.8-5-6.9
	c-1.4-1.6-3-3-4.6-4.3c-1.7-1.3-3.4-2.4-5.3-3.3c-2.2-1.1-4.5-1.9-7-2.5c-2.3-0.5-4.6-0.8-7-0.8c-2,0-4.1,0.1-6.1,0.5
	c-3,0.7-5.7,1.9-8.1,3.9c-1.3,1.1-2.5,2.4-3.5,3.8c-1.2,1.6-2.2,3.4-3,5.3c-1.1,2.6-1.9,5.2-2.4,7.9c-0.3,1.4-0.5,2.7-0.7,4.1
	c-0.1,0.5-0.1,1-0.1,1.5c0.4-0.2,0.6-0.3,0.9-0.5l0.9-0.4c3-1.4,6.1-2.2,9.4-2.1c1.4,0,2.8,0.3,4,0.9c2.4,1.2,3.8,3.2,4.4,5.8
	c0.4,1.8,0.7,3.6,1,5.4c0.2,1.4,0.4,2.8,0.5,4.2c0,2.1-0.1,4.1-0.2,6.2c-0.1,1.8-0.5,3.5-1.1,5.1c-1.1,3-2.4,5.9-3.5,8.9
	c-0.4,1-0.7,2-1,3.1c0.6,0,1,0,1.5,0c0.2,0,0.4,0,0.5,0c1.3,0.3,2.5,0.9,3.5,2c1.3,1.4,1.9,3,2,4.8c0,1-0.1,2.1-0.1,3.1
	c0,4.8,0.1,9.6,0.1,14.4c0,0.8,0,1.6,0.1,2.3c0.1,1.6,0.2,3.3,0.4,4.9c0.1,1.2,0.3,2.3,0.5,3.5c0.3,1.6,1,3.1,1.8,4.5
	c0.7,1.2,1.7,2.2,2.9,2.9c2.1,1.2,4.4,1.3,6.7,0.8c1.5-0.3,3.1-0.8,4.6-1.3s2.8-1.3,3.9-2.4c1.1-1,1.8-2.3,2.3-3.6
	c1-2.7,1.3-5.5,1.7-8.2c0.2-1,0.3-2.1,0.4-3.1c0.2-1.2,0.3-2.4,0.5-3.6c0.1-0.9,0.2-1.8,0.3-2.7c0.2-1.3,0.3-2.5,0.5-3.8
	c0.1-1,0.2-2,0.3-2.9c0.1-1.3,0.3-2.5,0.4-3.8c0.1-1,0.1-1.9,0.2-2.9c0.3-1.7,1.1-3.2,2.6-4.1c0.6-0.4,1.4-0.7,2.1-1L97.8,74.4
	L97.8,74.4z M40.2,67.4c-0.8-1.8-1.2-3.7-1.4-5.6c-0.1-1.8,0.1-3.6,0.3-5.5c0.2-1.8,0.3-3.5,0.4-5.3c0.1-2.9-0.1-5.8-0.2-8.7
	c-0.1-1.7,0.1-3.5,0.3-5.2c0.1-1.6,0.3-3.1,0.6-4.7c0.5-2.6,1.2-5.1,2.1-7.6c0.9-2.3,1.9-4.6,3.3-6.7c1-1.4,2.1-2.7,3.2-4.1
	l-0.3-0.1c-3.5-1.1-7.1-2-10.7-2.4c-1.7-0.2-3.5-0.3-5.2-0.4c-0.5,0-1.1,0-1.6,0.1c-1.3,0.1-2.7,0.2-4,0.4c-2.2,0.4-4.3,1.1-6.3,2.3
	c-1.8,1-3.2,2.4-4.5,4c-1.4,1.8-2.3,3.8-3,5.9c-0.8,2.5-1.2,5.1-1.3,7.7c-0.1,2.3-0.1,4.6,0.3,6.9c0.3,1.7,0.5,3.4,0.8,5.1
	c0.4,2.3,0.9,4.6,1.5,6.9c0.8,3.3,1.6,6.6,2.5,9.8c0.9,3.1,1.9,6.2,3,9.2c0.9,2.5,1.9,4.9,3,7.3c0.7,1.6,1.6,3.1,2.5,4.5
	c1,1.6,2,3,3.5,4.2c1.9,1.4,3.3,1.6,5.2,0.1c0.8-0.7,1.5-1.5,2.2-2.3c1.1-1.2,2.2-2.5,3.3-3.8c1.4-1.6,2.8-3.2,4.3-4.8
	c0.3-0.3,0.6-0.7,0.9-1l-0.5-0.4C42.6,71.6,41.2,69.6,40.2,67.4z M93.9,19.8c1.2,1.4,2.3,2.8,3.3,4.2c2,2.8,3.6,5.8,4.8,9.1
	c0.5,1.4,0.9,2.9,0.8,4.4c-0.1,1.1-0.1,2.2-0.2,3.3c-0.1,0.9-0.2,1.8-0.3,2.7c-0.2,1.4-0.4,2.8-0.5,4.1s0,2.6,0.1,4
	c0.1,1.3,0.3,2.7,0.4,4c0.1,1.5,0.3,3,0.4,4.6c0,1.2-0.1,2.5-0.2,3.8c-0.1,1.5-0.5,3-1.1,4.4c-0.4,1-0.9,1.9-1.3,2.9l0.2,0.2
	l0.3,0.2l0.3-0.5c2.3-3.7,4.4-7.5,6.2-11.5c1.2-2.6,2.2-5.2,3.3-7.8c1.6-4.1,2.9-8.2,3.9-12.5c0.4-1.9,0.8-3.9,1.1-5.8
	c0.2-1.5,0.4-3.1,0.5-4.6c0-1.6,0-3.3-0.2-4.9c-0.1-1.2-0.4-2.5-1.2-3.5c-1.2-1.6-2.6-3.1-4.2-4.3c-1.4-1-2.8-2.1-4.2-2.9
	c-2.3-1.4-4.9-2.3-7.5-2.9c-2.6-0.6-5.2-0.9-7.8-0.9c-1.6,0-3.1,0.1-4.7,0.3c-1.4,0.1-2.8,0.4-4.2,0.5c1.5,0.9,3,1.6,4.4,2.5
	C89,14.8,91.6,17.1,93.9,19.8L93.9,19.8z M55.3,72.5c1-3.1,2.3-6,3.5-9c1-2.4,1.6-4.9,1.8-7.5c0.1-1.3,0.1-2.6,0-3.9
	c-0.1-1.4-0.2-2.8-0.4-4.3c-0.3-1.8-0.6-3.6-1-5.4c-0.5-1.9-1.6-3.2-3.6-3.7c-1.2-0.3-2.4-0.3-3.7-0.1c-3,0.5-5.8,1.6-8.3,3.2
	c-0.5,0.3-0.8,0.6-0.7,1.3c0.2,1.6,0.2,3.2,0.2,4.7c0,2.2-0.1,4.5-0.2,6.7c0,0.7-0.1,1.5-0.2,2.2c-0.1,1.1-0.4,2.2-0.3,3.3
	c0,1.1,0.1,2.3,0.4,3.4c0.9,3.5,2.7,6.4,5.8,8.4c1.9,1.2,4,1.9,6.2,2C55,73.5,55.1,73,55.3,72.5z M51.7,42.4
	c-0.4-0.8-0.2-1.5,0.8-1.9c0.2-0.1,0.5-0.2,0.7-0.2c0.3,0,0.7,0,1,0c1.2,0,2.3,0.2,3.3,0.9c0.6,0.5,0.8,1.1,0.4,1.8
	c-0.6,0.9-1.5,1.4-2.5,1.5C53.6,44.7,52.4,43.9,51.7,42.4z M98.8,42.1c0.1-1.1,0.2-2.3,0.4-3.4c0.1-0.5-0.2-0.6-0.6-0.6
	c-1.2,0-2.4-0.1-3.6-0.1c-1.3,0-2.7,0.2-3.9,0.7c-1.4,0.6-2.4,1.5-2.9,3c-0.3,1.1-0.4,2.2-0.3,3.4c0.2,1.8,0.6,3.5,1.2,5.2
	c0.8,2.2,1.7,4.4,2.8,6.6c1.4,2.9,3,5.7,4.5,8.5c0.4,0.8,0.7,1.5,1.2,2.4c0.9-1.9,1.3-3.7,1.4-5.6c0-1.6-0.1-3.2-0.2-4.8
	c-0.1-1-0.2-2-0.3-3c-0.1-1.4-0.3-2.7-0.4-4.1c0-1.4,0.1-2.8,0.2-4.2C98.4,44.8,98.6,43.5,98.8,42.1L98.8,42.1z M96.1,41
	c-0.4,1.2-1.4,1.9-2.6,2.1c-1.1,0.2-2.1-0.2-2.9-1.1c-0.5-0.7-0.3-1.4,0.5-1.9c0.9-0.5,1.9-0.6,3.1-0.7c0.3,0.1,0.8,0.1,1.3,0.2
	C96.1,39.9,96.3,40.4,96.1,41z M60.6,78.7c-0.7-0.5-1.5-0.6-2.1,0c-0.8,0.7-1.5,1.6-2.1,2.4c-0.8,1-1.5,1.9-2.5,2.7
	c-1.5,1.1-3.2,1.5-4.9,1.9c-1.4,0.3-2.8,0.6-4.1,1v0.2c0.4,0.2,0.8,0.4,1.2,0.6c2.1,0.7,4.2,1,6.5,0.8c1.6-0.1,3.1-0.5,4.6-1.2
	c2-0.9,3.5-2.4,4.8-4.2c0.2-0.3,0.3-0.7,0.3-1.1C62.3,80.5,61.6,79.5,60.6,78.7z M112.4,79.2c-1.7,0.2-3.4,0.4-5.1,0.5
	c-0.8,0-1.6-0.1-2.5-0.2c-1.4-0.1-2.7-0.4-3.9-1.2c-0.7-0.4-1.2-0.5-2-0.2c-1,0.3-1.9,0.9-2.1,2c-0.2,0.8-0.2,1.5-0.3,2.3
	c0,0.1,0.2,0.4,0.3,0.4c0.8,0.2,1.6,0.5,2.4,0.5c1,0.1,2,0.1,3,0c1.1-0.1,2.2-0.1,3.2-0.3c2.5-0.4,4.9-1.1,7.1-2.5
	c0.8-0.5,1.6-1,2.3-1.6l-0.1-0.1C114,79,113.2,79.1,112.4,79.2z"/>
</svg>
