<svg xmlns="http://www.w3.org/2000/svg" viewBox="0 0 722.77 833.82"><defs><style>.cls-1{fill:#465c67;}.cls-2{fill:#85c59d;}</style></defs><g id="Layer_2" data-name="Layer 2"><g id="Layer_1-2" data-name="Layer 1"><path class="cls-1" d="M722.77,620.87v5c-1.92-.75-3.57.28-5.25.88-9.25,3.27-18.54,6.47-27.73,9.92A1056.39,1056.39,0,0,0,366.22,829.3c-1.39,1.21-3.66,2-3.33,4.52h-3c.23-2.73-2.22-3.52-3.73-4.84Q337,812.21,316.93,796.47A1057.47,1057.47,0,0,0,7.14,627.38c-2.28-.79-4.49-2.31-7.14-1.51v-5c3.27-1.29,2.36-4.51,2.8-6.83q5.64-29.41,9.52-59.12A1017.94,1017.94,0,0,0,21,443c.9-44-.37-87.9-4.88-131.7-3.29-32-7.76-63.74-14-95.26-.3-1.52.13-3.51-2.11-4v-4c2.29.45,4.21-.78,6.21-1.47A1057.34,1057.34,0,0,0,321.7,33.27C335.11,22.61,348.56,12,360.89,0h1c1,1.07,2,2.23,3.1,3.2A1057.46,1057.46,0,0,0,716.56,206.5c2,.69,3.92,1.92,6.21,1.46v4c-2.26.51-1.83,2.52-2.1,4-2.14,11.78-4.36,23.55-6.26,35.38A1022.28,1022.28,0,0,0,701.79,390a1069.34,1069.34,0,0,0,7.1,153.06c3,24.45,6.68,48.79,11.46,73C720.69,617.7,719.91,620.31,722.77,620.87ZM360.65,30.9c-2.23,1.84-4.11,3.44-6,5-12.49,10-24.79,20.21-37.52,29.89A1077.4,1077.4,0,0,1,31.53,221.71c-3.7,1.34-4.65,2.71-3.92,6.76A1050.57,1050.57,0,0,1,43.78,386.33,1069.26,1069.26,0,0,1,27.67,604.66c-.83,4.61.47,6,4.41,7.4a1058.56,1058.56,0,0,1,143.78,64.57c5.07,2.74,5.1,2.73,5.1-3.08q0-69.48,0-139c0-1.85-.53-3.86.88-6.07,4.69,6,11,7.71,17.78,8.58a30.94,30.94,0,0,1,3.41.74c4.62,1.14,7.18,3.21,7.15,8.85-.24,47.82-.08,95.64-.23,143.46,0,4.17,1.18,6.54,4.84,8.7a1052.18,1052.18,0,0,1,133.24,93.4l12.31,10.11c1.62-2.38,1-4.61,1-6.71q.06-82.23-.06-164.45c0-4.36,1.23-6.79,5.12-9q85.55-49.11,171-98.49c3.31-1.91,4.54-3.94,4.53-7.81q-.2-99,0-197.95c0-4.06-1.35-6.18-4.78-8.15q-85.5-49.2-170.92-98.53c-3.72-2.13-4.92-4.43-4.91-8.6q.26-82.23.18-164.45C361.5,36.05,361.91,33.86,360.65,30.9Z"/><path class="cls-2" d="M360.65,30.9c1.26,3,.85,5.15.85,7.28q0,82.23-.18,164.45c0,4.17,1.19,6.47,4.91,8.6q85.53,49.14,170.92,98.53c3.43,2,4.79,4.09,4.78,8.15q-.21,99,0,198c0,3.87-1.22,5.9-4.53,7.81q-85.51,49.19-170.95,98.49c-3.89,2.24-5.13,4.67-5.12,9q.21,82.21.06,164.45c0,2.1.61,4.33-1,6.71l-12.31-10.11a1052.18,1052.18,0,0,0-133.24-93.4c-3.66-2.16-4.85-4.53-4.84-8.7.15-47.82,0-95.64.23-143.46,0-5.64-2.53-7.71-7.15-8.85a30.94,30.94,0,0,0-3.41-.74c-6.74-.87-13.09-2.59-17.78-8.58-1.41,2.21-.88,4.22-.88,6.07q-.06,69.48,0,139c0,5.81,0,5.82-5.1,3.08A1058.56,1058.56,0,0,0,32.08,612.06c-3.94-1.43-5.24-2.79-4.41-7.4A1069.26,1069.26,0,0,0,43.78,386.33,1050.57,1050.57,0,0,0,27.61,228.47c-.73-4.05.22-5.42,3.92-6.76A1077.4,1077.4,0,0,0,317.09,65.77c12.73-9.68,25-19.9,37.52-29.89C356.54,34.34,358.42,32.74,360.65,30.9Zm-.19,559.66c2.64.76,4.42-1.09,6.37-2.21q52.46-30.23,104.85-60.53c12.1-7,24.15-14.09,36.36-20.9,3.45-1.92,4.8-4.11,4.79-8.18q-.23-81.94,0-163.88c0-4-1.25-6.2-4.74-8.19Q457.93,298,408,268.93l-42.36-24.46c-1.56-.9-3.06-2.15-5.06-1.18,1.37-9.94.19-19.94.66-29.9.19-4.06-.9-4.49-4.36-2.49q-86.18,49.93-172.47,99.65c-2.44,1.41-3.48,2.95-3.48,5.86q.14,82.7,0,165.38c0,3.1,1.24,4.32,3.9,5.32,6.56,2.45,13.34,4.11,20,6.18,4.83,1.51,5.33.15,5.32-4.23-.13-51.29,0-102.59-.17-153.88,0-4.16,1.14-6.49,4.86-8.62q70.57-40.5,141-81.3c1.52-.88,2.85-2.39,4.9-2.11.89,1.91.55,3.94.55,5.91q0,167.9,0,335.78c0,2,.38,4-.61,5.89a12.61,12.61,0,0,1-1.83-.71Q294.15,552.7,229.5,515.41c-6-3.43-11.47-7.2-15.61-12.86a15.59,15.59,0,0,0-9.27-6.4,146.33,146.33,0,0,1-28.37-9.39c-3-1.33-5.09-.78-6.94,1.7a68.21,68.21,0,0,0-7.52,12.91c-1.46,3.28-.8,5.52,2.19,7.64a116.09,116.09,0,0,1,19.85,17.44c3.89,4.42,8.63,6.54,14.23,7.44,3.75.61,7.47,1.19,10.92,3.18q73,42.3,146,84.46c1.15.67,2.31,1.34,3.49,2,1.67.86,2.61.19,2.57-1.57C360.86,611.46,362,601,360.46,590.56Z"/><path class="cls-1" d="M360.59,590.72c1-1.87.63-3.91.63-5.88q0-167.89,0-335.78c0-2,.34-4-.55-5.91l-.13.15c2-1,3.51.27,5.07,1.17L408,268.93q50,28.9,100.11,57.74c3.49,2,4.75,4.17,4.74,8.19q-.2,81.93,0,163.88c0,4.07-1.34,6.26-4.79,8.18-12.21,6.81-24.26,13.91-36.36,20.9q-52.43,30.27-104.85,60.53c-1.95,1.12-3.73,3-6.37,2.21Z"/><path class="cls-1" d="M360.67,243.15c-2.05-.28-3.38,1.23-4.9,2.11q-70.49,40.65-141,81.3c-3.72,2.13-4.88,4.46-4.86,8.62.14,51.29,0,102.59.17,153.88,0,4.38-.49,5.74-5.32,4.23-6.65-2.07-13.43-3.73-20-6.18-2.66-1-3.9-2.22-3.9-5.32q.15-82.69,0-165.38c0-2.91,1-4.45,3.48-5.86q86.28-49.74,172.47-99.65c3.46-2,4.55-1.57,4.36,2.49-.47,10,.71,20-.66,29.9Z"/><path class="cls-1" d="M360.46,590.56c1.55,10.42.4,20.9.63,31.35,0,1.76-.9,2.43-2.57,1.57-1.18-.61-2.34-1.28-3.49-2q-73-42.19-146-84.46c-3.45-2-7.17-2.57-10.92-3.18-5.6-.9-10.34-3-14.23-7.44A116.09,116.09,0,0,0,164,509c-3-2.12-3.65-4.36-2.19-7.64a68.21,68.21,0,0,1,7.52-12.91c1.85-2.48,4-3,6.94-1.7a146.33,146.33,0,0,0,28.37,9.39,15.59,15.59,0,0,1,9.27,6.4c4.14,5.66,9.65,9.43,15.61,12.86Q294.18,552.64,358.78,590a13,13,0,0,0,1.82.71Z"/></g></g></svg>