<?xml version="1.0" encoding="utf-8"?>
<!-- Generator: Adobe Illustrator 25.2.1, SVG Export Plug-In . SVG Version: 6.00 Build 0)  -->
<svg version="1.1" id="Layer_1" xmlns="http://www.w3.org/2000/svg" xmlns:xlink="http://www.w3.org/1999/xlink" x="0px" y="0px"
	 viewBox="0 0 94 61" style="enable-background:new 0 0 94 61;" xml:space="preserve">
<style type="text/css">
	.st0{fill:#F44250;}
	.st1{fill:#FFFFFF;}
</style>
<path class="st0" d="M72.7,20.9c-2.7-0.8-4.1-0.6-6.9-0.9c-4.3-0.5-6.1-2.2-6.8-6.5c-0.4-2.4,0.1-6-1-8.2c-2-4.2-6.7-6.1-11.4-5
	c-4,0.9-7.3,4.9-7.5,9c-0.2,4.7,2.4,8.6,7,10c2.2,0.7,4.5,1,6.7,1.1c4.1,0.3,4.5,2.6,5.6,4.5c0.7,1.2,1.4,2.4,1.4,5.9
	s-0.7,4.7-1.4,5.9c-1.1,1.9-2.5,3.1-6.7,3.4c-2.3,0.2-4.6,0.5-6.7,1.1c-4.6,1.4-7.2,5.3-7,10c0.2,4.1,3.5,8.1,7.5,9
	c4.7,1.1,9.4-0.8,11.4-5c1.1-2.2,1.6-4.7,2-7.1c0.7-4.4,2.5-6.1,6.8-6.5c2.8-0.3,5.7,0,8.3-1.5c2.8-2,5.3-5.1,5.3-9.3
	C79.5,26.6,76.8,22.2,72.7,20.9z"/>
<path class="st1" d="M28.2,40.8c-5.5,0-9.9-4.5-9.9-10s4.5-10,9.9-10s9.9,4.5,9.9,10C38.1,36.3,33.7,40.8,28.2,40.8z"/>
<path class="st1" d="M9.9,61C4.4,61,0,56.5,0,51c0-5.5,4.5-9.9,10-9.9c5.5,0,9.9,4.5,9.9,10C19.9,56.6,15.4,61,9.9,61z"/>
<path class="st1" d="M83.7,61c-5.5,0-10-4.4-10-9.9c0-5.5,4.4-10,9.9-10c5.5,0,10,4.4,10,9.9C93.6,56.5,89.2,61,83.7,61z"/>
</svg>
