<svg xmlns="http://www.w3.org/2000/svg" viewBox="0 0 138.42 138.39"><defs><style>.cls-1{fill:#1467b1;}</style></defs><g id="Layer_2" data-name="Layer 2"><g id="Layer_1-2" data-name="Layer 1"><path class="cls-1" d="M10.51,64.38c0,19.15.23,38.32-.14,57.47-.1,5.28,1.56,6.16,6.41,6.14,38.49-.2,77-.11,115.47-.11,1.33,0,2.67,0,4,0s2.22.46,2.17,2-1,1.51-2,1.53-2.34,0-3.5,0q-58.24,0-116.47-.05c-3.73,0-6.79,0-5.93,5.1.19,1.11-.28,1.94-1.62,1.9-1.19,0-2-.59-1.86-1.8.42-3.86-1.09-5.67-5.09-5.2A1.58,1.58,0,0,1,0,129.66c-.06-1.73,1.13-1.94,2.31-1.74,4.35.76,4.71-1.57,4.7-5.12Q6.86,64.32,7,5.84q0-2,0-4C7,.71,7.4,0,8.72,0s1.72.78,1.75,1.9,0,2.33,0,3.5Z"/><path class="cls-1" d="M47.63,38.91C64.23,39,76.58,51,77.83,68.64c.85,12.15,6.2,20.94,18,25.06,14.49,5.08,30.75-4.68,33.31-19.8a14.59,14.59,0,0,0,.21-2c.06-2,.72-3.22,3-2.85s1.54,2.23,1.47,3.53c-.72,12.33-12.64,24.84-25,26.31C90,101.14,76.13,90.48,73.85,71.68c-1.11-9.16-3-17.53-11.19-23.44A25.74,25.74,0,0,0,22,65.21c-.32,2,0,4.37-3.1,3.73s-1.21-3-1-4.41A29.56,29.56,0,0,1,47.63,38.91Z"/></g></g></svg>