<?xml version="1.0" encoding="utf-8"?>
<!-- Generator: Adobe Illustrator 25.2.1, SVG Export Plug-In . SVG Version: 6.00 Build 0)  -->
<svg version="1.1" id="Layer_1" xmlns="http://www.w3.org/2000/svg" xmlns:xlink="http://www.w3.org/1999/xlink" x="0px" y="0px"
	 viewBox="0 0 800 800" style="enable-background:new 0 0 800 800;" xml:space="preserve">
<style type="text/css">
	.st0{fill:#E888FF;}
</style>
<path class="st0" d="M554.3,549.2c29.5-3.1,51.9-28.5,50.9-59c-1-30.5-26.5-55-57-55h-2c-31.6,1-56,27.5-55,59
	c1,15.3,7.1,28.5,16.3,37.7c-34.6,68.2-87.6,118.1-167,159.8c-54,28.5-109.9,38.7-165.9,31.6c-45.8-6.1-81.4-26.5-103.8-60.1
	c-32.6-49.9-35.6-103.8-8.1-157.8c19.3-38.7,49.9-67.2,69.2-81.4c-4.1-13.2-10.2-35.6-13.2-51.9C-29,478.9-13.7,623.5,31,691.7
	c33.6,50.9,101.8,82.5,177.1,82.5c20.4,0,40.7-2,61.1-7.1C399.6,741.6,498.3,664.2,554.3,549.2L554.3,549.2z M733.5,422.9
	c-77.4-90.6-191.4-140.5-321.7-140.5h-16.3c-9.2-18.3-28.5-30.5-49.9-30.5h-2c-31.6,1-56,27.5-55,59.1c1,30.5,26.5,55,57,55h2
	c22.4-1,41.7-15.3,49.9-34.6h18.3c77.4,0,150.7,22.4,216.8,66.2c50.9,33.6,87.6,77.4,107.9,130.3c17.3,42.8,16.3,84.5-2,120.1
	c-28.5,54-76.3,83.5-139.5,83.5c-40.7,0-79.4-12.2-99.8-21.4c-11.2,10.2-31.6,26.5-45.8,36.7c43.8,20.4,88.6,31.6,131.3,31.6
	c97.7,0,170-54,197.5-107.9C811.9,611.3,809.8,509.5,733.5,422.9L733.5,422.9z M216.3,566.5c1,30.5,26.5,55,57,55h2
	c31.6-1,56-27.5,55-59c-1-30.5-26.5-55-57-55h-2c-2,0-5.1,0-7.1,1c-41.7-69.2-59-144.6-52.9-226c4.1-61.1,24.4-114,60.1-157.8
	c29.5-37.7,86.5-56,125.2-57c107.9-2,153.7,132.3,156.8,186.3c13.2,3.1,35.6,10.2,50.9,15.3C592,104.3,490.2,18.7,392.5,18.7
	c-91.6,0-176.1,66.2-209.7,163.9c-46.8,130.3-16.3,255.5,40.7,354.3C218.4,544.1,215.3,555.3,216.3,566.5L216.3,566.5z"/>
</svg>
