<?xml version="1.0" encoding="utf-8"?>
<!-- Generator: Adobe Illustrator 25.4.1, SVG Export Plug-In . SVG Version: 6.00 Build 0)  -->
<svg version="1.1" id="Layer_1" xmlns="http://www.w3.org/2000/svg" xmlns:xlink="http://www.w3.org/1999/xlink" x="0px" y="0px"
	 viewBox="0 0 1000 1000" style="enable-background:new 0 0 1000 1000;" xml:space="preserve">
<style type="text/css">
	.st0{fill:#3183C5;}
	.st1{fill:#FCFEFF;}
	.st2{fill:#3184C5;}
</style>
<g>
	<path class="st0" d="M999.9,500.5c0,165,0,329.9,0.1,494.9c0,3.7-0.8,4.6-4.6,4.6c-330.3-0.1-660.5-0.1-990.8,0
		c-3.7,0-4.6-0.8-4.6-4.6C0.1,665.1,0.1,334.9,0,4.6C0,0.8,0.8,0,4.6,0c330.3,0.1,660.5,0.1,990.8,0c3.7,0,4.6,0.8,4.6,4.6
		C999.9,169.9,999.9,335.2,999.9,500.5z M534.9,476.6c-0.1,12.9,1,25.6,5,38c7,21.4,20.5,35.7,43.8,38.1c14.7,1.5,28.4-2.9,41.5-9
		c22.7-10.7,42.1-26.1,60.1-43.3c2.6-2.5,4.1-2.8,6.8-0.1c7.9,7.9,16.4,15.1,25.4,21.8c17.7,13.3,36.3,24.9,58.3,29.5
		c28.1,5.8,50.7-6.7,60.7-33.5c4.8-13,6.3-26.5,6.2-40.3c-0.1-19.7-3-39.2-7.8-58.3c-1.1-4.3-0.6-6.3,4.2-7.5
		c10.8-2.7,21.3-6.6,31.6-10.9c19.5-8.2,37.9-17.9,52.9-33.3c22.6-23.2,22.6-52.3,0.1-75.6c-6.9-7.1-14.6-13.1-23-18.3
		c-19.6-12.1-40.8-20.1-62.8-26.5c-3.3-1-4.1-2-3.2-5.5c3.2-12.4,5.4-25,6.8-37.8c2.1-19.7,2.2-39.2-3.6-58.4
		c-8.1-26.7-27.8-40.7-55-38.5c-10.9,0.9-21.1,4.4-31,9.1c-22.2,10.6-41.2,25.6-58.9,42.4c-3.1,3-4.9,3.6-8.2,0.2
		c-7.7-7.8-16.2-14.9-25-21.5c-17-12.8-34.9-23.8-56-28.8c-29.2-6.9-52.9,5.8-63,34c-3.9,10.8-5.4,21.9-5.8,33.3
		c-0.7,21.5,2.6,42.5,7.3,63.3c1.7,7.5,2.3,6-4.9,8.2c-11,3.3-21.9,6.9-32.5,11.4c-19.5,8.2-37.9,18-52.8,33.4
		c-21.5,22.3-22.4,49.1-2.4,72.6c5.4,6.4,11.8,11.7,18.7,16.5c21.3,14.8,45.2,24,69.9,31.1c4.5,1.3,5.6,2.7,4.4,7.4
		C537.9,438.4,535.2,457.3,534.9,476.6z M423.6,879.6c12.5-27.3,24.6-53.9,37.1-81.4c0.6,1.9,1,2.7,1.1,3.4
		c3.1,19.2,6.1,38.5,9.2,57.7c0.8,4.7-0.2,10.9,3,13.7c3.2,2.8,9.3,0.4,14.1,0.9c3.7,0.4,5.3-0.7,4-4.6c-0.3-0.9-0.4-2-0.5-2.9
		c-5.5-31.3-11-62.6-16.5-93.9c-2-11.1-3.9-22.2-6.1-34.6c-15.2,33.2-29.8,65.1-45,98.3c-14.7-33.2-28.8-65.2-43.5-98.3
		c-3.5,17.8-6.7,34.3-9.9,50.8c-5.3,27.1-10.5,54.2-15.9,81.3c-0.7,3.2-0.1,4.2,3.2,4c4-0.2,8-0.2,12,0c2.8,0.1,4-0.7,4.5-3.7
		c2.5-14.9,5.2-29.8,7.9-44.7c1.6-8.8,3.2-17.5,4.8-26.3c0.4,0,0.7-0.1,1.1-0.1C399.7,825.7,411.4,852.2,423.6,879.6z M619.9,739.5
		c-1.2,2.3-0.7,4.2-0.7,5.9c0,38.2-0.1,76.3,0,114.5c0,4.5-1.9,10.3,0.8,13c2.9,3,8.9,0.5,13.4,1.1c4.2,0.5,4.9-1.3,4.9-5.1
		c-0.1-25.7-0.1-51.3,0-77c0-1.7-0.5-3.6,0.8-5.9c30.4,31.7,60.5,63.1,90.6,94.5c0.3-0.2,0.7-0.5,1-0.7c0-1.8,0-3.6,0-5.4
		c0-37.8,0-75.6,0-113.5c0-13.7,0-13.6-13.8-13.7c-4.2,0-5.3,1.1-5.3,5.3c0.2,25.2,0.1,50.3,0.1,75.5c0,1.9,0.6,3.9-1.2,6.2
		C680.2,802.6,650.1,771.2,619.9,739.5z M87.2,810.5c0,19.7,0.1,39.3-0.1,59c0,3.4,0.9,4.6,4.4,4.5c17.3-0.2,34.7,0,52-0.1
		c4.3,0,9.9,1.8,12.5-0.7c2.9-2.8,0.5-8.5,1-12.9c0.4-3.6-1.1-4.4-4.5-4.4c-14,0.2-28,0-42,0.1c-3.5,0-4.5-1-4.5-4.5
		c0.2-11,0.2-22,0-33c-0.1-3.6,0.7-5,4.7-4.9c10.7,0.3,21.3,0.1,32,0.1c13,0,12.9,0,12.9-13.1c0-4.2-1.5-4.9-5.2-4.9
		c-13.2,0.2-26.3,0-39.5,0.1c-3.6,0.1-5.1-0.7-4.9-4.7c0.3-7.2,0.3-14.3,0-21.5c-0.2-3.9,1.3-4.7,4.9-4.7
		c10.8,0.2,21.7,0.1,32.5,0.1c13.9,0,13.8,0,13.6-13.8c0-3.4-1.2-4.2-4.3-4.2c-20.3,0.1-40.7,0.1-61,0c-3.8,0-4.8,1.1-4.7,4.8
		C87.3,771.5,87.2,791,87.2,810.5z M261.2,810.4c0,19,0,38,0,57c0,7.5-0.9,6.5,6.8,6.5c16.7,0,33.3,0.1,50,0c4.3,0,10.1,2,12.3-1
		c2.1-2.7,0.5-8.3,0.8-12.6c0.3-3.5-0.9-4.5-4.4-4.5c-14,0.2-28,0-42,0.1c-3.4,0-4.6-0.8-4.6-4.4c0.2-11.2,0.2-22.3,0-33.5
		c-0.1-3.5,1.1-4.6,4.6-4.5c10.7,0.2,21.3,0.1,32,0.1c13.3,0,13.1,0,13-13.5c0-3.5-1.2-4.5-4.6-4.4c-13.5,0.2-27,0-40.5,0.1
		c-3.6,0-4.6-1.1-4.5-4.6c0.2-7.3,0.2-14.7,0-22c-0.1-3.3,1.1-4.3,4.3-4.2c11.2,0.2,22.3,0.1,33.5,0.1c13.3,0,13.1,0,13.2-13.2
		c0-3.7-1-4.8-4.8-4.8c-20,0.2-40,0.2-60,0c-4.1,0-5.4,1-5.3,5.3C261.3,771.8,261.2,791.1,261.2,810.4z M522.1,810.6
		c0,19.5,0.1,39-0.1,58.5c0,4.1,1.2,5,5.1,4.9c17.3-0.2,34.7,0,52-0.1c4.1,0,9.5,1.8,12-0.8c2.7-2.8,0.5-8.2,0.9-12.5
		c0.4-3.7-0.8-4.9-4.6-4.8c-14,0.2-28,0-42,0.2c-3.1,0-4.4-0.6-4.4-4.1c0.2-11.3,0.2-22.7,0-34c0-3.2,0.9-4.4,4.2-4.3
		c10.8,0.2,21.7,0.1,32.5,0.1c13,0,12.8,0,12.8-13.2c0-3.7-1-4.8-4.8-4.8c-13.5,0.2-27,0-40.5,0.1c-3.3,0-4.4-1-4.3-4.3
		c0.2-7.3,0.2-14.7,0-22c-0.1-3.5,1-4.6,4.5-4.6c11.2,0.2,22.3,0.1,33.5,0.1c13,0,12.9,0,13-12.9c0-3.8-0.9-5.1-4.9-5.1
		c-20,0.2-40,0.2-60,0c-4.4-0.1-5.2,1.5-5.1,5.5C522.2,772,522.1,791.3,522.1,810.6z M882.6,876c5.9,0.1,12.9-1.5,19.2-5.2
		c13.2-7.7,19.7-19.4,20-34.5c0.3-14.1-6.1-24.5-18-31.8c-6.7-4.1-14-6.8-21.3-9.8c-4.3-1.8-8.7-3.5-12.2-6.7
		c-5.5-5.1-6.1-12.6-1.5-18.4c6.6-8.3,21.6-9,29.1-1.5c2.1,2.1,2.8,6.6,6.1,6.3c2.9-0.3,5.5-2.9,8.2-4.5c0.6-0.3,1.1-0.8,1.7-1
		c4.7-1.7,3.8-4.1,1.5-7.4c-12.1-16.9-34.4-21.6-52.4-11.1c-21.5,12.6-22.3,40.5-1.6,54.4c4.6,3.1,9.6,5.3,14.7,7.4
		c5.8,2.4,11.8,4.6,17.1,8.2c8.3,5.7,11.3,14.4,8.3,24c-2.7,8.6-10.8,14.2-20.3,13.9c-10.4-0.3-17.1-5.6-19.8-15.7
		c-0.4-1.6-0.7-3.2-1-4.9c-0.3-1.9-0.9-3-3.3-2.4c-4.5,1.2-9.1,2.1-13.6,3.1c-1.8,0.4-2.8,0.8-2.4,3.3
		C844.3,862.4,860.1,876.1,882.6,876z M779.9,820c0,13.3-0.1,26.6,0,39.9c0,4.5-1.9,10.3,0.7,13c2.9,3,8.8,0.5,13.4,1
		c3.9,0.5,5-1,5-4.9c-0.2-29.5-0.1-58.9-0.1-88.4c0-4.9-2.1-11.4,0.9-14.5c3.2-3.3,9.8-1,14.9-1c13.5-0.2,13.4-0.1,13.3-13.6
		c0-3.7-1.3-4.4-4.7-4.4c-19.6,0.1-39.3,0.1-58.9,0.1c-14.2,0-14.2,0-13.7,14.2c0.1,2.8,0.9,3.8,3.7,3.7c7-0.2,14,0.1,21-0.1
		c3.5-0.1,4.5,1,4.5,4.5C779.8,786.3,779.9,803.1,779.9,820z M184.2,810.9c0,19.3,0.1,38.7-0.1,58c-0.1,4.2,1.3,5.3,5.3,5.2
		c12.5-0.3,25-0.1,37.5-0.1c14.2,0,14.1,0,13.7-14.2c-0.1-3.1-1.1-3.9-4.1-3.9c-9.5,0.2-19-0.2-28.5,0.2c-4.1,0.1-4.9-1.3-4.9-5.1
		c0.1-29.8,0.1-59.6,0-89.5c0-4.5,1.9-10.3-0.8-13.1c-2.9-3.1-8.9-0.5-13.4-1.1c-4.2-0.5-4.9,1.4-4.9,5.1
		C184.3,771.9,184.2,791.4,184.2,810.9z M494.2,687.3c0.4-0.2,0.8-0.4,1.2-0.5c13.9,14.5,27.9,29,41.9,43.6c0.5-0.7,0.8-1,0.8-1.2
		c0-19.5,0-39,0.1-58.4c0-4-2.8-2.8-4.9-3c-2.3-0.2-4.3-0.2-4.2,3.2c0.2,6,0,12,0,18c0,6.4,0,12.8,0,20.5
		c-15.1-15.7-29.1-30.3-44-45.8c0,21.5,0,41.3,0,61.1c0,1.3-0.3,2.6,1.6,3.2c4.7,1.5,7.4-0.3,7.4-5.3c0-4.8,0-9.7,0-14.5
		C494.2,701.2,494.2,694.3,494.2,687.3z M125.8,727.3c-5.3-7.4-10.4-14.5-15.7-21.6c-1.6-2.1-2.6-3.3,1-4.8
		c7.1-3.1,10.6-9.8,9.8-17.4c-0.8-7.7-5.5-12.8-13.4-14.8c-5.4-1.3-10.9-0.7-16.4-1c-3.1-0.2-4,1-4,4c0.1,17.5,0.1,34.9,0,52.4
		c0,2.6,0.6,3.7,3.5,3.9c4.2,0.2,5.9-0.8,5.6-5.4c-0.5-6.4-0.1-12.8-0.1-19.3c2.9,0.3,3.4,2.2,4.3,3.5c3.3,4.6,6.9,9,9.6,14
		C113.6,727.1,118.2,729.6,125.8,727.3z M606.1,663.9c-9.9,21.2-19.2,41.4-28.6,61.5c-1,2.2-0.1,2.3,1.8,2.6c4.7,0.6,8-0.5,9.4-5.6
		c0.5-2.1,1.8-3.9,2.6-5.9c1-2.5,2.6-3.5,5.3-3.4c4.5,0.2,9,0.5,13.5-0.1c6.5-0.8,9.9,1.5,12,7.7c2.7,7.9,3.2,7.8,12.6,6.7
		C625.3,706.6,616,685.9,606.1,663.9z M234.6,727.5c9.1,1,9.8,1.2,10.8-2.7c2.6-10.4,9.2-13.5,19-11.7c0.6,0.1,1.4,0.1,2,0
		c7.8-1.5,12.7,1.4,14.3,9.4c1,5,4.3,5.9,8.8,5.5c2.5-0.2,3.4-0.6,2.1-3.1c-1.6-3.3-3-6.7-4.5-10c-7.5-16.6-14.9-33.3-22.9-51
		C254.1,685.6,244.5,706.3,234.6,727.5z M879.1,697.8c0,8.8,0.1,17.6,0,26.5c0,2.7,0.7,3.9,3.6,3.8c8.6-0.2,17.3-0.2,26,0
		c3.4,0.1,3.8-1.4,3.8-4.1c0-2.9-0.3-4.7-4-4.5c-5.5,0.3-11,0-16.5,0.1c-2.6,0-4-0.7-3.9-3.7c0.2-4.5,0.1-9,0-13.5
		c-0.1-2.4,0.9-3.2,3.2-3.2c5.2,0.1,10.3,0,15.5,0c2.8,0,5.1,0.3,5.1-3.9c0-4.2-1.8-4.7-5.1-4.4c-2.8,0.2-5.7,0-8.5,0
		c-10.6,0-10.4,0-10.3-10.7c0-3.4,1.3-4.2,4.4-4.1c5.5,0.2,11-0.1,16.5,0.1c3.1,0.1,3.5-1.4,3.5-4c-0.1-2.4,0.2-4.6-3.5-4.5
		c-8.6,0.2-17.3,0.2-26,0c-3.1-0.1-4,1.1-3.9,4.1C879.2,680.5,879.1,689.1,879.1,697.8z M165.2,697.8c0,8.8,0.1,17.6-0.1,26.5
		c0,2.8,0.9,3.8,3.7,3.7c8.6-0.2,17.3-0.2,26,0c3.5,0.1,3.7-1.6,3.7-4.2c0-2.5,0.1-4.6-3.5-4.4c-5.6,0.2-11.3,0-17,0.1
		c-2.7,0.1-3.9-0.9-3.8-3.7c0.2-4.3,0.2-8.7,0-13c-0.1-2.9,1.1-3.7,3.8-3.6c5,0.1,10,0,15,0.1c2.9,0.1,5,0.1,5-4
		c0.1-4.3-2-4.5-5.2-4.4c-2.8,0.2-5.7,0-8.5,0c-10.5,0-10.4,0-10.2-10.7c0.1-3,0.9-4.2,4-4c5.5,0.2,11-0.1,16.5,0.1
		c3.2,0.1,4-1.1,3.9-4c0-3-0.5-4.5-4.1-4.4c-8.3,0.3-16.6,0.3-25,0c-3.7-0.1-4.4,1.4-4.3,4.7C165.4,680.9,165.2,689.4,165.2,697.8z
		 M373.5,714.5c-13.8,7.8-23.8,7.5-31.7-0.7c-7.1-7.4-8.4-19.4-2.9-28.2c3.7-6,9.1-9.6,16.2-10.5c6.9-0.9,12.8,2.1,18.5,6
		c0.8-11.2,0.4-11.7-8.8-13.9c-12.4-2.9-25.2,2.1-32.8,12.9c-7.2,10.3-7.5,24.5-0.6,34.8c7.1,10.7,20.1,16.2,32.7,13.1
		C375.7,725.3,374.2,725.5,373.5,714.5z M813.7,732.3c3.8-9,7.1-16.9,10.4-24.8c5-12,10-23.9,14.9-35.9c0.5-1.1,2.4-2.6,0-3.7
		c-3.5-1.7-8.4,0.4-10,4.2c-4.4,10.8-8.7,21.6-13.1,32.4c-0.5,1.3-0.5,3-2.6,3.5c-4.6-11.6-9.6-23-13.7-34.8
		c-1.7-4.9-4.4-5.8-8.9-5.5c-2.6,0.2-3.1,0.8-2.1,3.3c4.1,9.8,8.1,19.7,12.1,29.6C804.9,710.7,809.1,721,813.7,732.3z M422.9,702.1
		c0,7,0.1,14-0.1,21c-0.1,3.4,0.3,5.1,4.5,5c3.8-0.1,4.8-1.1,4.7-4.8c-0.2-12.1-0.1-24.3-0.1-36.4c0-10.3,0-10.3,10.1-10.8
		c0.2,0,0.3,0,0.5,0c3.3,0.4,3.3-1.8,3.3-4.1c0-2.3,0.2-4.3-3.2-4.2c-10.2,0.1-20.3,0.1-30.5,0c-2.4,0-3.1,0.8-3.2,3.2
		c-0.2,3.5,0.3,5.9,4.7,5.2c1.1-0.2,2.3,0.1,3.5-0.1c4.4-0.6,6.2,0.8,5.9,5.6C422.6,688.5,422.9,695.3,422.9,702.1z M677.8,701.8
		c0,7.3,0.2,14.7-0.1,22c-0.1,3.7,1.3,4.4,4.6,4.4c3.3,0,4.7-0.7,4.6-4.4c-0.2-12-0.1-24-0.1-35.9c0-3.6-1.5-8.1,0.6-10.7
		c2.1-2.5,6.6-0.9,10-0.9c3.4,0,3.1-2.1,3.2-4.3c0.1-2.4-0.1-4.2-3.3-4.1c-10.1,0.1-20.3,0.1-30.5,0c-2.5,0-2.9,1.1-3.1,3.3
		c-0.3,3.7,0.6,5.7,4.8,5.1c1.8-0.3,3.7,0.1,5.5-0.1c2.8-0.2,3.8,0.9,3.7,3.7C677.7,687.1,677.8,694.4,677.8,701.8z M739.1,698
		c0,8.6,0.2,17.3-0.1,25.9c-0.1,3.9,1.7,4.1,4.8,4.2c3.1,0,4.4-0.6,4.4-4.1c-0.2-17.4-0.2-34.9,0-52.3c0-3.6-1.6-4-4.5-4
		c-2.8,0-4.8,0.1-4.7,3.8C739.3,680.4,739.1,689.2,739.1,698z"/>
	<path class="st1" d="M534.9,476.6c0.2-19.2,3-38.2,7.7-56.8c1.2-4.7,0.1-6.1-4.4-7.4c-24.8-7.1-48.6-16.3-69.9-31.1
		c-6.9-4.8-13.2-10.1-18.7-16.5c-20-23.6-19.1-50.3,2.4-72.6c14.9-15.4,33.4-25.2,52.8-33.4c10.6-4.5,21.5-8.1,32.5-11.4
		c7.2-2.2,6.6-0.7,4.9-8.2c-4.7-20.9-8-41.9-7.3-63.3c0.4-11.4,1.9-22.5,5.8-33.3c10.2-28.2,33.8-40.9,63-34c21.1,5,39,16,56,28.8
		c8.8,6.6,17.3,13.6,25,21.5c3.3,3.4,5.1,2.8,8.2-0.2c17.7-16.8,36.7-31.9,58.9-42.4c9.8-4.7,20.1-8.3,31-9.1
		c27.2-2.2,46.9,11.8,55,38.5c5.8,19.2,5.7,38.8,3.6,58.4c-1.4,12.8-3.7,25.4-6.8,37.8c-0.9,3.4-0.1,4.5,3.2,5.5
		c22,6.4,43.2,14.4,62.8,26.5c8.4,5.2,16.2,11.2,23,18.3c22.5,23.2,22.5,52.3-0.1,75.6c-14.9,15.4-33.4,25.1-52.9,33.3
		c-10.3,4.3-20.8,8.2-31.6,10.9c-4.8,1.2-5.3,3.2-4.2,7.5c4.8,19.1,7.7,38.5,7.8,58.3c0.1,13.7-1.4,27.3-6.2,40.3
		c-10,26.9-32.6,39.4-60.7,33.5c-22.1-4.6-40.7-16.2-58.3-29.5c-8.9-6.7-17.4-14-25.4-21.8c-2.7-2.7-4.2-2.4-6.8,0.1
		c-18,17.2-37.4,32.7-60.1,43.3c-13.1,6.1-26.8,10.5-41.5,9c-23.4-2.4-36.9-16.7-43.8-38.1C535.9,502.2,534.8,489.5,534.9,476.6z
		 M682.8,245.7c-12.7,0.1-25.3,0.6-37.9,1.3c-2.4,0.1-4,0.8-5.3,2.9c-16.5,24.6-31.4,50.2-44.4,76.9c-1,2.1-1.1,3.9,0,6.1
		c13,26.7,27.9,52.3,44.4,76.9c1.3,2,2.9,2.9,5.3,3.1c29.3,1.8,58.6,1.7,87.9-0.1c2.5-0.2,4.3-0.9,5.8-3.1
		c16.5-24.7,31.4-50.2,44.4-76.9c1-2,1-3.6,0-5.6c-13-26.7-27.9-52.3-44.4-76.9c-1.3-2-2.8-2.9-5.3-3.1
		C716.4,246.1,699.6,245.6,682.8,245.7z M452.9,331.4c-0.1,2.7,0.9,6.5,2.5,10.2c4.4,9.9,11.9,17.2,20.4,23.5
		c21,15.4,45,24.1,69.7,31.4c3.4,1,3.6-1,4.2-3c6.3-20.5,14.1-40.5,23-60c1.1-2.5,1.2-4.5,0-7c-8.9-19.4-16.6-39.2-22.8-59.6
		c-0.9-3.1-2-4.2-5.6-3.1c-13.4,4.1-26.6,8.5-39.3,14.3c-15.4,7-30,15.2-41.5,27.9C457.3,312.7,452.9,320.4,452.9,331.4z M923,330
		c0.1-6-1.9-11.4-4.9-16.5c-4.5-7.5-10.8-13.5-17.8-18.7c-20.1-14.8-43.2-23.3-66.7-30.6c-3.5-1.1-4.8-0.4-5.9,3.1
		c-6.1,20-13.7,39.6-22.4,58.6c-1.2,2.6-1.4,4.8-0.2,7.5c8.9,19.2,16.5,38.9,22.7,59.1c1,3.4,2.3,4.1,5.6,3.1
		c13.2-4,26.3-8.5,38.8-14.3c14.7-6.8,28.7-14.7,39.9-26.9C918.3,347.5,922.9,339.7,923,330z M825.1,183.2
		c0.2-13.2-0.9-26.3-6.3-38.6c-5.4-12.3-14.6-19.6-28.4-20.2c-6.4-0.3-12.6,0.9-18.6,2.9c-27,9.2-48.3,26.9-68.7,45.9
		c-2.1,2-0.6,3.2,0.6,4.5c14.7,15.9,28.2,32.8,40.8,50.4c1.1,1.6,2.2,2.7,4.4,2.9c21.5,2,42.9,5.1,64,9.9c2.8,0.7,4.2,0,4.9-3
		C821.8,219.9,825.1,201.8,825.1,183.2z M825.2,476.6c0-18.8-3.4-37.1-7.5-55.3c-0.5-2.2-1.2-3.3-4-2.6c-21.1,4.8-42.5,7.9-64,10.1
		c-2.1,0.2-3.7,0.7-5,2.6c-12.7,17.8-26.3,34.8-41.2,50.8c-1.8,2-1.6,3.2,0.3,4.8c6,5.2,11.8,10.8,18,15.8
		c16.1,13,33,24.8,53.4,30.4c24.1,6.6,40.4-2.8,46.9-27C824.6,496.5,825.3,486.6,825.2,476.6z M552.5,181.1
		c0.3,20.1,3.2,38.1,7.4,56c0.8,3.5,2,4,5.4,3.3c20.6-4.6,41.5-7.7,62.6-9.5c2.6-0.2,4.3-1.2,5.7-3.3c12.4-17.4,25.7-34,40.3-49.6
		c2.3-2.5,2.1-3.8-0.3-5.9c-10-9.3-20.3-18.2-31.6-26c-13.2-9.2-27-17.1-42.9-20.6c-20.6-4.5-35.2,3.8-42,23.8
		C553.3,160.3,552.6,171.5,552.5,181.1z M552.5,476.6c-0.3,17,2.6,31.7,8,41.7c5.6,10.2,13.9,16.2,25.9,16.8
		c9.7,0.5,18.8-2,27.6-5.7c23.2-9.9,42.2-25.7,60.4-42.7c2.2-2.1,1.1-3.3-0.4-4.8c-14.7-15.7-28-32.5-40.6-50
		c-1.1-1.5-2.1-2.7-4.3-2.9c-21.7-2-43.3-5-64.6-9.8c-2.9-0.7-4.1,0.2-4.8,3.2C555.7,440.2,552.7,458.2,552.5,476.6z M584.6,351.4
		c-0.6,0.5-0.9,0.6-1,0.9c-6.7,15.1-12.2,30.6-17.2,46.2c-0.8,2.5,0.2,3.1,2.4,3.6c10.9,2.4,21.8,4.5,32.9,5.8
		c5.3,0.6,10.5,2.1,16.6,1.7C606.1,390.4,594.7,371.3,584.6,351.4z M618.5,249.5c-14.4,1.7-27.7,3.6-40.9,6.3
		c-12.3,2.5-12.4,2.5-8.3,14.4c4.4,12.8,9,25.6,15,38.8C594.7,288.4,606.1,269.4,618.5,249.5z M759.2,410
		c14.9-1.9,28.9-3.8,42.7-6.8c10.2-2.2,10.3-2.2,7-12c-4.5-13.5-9.3-26.8-15.5-40.6C783.1,371.2,771.7,390.3,759.2,410z
		 M654.6,430.9c10.4,14,20.7,26.2,31.3,38.1c2.6,2.9,3.8,2.3,6-0.2c10-11,19.4-22.4,28.4-34.2c0.7-1,2.1-1.8,1.5-3.8
		C699.9,432,677.8,432,654.6,430.9z M793.4,309c7.2-16.2,12.9-32.1,17.9-48.3c0.9-2.8-1.3-2.5-2.8-2.8c-10.1-2-20.2-4.1-30.4-5.7
		c-5.9-0.9-11.8-2.3-18.5-2C771.8,269.6,783.1,288.6,793.4,309z M655,227.9c11.9,0.1,23,0.2,34.2,0.1c11,0,22,0,33.3,0
		c-9.9-13.5-20.7-26.3-32-38.7c-1.9-2.1-2.8-0.4-3.9,0.8c-4.9,5.5-9.8,10.9-14.5,16.5C666.3,213.6,660.7,220.8,655,227.9z"/>
	<path class="st1" d="M423.6,879.6c-12.1-27.4-23.9-53.9-35.6-80.5c-0.4,0-0.7,0.1-1.1,0.1c-1.6,8.8-3.2,17.5-4.8,26.3
		c-2.7,14.9-5.4,29.8-7.9,44.7c-0.5,3-1.7,3.9-4.5,3.7c-4-0.2-8-0.2-12,0c-3.2,0.2-3.8-0.7-3.2-4c5.4-27.1,10.7-54.2,15.9-81.3
		c3.2-16.5,6.5-33,9.9-50.8c14.6,33.1,28.8,65.1,43.5,98.3c15.2-33.1,29.8-65.1,45-98.3c2.2,12.3,4.2,23.4,6.1,34.6
		c5.5,31.3,11,62.6,16.5,93.9c0.2,1,0.2,2,0.5,2.9c1.3,3.9-0.3,5-4,4.6c-4.8-0.5-10.8,1.9-14.1-0.9c-3.2-2.8-2.2-9-3-13.7
		c-3.1-19.2-6.1-38.5-9.2-57.7c-0.1-0.8-0.5-1.5-1.1-3.4C448.2,825.7,436,852.3,423.6,879.6z"/>
	<path class="st1" d="M619.9,739.5c30.3,31.6,60.3,63.1,90.5,94.6c1.8-2.3,1.2-4.3,1.2-6.2c0.1-25.2,0.1-50.3-0.1-75.5
		c0-4.2,1.1-5.4,5.3-5.3c13.8,0.2,13.8,0,13.8,13.7c0,37.8,0,75.6,0,113.5c0,1.8,0,3.6,0,5.4c-0.3,0.2-0.7,0.5-1,0.7
		c-30.1-31.4-60.3-62.9-90.6-94.5c-1.4,2.3-0.8,4.2-0.8,5.9c0,25.7-0.1,51.3,0,77c0,3.7-0.7,5.6-4.9,5.1c-4.6-0.6-10.5,2-13.4-1.1
		c-2.7-2.8-0.8-8.6-0.8-13c-0.1-38.2,0-76.3,0-114.5C619.1,743.7,618.7,741.8,619.9,739.5z"/>
	<path class="st1" d="M87.2,810.5c0-19.5,0.1-39-0.1-58.5c0-3.7,1-4.9,4.7-4.8c20.3,0.2,40.7,0.1,61,0c3.1,0,4.3,0.7,4.3,4.2
		c0.1,13.8,0.3,13.8-13.6,13.8c-10.8,0-21.7,0.1-32.5-0.1c-3.6-0.1-5.1,0.8-4.9,4.7c0.3,7.2,0.3,14.3,0,21.5
		c-0.2,3.9,1.3,4.7,4.9,4.7c13.2-0.2,26.3,0,39.5-0.1c3.7-0.1,5.2,0.7,5.2,4.9c-0.1,13.1,0.1,13.1-12.9,13.1
		c-10.7,0-21.3,0.2-32-0.1c-3.9-0.1-4.7,1.4-4.7,4.9c0.2,11,0.2,22,0,33c-0.1,3.5,1,4.5,4.5,4.5c14-0.2,28,0,42-0.1
		c3.4,0,4.9,0.7,4.5,4.4c-0.5,4.4,1.9,10.1-1,12.9c-2.6,2.6-8.3,0.7-12.5,0.7c-17.3,0.1-34.7-0.1-52,0.1c-3.6,0-4.5-1.1-4.4-4.5
		C87.3,849.8,87.2,830.2,87.2,810.5z"/>
	<path class="st1" d="M261.2,810.4c0-19.3,0.1-38.7-0.1-58c0-4.2,1.3-5.3,5.3-5.3c20,0.2,40,0.2,60,0c3.7,0,4.8,1,4.8,4.8
		c-0.1,13.2,0.1,13.2-13.2,13.2c-11.2,0-22.3,0.1-33.5-0.1c-3.2,0-4.4,0.9-4.3,4.2c0.2,7.3,0.2,14.7,0,22c-0.1,3.5,0.9,4.6,4.5,4.6
		c13.5-0.2,27,0,40.5-0.1c3.4,0,4.6,0.9,4.6,4.4c0.1,13.5,0.3,13.5-13,13.5c-10.7,0-21.3,0.1-32-0.1c-3.4-0.1-4.6,1-4.6,4.5
		c0.2,11.2,0.2,22.3,0,33.5c-0.1,3.6,1.2,4.4,4.6,4.4c14-0.2,28,0,42-0.1c3.5,0,4.7,1,4.4,4.5c-0.4,4.3,1.3,9.8-0.8,12.6
		c-2.3,3-8.1,1-12.3,1c-16.7,0.1-33.3,0.1-50,0c-7.6,0-6.7,0.9-6.8-6.5C261.1,848.4,261.2,829.4,261.2,810.4z"/>
	<path class="st1" d="M522.1,810.6c0-19.3,0.1-38.7-0.1-58c0-4,0.8-5.5,5.1-5.5c20,0.2,40,0.2,60,0c4,0,5,1.3,4.9,5.1
		c-0.1,12.9,0,12.9-13,12.9c-11.2,0-22.3,0.1-33.5-0.1c-3.5-0.1-4.6,1.1-4.5,4.6c0.2,7.3,0.2,14.7,0,22c-0.1,3.3,1,4.3,4.3,4.3
		c13.5-0.1,27,0.1,40.5-0.1c3.8-0.1,4.8,1,4.8,4.8c0,13.2,0.1,13.2-12.8,13.2c-10.8,0-21.7,0.1-32.5-0.1c-3.3-0.1-4.3,1.1-4.2,4.3
		c0.2,11.3,0.2,22.7,0,34c-0.1,3.5,1.3,4.1,4.4,4.1c14-0.1,28,0.1,42-0.2c3.8-0.1,5,1.1,4.6,4.8c-0.5,4.3,1.8,9.7-0.9,12.5
		c-2.5,2.6-7.9,0.7-12,0.8c-17.3,0.1-34.7-0.1-52,0.1c-3.8,0-5.1-0.9-5.1-4.9C522.2,849.6,522.1,830.1,522.1,810.6z"/>
	<path class="st1" d="M882.6,876c-22.5,0.1-38.4-13.7-41.3-34.4c-0.3-2.4,0.6-2.9,2.4-3.3c4.5-1,9.1-1.9,13.6-3.1
		c2.4-0.6,2.9,0.5,3.3,2.4c0.3,1.6,0.6,3.3,1,4.9c2.6,10.1,9.4,15.4,19.8,15.7c9.5,0.3,17.6-5.3,20.3-13.9c3-9.6,0.1-18.3-8.3-24
		c-5.3-3.6-11.2-5.8-17.1-8.2c-5.1-2.1-10.1-4.3-14.7-7.4c-20.8-13.8-19.9-41.8,1.6-54.4c18-10.6,40.3-5.8,52.4,11.1
		c2.4,3.3,3.2,5.7-1.5,7.4c-0.6,0.2-1.2,0.7-1.7,1c-2.7,1.6-5.3,4.2-8.2,4.5c-3.4,0.3-4-4.2-6.1-6.3c-7.6-7.5-22.5-6.8-29.1,1.5
		c-4.6,5.8-4,13.3,1.5,18.4c3.5,3.2,7.9,5,12.2,6.7c7.2,3,14.5,5.7,21.3,9.8c11.9,7.3,18.3,17.7,18,31.8c-0.3,15.1-6.8,26.8-20,34.5
		C895.5,874.6,888.6,876.1,882.6,876z"/>
	<path class="st1" d="M779.9,820c0-16.8-0.1-33.6,0.1-50.4c0-3.5-1-4.6-4.5-4.5c-7,0.2-14,0-21,0.1c-2.8,0.1-3.6-0.9-3.7-3.7
		c-0.5-14.2-0.5-14.2,13.7-14.2c19.6,0,39.3,0.1,58.9-0.1c3.3,0,4.6,0.7,4.7,4.4c0.1,13.6,0.2,13.5-13.3,13.6
		c-5.1,0.1-11.6-2.2-14.9,1c-3,3-0.9,9.5-0.9,14.5c-0.1,29.5-0.1,58.9,0.1,88.4c0,3.9-1,5.4-5,4.9c-4.6-0.6-10.5,2-13.4-1
		c-2.6-2.7-0.7-8.6-0.7-13C779.9,846.6,779.9,833.3,779.9,820z"/>
	<path class="st1" d="M184.2,810.9c0-19.5,0.1-39-0.1-58.5c0-3.7,0.7-5.7,4.9-5.1c4.6,0.6,10.5-2,13.4,1.1c2.6,2.8,0.7,8.6,0.8,13.1
		c0.1,29.8,0.1,59.7,0,89.5c0,3.8,0.8,5.2,4.9,5.1c9.5-0.3,19,0,28.5-0.2c3-0.1,4,0.8,4.1,3.9c0.4,14.2,0.5,14.2-13.7,14.2
		c-12.5,0-25-0.2-37.5,0.1c-4.1,0.1-5.4-0.9-5.3-5.2C184.3,849.5,184.2,830.2,184.2,810.9z"/>
	<path class="st1" d="M494.2,687.3c0,6.9,0,13.8,0,20.8c0,4.8,0,9.7,0,14.5c0,5-2.7,6.9-7.4,5.3c-1.8-0.6-1.6-1.9-1.6-3.2
		c0-19.8,0-39.6,0-61.1c14.9,15.5,28.9,30.1,44,45.8c0-7.8,0-14.1,0-20.5c0-6,0.1-12,0-18c-0.1-3.4,1.9-3.4,4.2-3.2
		c2.1,0.2,4.9-1.1,4.9,3c-0.1,19.5-0.1,39-0.1,58.4c0,0.2-0.3,0.5-0.8,1.2c-14-14.6-28-29.1-41.9-43.6
		C495,687,494.6,687.2,494.2,687.3z"/>
	<path class="st1" d="M125.8,727.3c-7.6,2.3-12.2-0.2-15.7-6.5c-2.7-4.9-6.3-9.4-9.6-14c-0.9-1.3-1.4-3.1-4.3-3.5
		c0,6.5-0.3,12.9,0.1,19.3c0.3,4.6-1.4,5.6-5.6,5.4c-3-0.2-3.6-1.3-3.5-3.9c0.1-17.5,0.1-34.9,0-52.4c0-3,0.9-4.2,4-4
		c5.5,0.3,11-0.3,16.4,1c7.9,2,12.6,7.1,13.4,14.8c0.8,7.6-2.7,14.3-9.8,17.4c-3.5,1.5-2.5,2.7-1,4.8
		C115.4,712.8,120.5,719.9,125.8,727.3z M96.3,685.5C96.3,685.5,96.3,685.5,96.3,685.5c0,2.3,0,4.7,0,7c0,1.5,0.4,2.7,2.1,2.7
		c3.7,0,7.4,0,10.5-2.4c3.2-2.5,4.2-7.5,2.4-11.3c-1.7-3.6-8.9-6.8-13.1-5.2c-3.9,1.4-1.1,5.2-1.9,7.8
		C96.1,684.5,96.3,685,96.3,685.5z"/>
	<path class="st1" d="M606.1,663.9c9.9,22,19.1,42.7,28.5,63.6c-9.4,1.1-9.9,1.2-12.6-6.7c-2.1-6.3-5.6-8.6-12-7.7
		c-4.4,0.6-9,0.3-13.5,0.1c-2.7-0.1-4.4,0.9-5.3,3.4c-0.8,2-2,3.9-2.6,5.9c-1.3,5-4.7,6.2-9.4,5.6c-1.9-0.2-2.8-0.4-1.8-2.6
		C586.9,705.3,596.3,685.1,606.1,663.9z M596.6,704.8c5.9,0,10.8,0,15.8,0c2,0,2.2-0.9,1.6-2.5c-2.5-5.7-5-11.4-7.9-18.2
		C602.6,691.7,599.7,697.9,596.6,704.8z"/>
	<path class="st1" d="M234.6,727.5c9.9-21.2,19.5-41.9,29.6-63.6c7.9,17.7,15.4,34.3,22.9,51c1.5,3.3,2.9,6.7,4.5,10
		c1.3,2.6,0.4,2.9-2.1,3.1c-4.5,0.4-7.8-0.5-8.8-5.5c-1.6-8-6.5-10.9-14.3-9.4c-0.6,0.1-1.3,0.1-2,0c-9.9-1.9-16.4,1.3-19,11.7
		C244.4,728.7,243.7,728.5,234.6,727.5z M264,684.2c-3.4,7.5-6.3,13.8-9.4,20.6c5.6,0,10.2-0.1,14.9,0c2.5,0.1,3.4-0.6,2.3-3.1
		C269.3,696.4,267,690.9,264,684.2z"/>
	<path class="st1" d="M879.1,697.8c0-8.7,0.1-17.3-0.1-26c-0.1-3,0.8-4.1,3.9-4.1c8.6,0.2,17.3,0.2,26,0c3.7-0.1,3.4,2.1,3.5,4.5
		c0.1,2.5-0.3,4.1-3.5,4c-5.5-0.2-11,0.1-16.5-0.1c-3.1-0.1-4.4,0.7-4.4,4.1c-0.1,10.7-0.3,10.7,10.3,10.7c2.8,0,5.7,0.2,8.5,0
		c3.3-0.2,5.1,0.3,5.1,4.4c0,4.2-2.3,4-5.1,3.9c-5.2-0.1-10.3,0.1-15.5,0c-2.3,0-3.3,0.8-3.2,3.2c0.1,4.5,0.2,9,0,13.5
		c-0.1,2.9,1.2,3.7,3.9,3.7c5.5-0.1,11,0.2,16.5-0.1c3.7-0.2,4,1.7,4,4.5c0,2.8-0.4,4.2-3.8,4.1c-8.6-0.2-17.3-0.2-26,0
		c-2.9,0.1-3.7-1.1-3.6-3.8C879.2,715.4,879.1,706.6,879.1,697.8z"/>
	<path class="st1" d="M165.2,697.8c0-8.5,0.1-17-0.1-25.5c-0.1-3.3,0.6-4.8,4.3-4.7c8.3,0.2,16.6,0.3,25,0c3.6-0.1,4,1.5,4.1,4.4
		c0,2.9-0.8,4.2-3.9,4c-5.5-0.2-11,0.1-16.5-0.1c-3.1-0.1-3.9,1.1-4,4c-0.2,10.7-0.3,10.7,10.2,10.7c2.8,0,5.7,0.1,8.5,0
		c3.2-0.2,5.2,0.1,5.2,4.4c0,4.1-2.1,4.1-5,4c-5-0.1-10,0.1-15-0.1c-2.7-0.1-4,0.7-3.8,3.6c0.2,4.3,0.2,8.7,0,13
		c-0.1,2.9,1.1,3.8,3.8,3.7c5.7-0.1,11.3,0.1,17-0.1c3.6-0.1,3.5,1.9,3.5,4.4c0,2.6-0.2,4.3-3.7,4.2c-8.6-0.3-17.3-0.2-26,0
		c-2.8,0-3.7-0.9-3.7-3.7C165.3,715.5,165.2,706.7,165.2,697.8z"/>
	<path class="st1" d="M373.5,714.5c0.8,10.9,2.2,10.7-9.5,13.6c-12.6,3.1-25.6-2.4-32.7-13.1c-6.9-10.3-6.6-24.5,0.6-34.8
		c7.6-10.8,20.4-15.9,32.8-12.9c9.2,2.2,9.6,2.7,8.8,13.9c-5.7-4-11.6-6.9-18.5-6c-7.1,0.9-12.4,4.5-16.2,10.5
		c-5.5,8.8-4.3,20.8,2.9,28.2C349.6,722.1,359.7,722.4,373.5,714.5z"/>
	<path class="st1" d="M813.7,732.3c-4.6-11.3-8.8-21.6-13-31.9c-4-9.9-8-19.7-12.1-29.6c-1-2.5-0.6-3,2.1-3.3
		c4.5-0.4,7.1,0.6,8.9,5.5c4.1,11.7,9.1,23.2,13.7,34.8c2.2-0.4,2.1-2.2,2.6-3.5c4.4-10.8,8.8-21.6,13.1-32.4
		c1.5-3.8,6.4-5.9,10-4.2c2.4,1.1,0.5,2.6,0,3.7c-4.9,12-9.9,24-14.9,35.9C820.8,715.4,817.4,723.4,813.7,732.3z"/>
	<path class="st1" d="M422.9,702.1c0-6.8-0.3-13.7,0.1-20.5c0.3-4.8-1.5-6.2-5.9-5.6c-1.1,0.2-2.4-0.1-3.5,0.1
		c-4.4,0.8-4.9-1.7-4.7-5.2c0.1-2.3,0.8-3.2,3.2-3.2c10.2,0.1,20.3,0.1,30.5,0c3.4,0,3.2,2,3.2,4.2c0,2.3,0,4.5-3.3,4.1
		c-0.2,0-0.3,0-0.5,0c-10.1,0.4-10.1,0.4-10.1,10.8c0,12.1-0.1,24.3,0.1,36.4c0.1,3.7-1,4.7-4.7,4.8c-4.1,0.1-4.6-1.6-4.5-5
		C423,716.1,422.9,709.1,422.9,702.1z"/>
	<path class="st1" d="M677.8,701.8c0-7.3-0.1-14.6,0-22c0.1-2.8-0.9-4-3.7-3.7c-1.8,0.2-3.7-0.2-5.5,0.1c-4.2,0.6-5.1-1.4-4.8-5.1
		c0.2-2.2,0.6-3.3,3.1-3.3c10.2,0.1,20.3,0.1,30.5,0c3.3,0,3.4,1.8,3.3,4.1c-0.1,2.2,0.2,4.3-3.2,4.3c-3.4,0-7.9-1.7-10,0.9
		c-2.1,2.6-0.6,7.1-0.6,10.7c-0.1,12-0.2,24,0.1,35.9c0.1,3.7-1.3,4.4-4.6,4.4c-3.3,0-4.7-0.7-4.6-4.4
		C678,716.4,677.8,709.1,677.8,701.8z"/>
	<path class="st1" d="M739.1,698c0-8.8,0.2-17.6-0.1-26.4c-0.1-3.8,1.9-3.8,4.7-3.8c2.9,0,4.5,0.3,4.5,4c-0.2,17.4-0.2,34.9,0,52.3
		c0,3.5-1.3,4.1-4.4,4.1c-3.1,0-4.9-0.2-4.8-4.2C739.3,715.3,739.1,706.6,739.1,698z"/>
	<path class="st2" d="M682.8,245.7c16.8-0.1,33.6,0.5,50.4,1.4c2.5,0.1,3.9,1.1,5.3,3.1c16.5,24.6,31.4,50.2,44.4,76.9
		c1,2,0.9,3.6,0,5.6c-13,26.7-27.9,52.3-44.4,76.9c-1.5,2.2-3.3,3-5.8,3.1c-29.3,1.8-58.6,1.9-87.9,0.1c-2.4-0.1-4-1.1-5.3-3.1
		c-16.5-24.6-31.4-50.2-44.4-76.9c-1.1-2.2-1-4,0-6.1c13-26.7,27.9-52.3,44.4-76.9c1.4-2.1,3-2.7,5.3-2.9
		C657.4,246.3,670.1,245.8,682.8,245.7z M733,330.2c0.1-25.9-20.1-47-45-47.1c-24.7-0.1-45,20.9-45.1,46.4
		c-0.1,26.2,20.2,47.4,45.2,47.3C712.8,376.8,733,355.8,733,330.2z"/>
	<path class="st2" d="M452.9,331.4c0-11,4.5-18.7,10.6-25.5c11.5-12.8,26.2-20.9,41.5-27.9c12.7-5.8,26-10.2,39.3-14.3
		c3.6-1.1,4.6,0,5.6,3.1c6.2,20.4,13.9,40.2,22.8,59.6c1.1,2.5,1.1,4.5,0,7c-8.9,19.5-16.7,39.5-23,60c-0.6,2-0.8,4-4.2,3
		c-24.7-7.3-48.7-16-69.7-31.4c-8.5-6.3-16-13.6-20.4-23.5C453.7,337.9,452.7,334.1,452.9,331.4z"/>
	<path class="st2" d="M923,330c-0.1,9.7-4.7,17.5-11,24.4c-11.1,12.2-25.2,20-39.9,26.9c-12.5,5.8-25.6,10.3-38.8,14.3
		c-3.3,1-4.6,0.3-5.6-3.1c-6.2-20.2-13.8-39.9-22.7-59.1c-1.3-2.7-1-4.9,0.2-7.5c8.7-19.1,16.3-38.6,22.4-58.6
		c1.1-3.5,2.3-4.2,5.9-3.1c23.6,7.3,46.6,15.8,66.7,30.6c7,5.2,13.3,11.1,17.8,18.7C921.1,318.5,923.1,323.9,923,330z"/>
	<path class="st2" d="M825.2,183.2c0,18.6-3.3,36.7-7.4,54.8c-0.7,3-2,3.7-4.9,3c-21.1-4.9-42.5-8-64-9.9c-2.1-0.2-3.2-1.3-4.4-2.9
		c-12.6-17.6-26.1-34.5-40.8-50.4c-1.2-1.3-2.7-2.5-0.6-4.5c20.4-19.1,41.7-36.8,68.7-45.9c6-2,12.3-3.2,18.6-2.9
		c13.8,0.6,22.9,7.9,28.4,20.2C824.2,156.9,825.3,170,825.2,183.2z"/>
	<path class="st2" d="M825.1,476.6c0.2,10-0.6,20-3.2,29.7c-6.5,24.2-22.8,33.6-46.9,27c-20.4-5.6-37.3-17.4-53.4-30.4
		c-6.2-5-12-10.6-18-15.8c-1.9-1.6-2.1-2.9-0.3-4.8c14.9-15.9,28.5-33,41.2-50.8c1.3-1.9,2.9-2.4,5-2.6c21.5-2.2,42.9-5.3,64-10.1
		c2.8-0.6,3.5,0.4,4,2.6C821.8,439.5,825.2,457.8,825.1,476.6z"/>
	<path class="st2" d="M552.5,181.1c0.1-9.6,0.9-20.9,4.6-31.8c6.8-20,21.4-28.3,42-23.8C615,129,628.8,137,642,146.1
		c11.2,7.8,21.6,16.7,31.6,26c2.3,2.2,2.6,3.5,0.3,5.9c-14.6,15.6-27.9,32.2-40.3,49.6c-1.5,2.1-3.2,3.1-5.7,3.3
		c-21.1,1.8-42,4.9-62.6,9.5c-3.4,0.8-4.6,0.2-5.4-3.3C555.7,219.3,552.7,201.3,552.5,181.1z"/>
	<path class="st2" d="M552.5,476.6c0.3-18.4,3.2-36.4,7.4-54.3c0.7-3,1.9-3.8,4.8-3.2c21.3,4.9,42.9,7.8,64.6,9.8
		c2.2,0.2,3.2,1.4,4.3,2.9c12.6,17.4,25.9,34.2,40.6,50c1.5,1.6,2.6,2.7,0.4,4.8c-18.2,17-37.3,32.8-60.4,42.7
		c-8.8,3.8-17.9,6.2-27.6,5.7c-11.9-0.6-20.3-6.6-25.9-16.8C555.1,508.3,552.2,493.6,552.5,476.6z"/>
	<path class="st2" d="M584.6,351.4c10.1,19.9,21.4,39,33.7,58.3c-6.1,0.4-11.3-1.1-16.6-1.7c-11.1-1.3-22-3.5-32.9-5.8
		c-2.2-0.5-3.2-1.1-2.4-3.6c5-15.7,10.5-31.2,17.2-46.2C583.7,352,584.1,351.9,584.6,351.4z"/>
	<path class="st2" d="M618.5,249.5c-12.5,19.9-23.9,38.9-34.2,59.5c-6-13.2-10.6-26-15-38.8c-4.1-11.9-4-11.8,8.3-14.4
		C590.8,253.1,604.1,251.3,618.5,249.5z"/>
	<path class="st2" d="M759.2,410c12.4-19.8,23.8-38.8,34.2-59.3c6.2,13.7,11.1,27.1,15.5,40.6c3.2,9.8,3.2,9.8-7,12
		C788.1,406.2,774.2,408.2,759.2,410z"/>
	<path class="st2" d="M654.6,430.9c23.3,1.1,45.3,1.2,67.3-0.1c0.5,2-0.8,2.8-1.5,3.8c-9,11.8-18.4,23.2-28.4,34.2
		c-2.2,2.5-3.5,3.1-6,0.2C675.3,457.1,665,444.9,654.6,430.9z"/>
	<path class="st2" d="M793.4,309c-10.3-20.5-21.7-39.4-33.8-58.7c6.7-0.3,12.6,1.1,18.5,2c10.2,1.6,20.3,3.7,30.4,5.7
		c1.5,0.3,3.7,0,2.8,2.8C806.3,276.9,800.6,292.8,793.4,309z"/>
	<path class="st2" d="M655,227.9c5.7-7.1,11.3-14.3,17.1-21.3c4.7-5.6,9.6-11,14.5-16.5c1.1-1.2,2-2.9,3.9-0.8
		c11.3,12.4,22.1,25.2,32,38.7c-11.3,0-22.3,0-33.3,0C678.1,228.1,666.9,228,655,227.9z"/>
	<path class="st2" d="M96.3,685.5c0-0.5-0.1-1,0-1.5c0.8-2.6-2-6.4,1.9-7.8c4.2-1.5,11.4,1.7,13.1,5.2c1.8,3.8,0.8,8.9-2.4,11.3
		c-3.1,2.4-6.8,2.4-10.5,2.4c-1.8,0-2.1-1.2-2.1-2.7C96.3,690.2,96.3,687.9,96.3,685.5C96.3,685.5,96.3,685.5,96.3,685.5z"/>
	<path class="st2" d="M596.6,704.8c3.2-6.9,6-13.2,9.4-20.6c3,6.8,5.5,12.5,7.9,18.2c0.7,1.6,0.5,2.5-1.6,2.5
		C607.4,704.8,602.4,704.8,596.6,704.8z"/>
	<path class="st2" d="M264,684.2c2.9,6.7,5.3,12.1,7.8,17.6c1.1,2.5,0.2,3.2-2.3,3.1c-4.6-0.1-9.3,0-14.9,0
		C257.7,698,260.6,691.7,264,684.2z"/>
	<path class="st1" d="M733,330.2c-0.1,25.6-20.2,46.5-44.9,46.7c-25,0.1-45.3-21.2-45.2-47.3c0.1-25.5,20.5-46.5,45.1-46.4
		C712.9,283.2,733.1,304.3,733,330.2z"/>
</g>
</svg>
