<?xml version="1.0" encoding="utf-8"?>
<!-- Generator: Adobe Illustrator 25.2.1, SVG Export Plug-In . SVG Version: 6.00 Build 0)  -->
<svg version="1.1" id="Layer_1" xmlns="http://www.w3.org/2000/svg" xmlns:xlink="http://www.w3.org/1999/xlink" x="0px" y="0px"
	 viewBox="0 0 2500 2500" style="enable-background:new 0 0 2500 2500;" xml:space="preserve">
<style type="text/css">
	.st0{fill:#F3F3F3;}
	.st1{fill:#FAC63C;}
	.st2{fill:#FACF56;}
	.st3{fill:#D78FC9;}
	.st4{fill:#FED45F;}
	.st5{fill:#DC940C;}
	.st6{fill:#DC98D2;}
	.st7{fill:#E7A71D;}
	.st8{fill:#8F587B;}
	.st9{fill:#B05B9C;}
	.st10{fill:#723953;}
	.st11{fill:#B7661A;}
</style>
<g>
	<path class="st0" d="M68,1350.7c120.6,75.5,237.1,147.5,352.3,221.7c13,8.3,48.6,8.2,27.5,43.6c-19.8,33.1-38.1,25.4-64.5,8.6
		c-112.9-71.5-227.1-140.9-340.5-211.6c-48.8-30.4-49.4-94.9-1.1-124.7c116.7-72.2,234.3-143,350.6-215.8
		c24.3-15.2,36.9-17.4,54.5,10.2c20,31.4-2.8,36.1-20.5,47C309.4,1201.7,192.6,1273.8,68,1350.7z"/>
	<path class="st0" d="M2431.2,1339.9c-121.7-75.8-236.8-147.2-351.4-219.2c-19.1-12-49.8-16.8-24.6-54.1
		c22.4-33.2,38.4-12.1,56.4-1.2c115.6,70.5,231,141.4,346.1,212.6c48.5,30,48.7,93.5,0.2,123.7c-116.4,72.6-234,143.4-349.3,217.7
		c-29,18.7-38.6,5.6-54.8-14.1c-23.3-28.1,3.3-33.4,17.8-42.4C2189.2,1489.3,2307.4,1416.5,2431.2,1339.9z"/>
	<path class="st1" d="M899.5,1783.3c-16.3,0.6-32.6,1.6-48.9,1.8c-74.6,0.7-74.6,0.6-69.1-75c25.6-13.5,37.6-48.9,74-45.2
		c-0.6,5.3-0.4,10.7-1.8,15.7c-4.5,15.2-30.7,27.8-10.3,45.4c15.9,13.7,35.1,1.8,49.3-8c43.5-30.1,91.5-54.4,127.3-94.5l0.1-0.1
		c15.7,0,26.6-7.2,32.6-21.5l0.1-0.1c15.7,0.1,26.6-7.1,32.6-21.5l0.1-0.1c20-3.6,40.2-6.8,43.7-32.2c3.6,0,7.2-0.1,10.8-0.2
		c14.2-0.2,21.4-7.4,21.9-21.3c15.7-0.2,26.6-7.4,32.7-21.7c15.7,0,26.6-7.1,32.4-21.6c33.7-26,71.2-49.5,66.9-100.2
		c6.4,0.9,12.9,1.8,19.4,2.8c7.6,16.8,30.6,6,39.9,21.5c-4.2,15.2-31.3,11.8-27.7,32.9c-39.6,51.6-83.5,99.6-120.3,153.6
		c-15,22-33.5,46.6-65,51.5c-14.3-0.1-21.6,7.1-22.3,21.1c-3.7,3.5-7.3,6.9-11,10.4c-69,14.6-124.6,60.5-191.5,80.3
		C904.5,1760.3,900.8,1772.1,899.5,1783.3z"/>
	<path class="st2" d="M781.1,1548c-13.8-67.7,6.1-118,66.5-158.9c72.6-49.2,130.6-117.5,205.8-164.4c0.7,26-4.7,53,12.4,76.3
		c3.2,6.1,6.4,12.3,9.6,18.4c0,22.5-17.5,34-30.8,48.1C969.7,1446.2,872.4,1492.9,781.1,1548z"/>
	<path class="st3" d="M1516.6,1371.5c84.3-45.4,108.2-130.4,136.3-210.5c11.4-32.5,35.4-61.4,33.6-98.4c9.6-0.1,19.3-0.1,28.9-0.2
		c4.2,51.1-45.1,87.9-38.2,139.7c-33.2,123.6-114,219.5-189.5,318.4c-8.6,11.3-21.7,19.4-22.3,35.5c0,0-1.2,1-1.2,1
		c-19.5,2.3-29.5,13.4-31.2,32.4c-14-3.3-28-6.6-42-9.8l0.1,0.4c-3.8-3.8-7.6-7.5-11.3-11.3l0.6,0.6c-3.8-3.9-7.6-7.7-11.4-11.6
		c0,0,0.6,0.2,0.6,0.2c-4.3-11.5-8.6-22.9-12.9-34.4C1399,1461.5,1460.1,1418.9,1516.6,1371.5z"/>
	<path class="st1" d="M781.1,1548c91.3-55.1,188.6-101.7,263.4-180.4c13.4-14.1,30.8-25.6,30.8-48.1c4.1-0.7,8.3-1.5,12.4-2.3
		c32.2,8.6,63.2,4.4,93.2-9.2c4.9,19.3-7.2,32.8-20.7,40.3c-74.1,41.1-121.5,111.9-186.7,162c-63.5,48.8-121.5,105.3-192.3,144.8
		C781.2,1619.4,781.1,1583.7,781.1,1548z"/>
	<path class="st4" d="M1194.4,1783.4c-28.9,0-57.8,0-86.7,0c13.2-28.5,53.7-38.5,53.1-76.4c18.3-17.1,36.7-34.2,55-51.3
		c3.8-3.4,7.6-6.9,11.3-10.3l0.4-0.4c3.5-3.4,7-6.8,10.5-10.2l0.6-0.5c3.5-3.3,7-6.6,10.4-9.9l0.8-0.8c3.4-3.2,6.8-6.4,10.2-9.5
		l1.2-1.1c3.2-3.1,6.5-6.2,9.7-9.3l1.7-1.5c3.2-2.9,6.5-5.9,9.7-8.8c13.7-11.7,27.4-23.5,41.1-35.2c15.4,0,30.8-0.1,46.2-0.1
		c0,0-0.6-0.2-0.6-0.2c3.8,3.9,7.6,7.7,11.4,11.6c0,0-0.6-0.6-0.6-0.6c3.8,3.8,7.6,7.5,11.3,11.3c0,0-0.1-0.4-0.1-0.4
		c-0.2,3.9-0.4,7.8-0.6,11.6c-10.9,78.9-58.9,125.2-132.7,150.2C1233.6,1749.9,1204.4,1753.1,1194.4,1783.4z"/>
	<path class="st5" d="M781.3,1655.1c70.8-39.5,128.8-95.9,192.3-144.8c65.1-50.1,112.6-120.9,186.7-162c13.5-7.5,25.5-21,20.7-40.3
		c0,0,1.6,1.9,1.6,1.9c9.6,0.6,17.9-1.5,22.5-10.9l-1.7,0c1.7-0.5,3.3-1,5-1.5c-1-2.3-2-4.6-3-6.9c28.6-22.3,48.6-55.2,84.9-68.3
		c3.7,15.1-1.1,31.9,9.9,45.4c-13.7,18.9-32.8,35.3-30.6,62c-9.3-6.7-15.7-17.7-30.6-4.3c-94.4,85.2-199,159.1-285.1,253.4
		c-20.2,7.6-42.5,12.1-54.1,33.4c-17.4,9.4-30.9,21.9-34.4,42.5c-3.3,3.4-6.7,6.8-10,10.2c-36.4-3.7-48.4,31.7-74,45.2
		C781.4,1691.8,781.4,1673.4,781.3,1655.1z"/>
	<path class="st6" d="M1269.6,1329.8c-2.2-26.7,16.9-43,30.6-62c62.2-50.3,119.9-107.2,193.5-141.9c25.5-12,59.8-32.3,66.8,21.1
		c-28.2,7.3-40.2,34.1-61.3,49.8c-70.8,53-122.9,128.5-205.1,167.8c-3.8-1.4-7.5-2.9-11.2-4.3
		C1278.4,1350.2,1274,1340,1269.6,1329.8z"/>
	<path class="st6" d="M1065.8,1301c-17.1-23.4-11.7-50.4-12.4-76.4c0,0-0.6,0.2-0.6,0.2c4.4-3.5,8.7-7,13.1-10.5
		c62.7-50.5,120.6-107.5,191.9-146.6c24.6-13.5,54.7-37.2,77.5,5.3c-37.6,36-73.9,73.5-113,107.8
		C1172.9,1224.2,1129.1,1275.2,1065.8,1301z"/>
	<path class="st7" d="M1594.4,1492.9c17.3,42.6,1.8,80.6-16.9,118.2c-30.9,62.2-79.5,110.5-126.6,160.2c-14.8,15.6-31.4,15-49.7,12
		c14.4-57.8,42.4-109.4,79.3-155.5c15.3-19.1,25.8-34.4,7.7-55.9C1532.5,1557.3,1558.1,1518,1594.4,1492.9z"/>
	<path class="st8" d="M1677.3,1202.1c-6.9-51.8,42.4-88.6,38.2-139.7c15.9-47.9,30.6-96,25.7-147.5c6.6-4.8,13.2-9.6,19.9-14.3
		c11.4-2.4,29.3,15.8,33.2-10.5c8.5-57.7,33.6-112.3,32.3-171.7c22-5.2,34.3,0,33.5,25.7c-1.4,46.5-1.9,93.1-0.7,139.6
		c0.7,27.3-16.8,35.8-37.3,35.1c-33.7-1.2-40.9,18.8-49,44.6c-26.1,83.3-35.9,171.7-78.6,249.8
		C1688.7,1209.6,1683,1205.8,1677.3,1202.1z"/>
	<path class="st5" d="M1106.8,1676.7c3.7-3.5,7.3-6.9,11-10.4c14.4,0.2,21.8-6.9,22.2-21.1c31.5-4.9,50-29.5,65-51.5
		c36.8-53.9,80.7-102,120.3-153.6c25.5-3.6,51.1-7.2,76.6-10.9c-10.3,12-22.5,22.8-30.5,36.1c-27.7,46.6-81.1,73.1-100.3,126.1
		c-36.9,2.2-52.6,35.3-76,55c-52.4,44-113.8,78.7-154.1,136.1c-21.6,0.3-43.2,0.7-64.8,1c1.2-17.9,17.1-21.2,28.9-28.9
		C1041.1,1731.3,1079.2,1710.7,1106.8,1676.7z"/>
	<path class="st6" d="M1741.2,915c4.9,51.5-9.8,99.6-25.7,147.5c-9.7,0.1-19.3,0.1-29,0.2c-10.3-32.3,3.4-64.5,13.3-91.3
		c17.3-46.7,6.4-75.6-32-100.6c12.8-2.7,16.4-12.7,18.7-23.5c23.1-3.1,20.6-19.3,18.4-35.3c0.1-9.6,0.3-19.3,0.4-28.9
		c18-12.2,11.6-29.9,10.6-46.4c0.8-6.2,1.5-12.5,2.3-18.7c21.7,0,43.3,0,64.9,0.1c0.4,7,0.7,13.9,1.1,20.9
		c-14.3,8.4-11.8,21.9-10.6,34.9c-0.3,6.4-0.6,12.8-0.9,19.2c-10.6,6.2-12.5,13.2-1.9,21.3c-0.6,7.3-1.2,14.5-1.8,21.8
		C1740.3,855.6,1743.8,886.3,1741.2,915z"/>
	<path class="st9" d="M1294.1,1364.7c82.3-39.3,134.3-114.8,205.1-167.8c21.1-15.8,33.1-42.5,61.3-49.8c5.7,25.5-8.7,44.8-20.4,64.8
		c-50.3,43.5-99.1,88.5-138.3,142.6c0,0,0.5-0.6,0.5-0.6c-3.9,3.8-7.8,7.5-11.6,11.3l0.6-0.5c-3.9,3.7-7.8,7.4-11.7,11.1l0.6-0.4
		c-14-2.4-26.4,0.5-36.3,11.1c-10.2-0.2-20.5-0.4-30.7-0.6c-6.4-0.9-12.9-1.8-19.3-2.8c0.4-2.5,0-5-1.2-7.3
		C1293.1,1372,1293.6,1368.4,1294.1,1364.7z"/>
	<path class="st2" d="M1194.4,1783.4c10-30.4,39.2-33.6,63.5-41.8c73.8-25,121.8-71.4,132.7-150.3c28.9,12.7,27.5,31.9,23.3,60.9
		c-7.7,52.8-60.2,80.1-67.1,131.2C1296,1783.4,1245.2,1783.4,1194.4,1783.4z"/>
	<path class="st9" d="M1677.3,1202.1c5.7,3.7,11.4,7.4,17.1,11.2c0.8,10.9,1.6,21.8,2.5,32.7c-15.9,23.7-29.9,48.1-31.6,77.4
		c-5.8,9.5-11.6,18.9-17.4,28.4c-13.8,5.3-23.3,11.5-5.1,23.6c-1.3,6.8-2.6,13.5-4,20.3c-23.7,6.7-28,31-42.6,46
		c-40.5,41.5-71.7,93.7-130.8,114.4c0.6-16.1,13.7-24.3,22.3-35.5C1563.3,1421.6,1644,1325.7,1677.3,1202.1z"/>
	<path class="st1" d="M1346.8,1783.4c6.9-51.1,59.4-78.5,67.1-131.2c4.2-28.9,5.6-48.2-23.3-60.9c0.2-3.9,0.4-7.8,0.6-11.6
		c14,3.3,28,6.6,42,9.8c15.8,4,25.8-4,33.7-16.2c7.1-0.5,14.3-1,21.4-1.4c18,21.6,7.6,36.8-7.7,55.9
		c-36.9,46.1-64.9,97.7-79.3,155.5C1383,1783.4,1364.9,1783.4,1346.8,1783.4z"/>
	<path class="st10" d="M1290.2,1222.4c-36.3,13.1-56.2,45.9-84.8,68.3c-3.6,2.1-4.3,4.8-2,8.3c0,0,1.7,0,1.7,0
		c-10.7-2.8-18.2,1-22.5,10.9c0,0-1.6-1.9-1.6-1.9c-30,13.6-61,17.8-93.2,9.2c78.2-36.1,140.1-92.2,194.6-156.9
		c14.9-17.7,26.3-38.7,51.4-44.8C1337.4,1158.3,1290.6,1181.1,1290.2,1222.4z"/>
	<path class="st9" d="M1333.7,1115.4c-25,6.1-36.5,27.1-51.4,44.8c-54.5,64.7-116.4,120.8-194.6,156.9c-4.1,0.7-8.3,1.5-12.4,2.2
		c-3.2-6.2-6.4-12.3-9.6-18.4c63.4-25.8,107.1-76.8,156.6-120.1c39.1-34.3,75.4-71.7,113-107.8
		C1341.3,1087.4,1337.4,1101.4,1333.7,1115.4z"/>
	<path class="st11" d="M1271.2,1591.5c19.2-53,72.6-79.5,100.3-126.1c7.9-13.3,20.2-24.1,30.5-36.1c7.2-7,14.3-14,21.5-21
		c39.4-20,55.9-63.2,90.8-87.8c10.9,16.4-12.8,34.6,2.4,50.9c-56.6,47.5-117.7,90.1-159.8,152.4c-11.1,11.5-22.2,23-33.3,34.5
		c-13.7,11.7-27.4,23.5-41.1,35.2c-3.2-0.8-6.5-1-9.8-0.4L1271.2,1591.5z"/>
	<path class="st9" d="M1686.6,847.2c-2.3,10.9-5.9,20.8-18.7,23.5c-20.5-28.3-21.8-127.3-0.3-147.5c14.4-13.5,33.3-7.4,50.7-5.4
		c-0.8,6.2-1.5,12.5-2.3,18.8c-25.6,10.5-25.2,26.9-10.6,46.4c-0.1,9.6-0.3,19.3-0.4,28.9C1685.7,817,1683.6,830.8,1686.6,847.2z"/>
	<path class="st7" d="M1106.8,1676.7c-27.6,34-65.7,54.6-101.7,77.9c-11.8,7.6-27.7,11-28.9,28.9c-25.6-0.1-51.1-0.1-76.7-0.2
		c1.3-11.1,5-23,15.8-26.2C982.2,1737.2,1037.8,1691.3,1106.8,1676.7z"/>
	<path class="st9" d="M1769.1,836c0.6-7.3,1.2-14.5,1.8-21.8c11.5-6.1,12-13.2,1.9-21.3c0.3-6.4,0.6-12.8,0.8-19.3
		c19.2-6.9,25.8-17.7,10.6-34.9c-0.4-7-0.7-13.9-1.1-20.9c14.5,0.1,28.9,0.3,43.4,0.4c1.2,59.5-23.8,114.1-32.3,171.7
		c-3.9,26.3-21.8,8.1-33.2,10.5C1756.7,878.2,1776.5,858.8,1769.1,836z"/>
	<path class="st11" d="M1041,1782.5c40.4-57.4,101.7-92.1,154.1-136.1c23.4-19.7,39.1-52.7,76-55c0,0,1.6,1.5,1.5,1.5
		c-0.5,3.1-0.5,6.2,0.1,9.3c0,0-1.7,1.5-1.7,1.5c-3.2,3.1-6.5,6.2-9.7,9.3c0,0-1.2,1.1-1.2,1.1c-3.4,3.2-6.8,6.4-10.2,9.6
		c0,0-0.8,0.8-0.8,0.7c-3.5,3.3-7,6.6-10.4,9.9c0,0-0.6,0.5-0.6,0.5c-3.5,3.4-7,6.8-10.5,10.2c0,0-0.4,0.4-0.4,0.4
		c-3.8,3.4-7.6,6.9-11.3,10.3c-18.3,17.1-36.7,34.2-55,51.3c-36.3,17.2-63.2,44.6-85.6,77C1063.8,1783.6,1052.4,1783,1041,1782.5z"
		/>
	<path class="st10" d="M1488.3,1572c-7.1,0.5-14.3,1-21.4,1.4c-0.8-5.4-1.7-10.8-2.5-16.3c0,0,1.2-1,1.2-1
		c59.1-20.7,90.3-72.9,130.8-114.4c14.6-14.9,18.9-39.2,42.6-46c1.3,39.6-36.3,61.9-44.4,97.3
		C1558.1,1518,1532.5,1557.3,1488.3,1572z"/>
	<path class="st5" d="M1514.2,1320.5c-34.9,24.5-51.4,67.7-90.8,87.7c4.5-20.4-10.2-31.5-21.9-43.9c0.6-3.5,0.8-7,0.7-10.5
		c0,0-0.5,0.6-0.5,0.6c51.7-2.8,68.4-53.2,105.6-75.8C1513.6,1292,1516.9,1305.8,1514.2,1320.5z"/>
	<path class="st10" d="M1507.4,1278.7c-37.2,22.6-53.9,73-105.6,75.8c39.2-54.1,88-99,138.3-142.6
		C1544.2,1241.4,1510.3,1252.6,1507.4,1278.7z"/>
	<path class="st1" d="M1075.2,1784.1c22.4-32.4,49.3-59.8,85.6-77c0.6,37.9-39.9,47.8-53.1,76.4
		C1096.9,1783.7,1086.1,1783.9,1075.2,1784.1z"/>
	<path class="st10" d="M1665.3,1323.4c1.7-29.3,15.7-53.7,31.6-77.4C1705.1,1279.3,1700,1307.2,1665.3,1323.4z"/>
	<path class="st10" d="M1642.8,1375.4c-18.2-12.1-8.7-18.3,5.1-23.6C1650.1,1360.5,1652.6,1369.3,1642.8,1375.4z"/>
	<path class="st2" d="M1065.9,1214.3c-4.4,3.5-8.7,7-13.1,10.5C1053.8,1217.2,1058.5,1214.2,1065.9,1214.3z"/>
	<path class="st4" d="M1292.6,1375.7c1.2,2.3,1.6,4.7,1.2,7.3c4.3,50.7-33.2,74.2-66.9,100.2c-15.8-0.1-31.5-0.1-32.4,21.6
		c-6.1,14.3-17,21.5-32.7,21.7c-14.2,0.2-21.5,7.3-21.9,21.3c-3.6,0.1-7.2,0.2-10.8,0.2c-20,3.6-40.3,6.6-43.7,32.2
		c0,0-0.1,0.1-0.1,0.1c-15.8-0.2-31.6-0.3-32.7,21.5c0,0-0.1,0.1-0.1,0.1c-15.8-0.2-31.6-0.3-32.6,21.5c0,0-0.1,0.1-0.1,0.1
		c-78.2,12.3-78.2,12.3-66-44.6c86.1-94.3,190.7-168.2,285.1-253.4c14.8-13.4,21.2-2.4,30.6,4.3c4.4,10.2,8.9,20.4,13.3,30.7
		C1286.1,1365.5,1289.3,1370.6,1292.6,1375.7z"/>
	<path class="st2" d="M953.9,1578.9c-12.1,56.9-12.1,56.9,66,44.6c-35.8,40.2-83.8,64.4-127.3,94.5c-14.2,9.8-33.4,21.7-49.3,8
		c-20.3-17.5,5.8-30.2,10.3-45.4c1.5-5,1.3-10.5,1.8-15.7c3.3-3.4,6.7-6.8,10-10.2c30.5,0.9,35.3-18.5,34.3-42.5
		C911.5,1591,933.7,1586.5,953.9,1578.9z"/>
	<path class="st7" d="M1401.5,1364.4c11.8,12.5,26.4,23.5,21.9,43.9c-7.2,7-14.3,14-21.5,21c-25.5,3.6-51.1,7.2-76.6,10.9
		c-3.6-21.1,23.5-17.7,27.7-32.9c-9.3-15.5-32.2-4.7-39.9-21.5c10.2,0.2,20.5,0.4,30.8,0.6c13.8,1.7,27.5,3,36.3-11.1
		c0,0-0.6,0.4-0.6,0.4c3.9-3.7,7.8-7.4,11.7-11.1c0,0-0.6,0.5-0.6,0.5C1394.3,1364.9,1397.9,1364.6,1401.5,1364.4z"/>
	<path class="st2" d="M1085.4,1580.3c3.4-25.6,23.7-28.6,43.7-32.2C1125.6,1573.5,1105.4,1576.7,1085.4,1580.3z"/>
	<path class="st2" d="M1052.7,1601.8c1-21.8,16.8-21.7,32.7-21.5C1079.3,1594.7,1068.5,1601.9,1052.7,1601.8z"/>
	<path class="st2" d="M1020,1623.4c1-21.8,16.8-21.7,32.6-21.5C1046.6,1616.2,1035.7,1623.4,1020,1623.4z"/>
	<path class="st2" d="M1194.5,1504.8c0.9-21.7,16.6-21.7,32.4-21.6C1221.1,1497.7,1210.2,1504.8,1194.5,1504.8z"/>
	<path class="st7" d="M1140.1,1645.2c-0.5,14.2-7.8,21.3-22.2,21.1C1118.5,1652.3,1125.7,1645.1,1140.1,1645.2z"/>
	<path class="st2" d="M1139.9,1547.8c0.4-14,7.7-21.1,21.9-21.3C1161.4,1540.5,1154.1,1547.6,1139.9,1547.8z"/>
	<path class="st9" d="M1464.3,1557.1c0.8,5.4,1.7,10.8,2.5,16.3c-7.9,12.2-17.8,20.2-33.7,16.2
		C1434.8,1570.5,1444.8,1559.4,1464.3,1557.1z"/>
	<path class="st1" d="M1323.6,1558.3c11.1-11.5,22.2-23,33.3-34.5c4.3,11.4,8.6,22.9,12.9,34.3
		C1354.4,1558.2,1339,1558.2,1323.6,1558.3z"/>
	<path class="st1" d="M1391.3,1580.1c-3.8-3.8-7.6-7.5-11.3-11.3C1383.7,1572.6,1387.5,1576.4,1391.3,1580.1z"/>
	<path class="st1" d="M1380.6,1569.5c-3.8-3.9-7.6-7.7-11.4-11.6C1373,1561.8,1376.8,1565.6,1380.6,1569.5z"/>
	<path class="st1" d="M1272.8,1602.3c-0.6-3.1-0.7-6.2-0.1-9.3c3.3-0.5,6.6-0.4,9.8,0.4C1279.3,1596.4,1276.1,1599.3,1272.8,1602.3z
		"/>
	<path class="st1" d="M1238.7,1634.3c3.5-3.3,7-6.6,10.4-9.9C1245.7,1627.7,1242.2,1631,1238.7,1634.3z"/>
	<path class="st1" d="M1227.6,1645.1c3.5-3.4,7-6.8,10.5-10.2C1234.7,1638.3,1231.1,1641.7,1227.6,1645.1z"/>
	<path class="st1" d="M1215.9,1655.8c3.8-3.4,7.6-6.9,11.3-10.3C1223.4,1648.9,1219.7,1652.4,1215.9,1655.8z"/>
	<path class="st1" d="M1261.4,1613c3.2-3.1,6.5-6.2,9.7-9.3C1267.9,1606.8,1264.6,1609.9,1261.4,1613z"/>
	<path class="st1" d="M1250,1623.7c3.4-3.2,6.8-6.4,10.2-9.6C1256.8,1617.3,1253.4,1620.5,1250,1623.7z"/>
	<path class="st1" d="M899.9,1612.2c1,24-3.8,43.4-34.3,42.5C868.9,1634.2,882.5,1621.7,899.9,1612.2z"/>
	<path class="st1" d="M1182.6,1309.9c4.4-10,11.8-13.7,22.5-10.9C1200.5,1308.4,1192.2,1310.5,1182.6,1309.9z"/>
	<path class="st1" d="M1203.4,1299c-2.3-3.5-1.6-6.2,2-8.3c1,2.3,2,4.6,3,6.9C1206.7,1298,1205,1298.5,1203.4,1299z"/>
	<path class="st2" d="M1292.6,1375.7c-3.2-5.1-6.5-10.1-9.7-15.2c3.7,1.4,7.5,2.8,11.2,4.3C1293.6,1368.4,1293.1,1372,1292.6,1375.7
		z"/>
	<path class="st3" d="M1769.1,836c7.4,22.8-12.4,42.2-8.1,64.6c-6.6,4.8-13.3,9.5-19.9,14.3C1743.8,886.3,1740.3,855.6,1769.1,836z"
		/>
	<path class="st3" d="M1705.4,783c-14.6-19.5-15-35.9,10.6-46.4C1717,753.1,1723.4,770.8,1705.4,783z"/>
	<path class="st3" d="M1686.6,847.2c-2.9-16.4-0.8-30.2,18.4-35.3C1707.2,828,1709.6,844.1,1686.6,847.2z"/>
	<path class="st3" d="M1784.3,738.8c15.2,17.2,8.6,27.9-10.6,34.9C1772.5,760.7,1770,747.3,1784.3,738.8z"/>
	<path class="st3" d="M1772.8,793c10.1,8,9.6,15.1-1.9,21.3C1760.3,806.2,1762.2,799.2,1772.8,793z"/>
	<path class="st10" d="M1380.1,1375.2c-8.8,14.1-22.4,12.9-36.3,11.1C1353.8,1375.7,1366.1,1372.8,1380.1,1375.2z"/>
	<path class="st10" d="M1391.2,1364.6c-3.9,3.7-7.8,7.4-11.7,11.1C1383.4,1372,1387.3,1368.3,1391.2,1364.6z"/>
	<path class="st10" d="M1401.5,1364.4c-3.6,0.3-7.3,0.5-10.9,0.8c3.9-3.8,7.8-7.5,11.6-11.3
		C1402.4,1357.4,1402.1,1360.9,1401.5,1364.4z"/>
</g>
</svg>
