<?xml version="1.0" encoding="utf-8"?>
<!-- Generator: Adobe Illustrator 25.4.1, SVG Export Plug-In . SVG Version: 6.00 Build 0)  -->
<svg version="1.1" id="Layer_1" xmlns="http://www.w3.org/2000/svg" xmlns:xlink="http://www.w3.org/1999/xlink" x="0px" y="0px"
	 viewBox="0 0 2560 1565" style="enable-background:new 0 0 2560 1565;" xml:space="preserve">
<style type="text/css">
	.st0{fill:#38BCF7;}
</style>
<g>
	<path class="st0" d="M1.3,1291.4c1.8-6.6,3.5-13.3,5.3-19.9c16.6-60.8,38.3-119.7,67.8-175.5c31.4-59.5,70.5-113.3,119.8-159.3
		c53.7-50,115.4-87,184.3-112c43.6-15.9,88.5-26.5,134.3-33.2c50.6-7.4,101.4-9.9,152.4-8.6c83.2,2.2,164.5,14.7,243,43.5
		c69,25.3,131.2,62.2,188.4,108c45.5,36.4,86.7,77.4,127.5,118.8c28.2,28.6,56.2,57.3,86.3,84c37.3,33.1,77.2,62.3,124,80.9
		c27.1,10.8,55.2,17,84,21.1c18.5,2.7,37.1,4,55.7,3.9c66.8-0.6,128.6-19,185.7-53.5c48.5-29.3,89.7-67.1,126.7-109.8
		c10.5-12.1,20.4-24.6,30.2-37.3c0.5-0.6,1-1.2,2-2.3c0.2,4.1-1.1,7.1-2,10.2c-17,64.5-39.4,127-70.7,186.1
		c-31.2,59.2-70.1,112.7-119.1,158.6c-53.8,50.4-115.8,87.5-185.1,112.7c-46,16.7-93.3,27.7-141.8,34.2c-48.1,6.5-96.5,8.8-145,7.5
		c-68.8-1.8-136.5-10.7-202.7-30.3c-72.1-21.3-138.2-54.5-198.9-98.6c-36-26.2-69.5-55.4-101.6-86.2c-32.7-31.4-63.9-64.2-96.2-96
		c-32-31.6-65-62.2-102.2-87.8c-44.3-30.5-92.9-49.1-146.1-56.7c-32.5-4.7-64.9-6.1-97.5-2.6c-54.8,6-105.4,24.4-152.3,53.3
		c-54.2,33.5-99.2,77.1-139,126.4c-5.5,6.8-10.9,13.7-16.3,20.6C1.9,1291.6,1.6,1291.5,1.3,1291.4z"/>
	<path class="st0" d="M2558.7,273.6c-1.7,6.6-3.4,13.3-5.3,19.9c-16.6,61-38.4,120-68,176c-31.2,59-70,112.4-118.9,158.2
		c-53.8,50.4-115.8,87.5-185.1,112.7c-46,16.7-93.3,27.7-141.8,34.2c-48.1,6.5-96.5,8.8-145,7.5c-68.8-1.8-136.5-10.7-202.7-30.3
		c-72.1-21.3-138.2-54.5-198.9-98.6c-36-26.2-69.5-55.4-101.6-86.2c-32.7-31.4-63.9-64.2-96.2-96c-31.2-30.8-63.3-60.6-99.3-85.8
		c-44.8-31.4-94.3-50.9-148.5-58.6c-20.6-2.9-41.3-4.9-62.2-4.7c-67.9,0.7-130.5,19.8-188.1,55.3c-54.2,33.4-99.2,77.1-139,126.4
		c-5.5,6.8-10.9,13.7-17.3,20.2c1.8-6.6,3.5-13.3,5.3-19.9c16.6-60.8,38.3-119.7,67.8-175.5c31.4-59.5,70.5-113.3,119.8-159.3
		c53.7-50,115.4-87,184.3-112c43.6-15.9,88.5-26.5,134.3-33.2c50.6-7.4,101.4-9.9,152.4-8.6c83.2,2.2,164.5,14.7,243,43.5
		c69,25.3,131.2,62.2,188.4,108c45.5,36.4,86.7,77.4,127.5,118.8c28.2,28.6,56.2,57.3,86.3,84c37.3,33.1,77.2,62.3,124,80.9
		c27.1,10.8,55.2,17,83.9,21.1c18.5,2.7,37.1,4,55.7,3.9c66.8-0.6,128.6-19,185.7-53.5c48.5-29.3,89.7-67.1,126.7-109.8
		c10.5-12.1,20.4-24.6,30.2-37.3c0.5-0.6,1-1.2,1.5-1.8C2558.1,273.4,2558.4,273.5,2558.7,273.6z"/>
</g>
</svg>
