<svg xmlns="http://www.w3.org/2000/svg" viewBox="0 0 128.4 191.71"><defs><style>.cls-1{fill:#fff;}</style></defs><g id="Layer_2" data-name="Layer 2"><g id="Layer_1-2" data-name="Layer 1"><path d="M43.47,93c5.43-5.68,10.78-11.45,16.32-17C73,62.65,86.15,49.36,99.56,36.3A22.52,22.52,0,0,1,108.5,31c6.28-1.88,13,1.33,16.09,6.9a14.94,14.94,0,0,1-2,17.52c-5.29,5.53-10.8,10.85-16.19,16.27-.93.94-1.78,2-2.93,3.27,5.12,2.25,8.93,5.34,10.36,10.62s0,10-3.46,14.61c5,2.2,9,5.32,10.42,10.77,1.37,5.28-.06,10-3.41,14.33l3,1.74c8.61,5,10.76,15.83,3.89,23.08-9.2,9.7-18.44,19.5-28.64,28.11C62.91,205.89,10.3,188.68,1.23,147.68a52.52,52.52,0,0,1,.53-24.77q7.55-29.13,15.38-58.2c2.15-8,9.1-12.76,16.85-11.94A15.22,15.22,0,0,1,47.85,67.54c.08,3.19-1,6.45-1.7,9.61-1.2,5-2.59,10-3.89,14.94Zm16.41,91.29C74.1,183.78,86,178.18,96,168.17l17.37-17.41c1.84-1.84,3.79-3.58,5.46-5.55A7.59,7.59,0,0,0,108,134.62c-.92.81-1.7,1.77-2.6,2.61-1.78,1.65-3.77,3.27-6,1.15s-1.21-4.44.72-6.38c3.56-3.58,7.17-7.13,10.7-10.75,3.81-3.89,4.22-8.38,1.15-11.61-3.22-3.4-7.9-3.1-11.9.83-3.8,3.74-7.51,7.58-11.33,11.29-1.78,1.73-4.24,2.36-5.66.15-.78-1.22.08-3.59.47-5.38.15-.68,1.1-1.17,1.68-1.75,6.46-6.48,13-12.89,19.37-19.46,3.38-3.49,3.36-7.88.31-11s-7.43-3-11,.12c-.93.81-1.78,1.7-2.65,2.56q-9.3,9.27-18.57,18.55c-1.8,1.8-3.83,2.35-5.73.4-1.76-1.8-1.19-3.73.45-5.43.57-.58,1.12-1.19,1.7-1.77l40-40c2.7-2.71,5.48-5.35,8-8.19a7.75,7.75,0,0,0,.3-10.12,7.62,7.62,0,0,0-10-1.21,20.52,20.52,0,0,0-3.42,2.9q-22.06,22-44.09,44c-7.35,7.35-14.62,14.77-22.11,22-1,1-3.66,1.74-4.51,1.14-1.19-.84-1.65-3-1.91-4.72-.17-1.11.54-2.36.86-3.55Q36,86.58,39.91,72.13c.94-3.47,1-6.76-1.74-9.55-4.67-4.78-12-2.62-13.89,4.36C19,86.71,13.57,106.48,8.68,126.37.8,158.41,30,185.76,59.88,184.27Z"/><path d="M91.87,11.28c0-2.8-.54-5,.15-6.76s2.4-3.73,4-4.14c2.44-.62,4.06,1.38,4.11,3.92.12,5.59.09,11.19,0,16.78,0,2.84-1.79,4.23-4.48,4.27-5.73.08-11.47.09-17.2,0-2.5,0-4.21-1.37-4.25-4s1.62-3.92,4.13-4.14c1.71-.15,3.43-.2,6.18-.35A36.63,36.63,0,0,0,63.7,8.51c-11.46-.94-21.52,2.61-30.17,10.2-1,.88-2.25,2.11-3.35,2.07-1.52-.05-4.06-.9-4.29-1.86a6.68,6.68,0,0,1,1.18-5.4A42.41,42.41,0,0,1,47.37,1.79C62.55-2.14,76.58.36,89.3,9.69,89.83,10.09,90.43,10.4,91.87,11.28Z"/><path class="cls-1" d="M59.88,184.27C30,185.76.8,158.41,8.68,126.37,13.57,106.48,19,86.71,24.28,66.94c1.88-7,9.22-9.14,13.89-4.36,2.73,2.79,2.68,6.08,1.74,9.55Q36,86.58,32.15,101c-.32,1.19-1,2.44-.86,3.55.26,1.69.72,3.88,1.91,4.72.85.6,3.49-.15,4.51-1.14,7.49-7.2,14.76-14.62,22.11-22q22-22,44.09-44a20.52,20.52,0,0,1,3.42-2.9,7.62,7.62,0,0,1,10,1.21,7.75,7.75,0,0,1-.3,10.12c-2.56,2.84-5.34,5.48-8,8.19l-40,40c-.58.58-1.13,1.19-1.7,1.77-1.64,1.7-2.21,3.63-.45,5.43,1.9,2,3.93,1.4,5.73-.4Q81.87,96.26,91.17,87c.87-.86,1.72-1.75,2.65-2.56,3.59-3.11,8.07-3.14,11-.12s3.07,7.52-.31,11c-6.37,6.57-12.91,13-19.37,19.46-.58.58-1.53,1.07-1.68,1.75-.39,1.79-1.25,4.16-.47,5.38,1.42,2.21,3.88,1.58,5.66-.15,3.82-3.71,7.53-7.55,11.33-11.29,4-3.93,8.68-4.23,11.9-.83,3.07,3.23,2.66,7.72-1.15,11.61-3.53,3.62-7.14,7.17-10.7,10.75-1.93,1.94-3.1,4.15-.72,6.38s4.27.5,6-1.15c.9-.84,1.68-1.8,2.6-2.61a7.59,7.59,0,0,1,10.87,10.59c-1.67,2-3.62,3.71-5.46,5.55L96,168.17C86,178.18,74.1,183.78,59.88,184.27Z"/></g></g></svg>