<svg xmlns="http://www.w3.org/2000/svg" viewBox="0 0 128.14 191.74"><defs><style>.cls-1{fill:#fff;}</style></defs><g id="Layer_2" data-name="Layer 2"><g id="Layer_1-2" data-name="Layer 1"><path d="M10.67,125.43c-6.79-10.91-4.89-18,7-25.47a15.47,15.47,0,0,1-3.39-14c1.24-5.31,4.89-8.69,10.49-10.73-.94-1.12-1.61-2.05-2.41-2.85C17,67,11.68,61.72,6.42,56.36.27,50.09,0,40.94,5.78,35.05c5.91-6,15.31-6.23,21.67.05Q54.56,61.88,81.37,89c1.29,1.31,2,3.23,2.93,4.86L86,92.33c-1.66-6.31-3.35-12.6-5-18.91-2.39-9.37,2.08-17.83,10.58-20.11,8.89-2.39,17,2.48,19.58,12,5.21,19.51,10.49,39,15.34,58.6,8.23,33.2-16.09,60.93-44.24,66.47-21.28,4.19-39.7-1.72-55.19-16.81-6.84-6.67-13.27-13.8-20.39-20.16C-2.88,144.89-2.72,131.49,10.67,125.43Zm110.48,10.79c-.69-4-1.11-8.12-2.13-12.07Q111.78,96,104.25,67.89C102.7,62,98.63,59.12,94,60.35,88.87,61.72,86.71,66,88.29,72c2.71,10.3,5.54,20.56,8.23,30.87.61,2.31,1.73,5.4-1.35,6.37-1.58.49-4.38-.8-5.76-2.17C67.75,85.65,46.25,64,24.66,42.52,23.14,41,21.38,39,19.5,38.73c-2.57-.39-6.13-.24-7.83,1.28s-2.25,5-2.16,7.64c.06,1.68,2,3.46,3.43,4.88Q36.22,75.94,59.6,99.24c2,2,4.38,4.17,1.54,6.87-2.54,2.42-4.68.34-6.6-1.59C48.38,98.3,42.22,92.08,35.94,86a13.91,13.91,0,0,0-5.32-3.59,6.89,6.89,0,0,0-8.4,3.47c-2,3.59-1.2,6.9,1.58,9.71q9.93,10.07,20,20c2,2,3.76,4.17,1.25,6.59s-4.72.52-6.66-1.45c-3-3-6-6-9-9-5.07-5-9.5-5.77-13.06-2.12s-2.79,7.84,2.44,13.06c3.38,3.38,6.77,6.76,10.1,10.19,1.67,1.72,2.11,4,.06,5.3-1.19.78-3.42.38-5-.06-1-.28-1.82-1.57-2.7-2.43-4-3.9-8.06-4.23-11.55-.93-3.32,3.14-3.14,7.72.64,11.54,7.59,7.68,15.11,15.44,22.91,22.89C47,182.31,63.28,186.93,81.91,183,104,178.4,121.13,157.74,121.15,136.22Z"/><path d="M43.35,16.82c3,.19,5.1-.15,6.68.56s2.71,2.51,4,3.83c-1.39,1.39-2.71,3.87-4.2,4a114.94,114.94,0,0,1-18,0c-1.42-.11-3.63-2.66-3.77-4.23a94,94,0,0,1,0-16.35C28.25,3,30.36.77,31.94.4,34.68-.24,36,2,36.2,4.66c.13,1.9,0,3.81,0,6.66,1.75-1.14,2.92-1.88,4.06-2.66a48.26,48.26,0,0,1,58,2.1c1,.76,1.82,1.64,2.73,2.47,2.09,1.89,2.93,4.25,1,6.48-2.15,2.48-4.63,1.64-6.77-.4A38.92,38.92,0,0,0,72.65,8.68C62.23,7.38,52.84,10,43.35,16.82Z"/><path class="cls-1" d="M121.15,136.22c0,21.52-17.16,42.18-39.24,46.81-18.63,3.9-34.95-.72-48.7-13.86-7.8-7.45-15.32-15.21-22.91-22.89-3.78-3.82-4-8.4-.64-11.54,3.49-3.3,7.54-3,11.55.93.88.86,1.66,2.15,2.7,2.43,1.62.44,3.85.84,5,.06,2.05-1.33,1.61-3.58-.06-5.3-3.33-3.43-6.72-6.81-10.1-10.19-5.23-5.22-6-9.38-2.44-13.06s8-2.93,13.06,2.12c3,3,6,6,9,9,1.94,2,4.13,3.88,6.66,1.45s.76-4.6-1.25-6.59q-10.06-9.93-20-20c-2.78-2.81-3.6-6.12-1.58-9.71a6.89,6.89,0,0,1,8.4-3.47A13.91,13.91,0,0,1,35.94,86c6.28,6.09,12.44,12.31,18.6,18.53,1.92,1.93,4.06,4,6.6,1.59,2.84-2.7.46-4.88-1.54-6.87Q36.26,75.9,12.94,52.53c-1.41-1.42-3.37-3.2-3.43-4.88-.09-2.6.45-6.11,2.16-7.64s5.26-1.67,7.83-1.28c1.88.29,3.64,2.27,5.16,3.79C46.25,64,67.75,85.65,89.41,107.09c1.38,1.37,4.18,2.66,5.76,2.17,3.08-1,2-4.06,1.35-6.37C93.83,92.58,91,82.32,88.29,72c-1.58-6,.58-10.3,5.72-11.67,4.62-1.23,8.69,1.69,10.24,7.54Q111.72,96,119,124.15C120,128.1,120.46,132.2,121.15,136.22Z"/></g></g></svg>